<?xml version="1.0" encoding="UTF-8"?>
<svg width="950px" height="255px" viewBox="0 0 950 255" version="1.1" xmlns="http://www.w3.org/2000/svg" xmlns:xlink="http://www.w3.org/1999/xlink">
    <title>编组</title>
    <defs>
        <linearGradient x1="50%" y1="0%" x2="50%" y2="100%" id="linearGradient-1">
            <stop stop-color="#EEEEEE" offset="0%"></stop>
            <stop stop-color="#D8D8D8" offset="100%"></stop>
        </linearGradient>
        <linearGradient x1="50%" y1="0%" x2="50%" y2="100%" id="linearGradient-2">
            <stop stop-color="#21AFF8" offset="0%"></stop>
            <stop stop-color="#009FC0" offset="100%"></stop>
        </linearGradient>
        <path d="M295.727,60.566 C295.513,60.569 295.343,60.596 295.137,60.602 L295.137,60.602 L293.145,60.602 C289.089,60.602 285.8,63.891 285.8,67.947 L285.8,67.947 L285.8,127.426 C285.8,135.723 287.29,143.674 290.013,151.011 L290.013,151.011 C298.438,176.245 320.396,192.529 346.284,193.646 L346.284,193.646 C349.007,193.831 351.77,193.865 354.577,193.698 L354.577,193.698 C365.89,193.021 376.437,189.399 385.48,183.612 L385.48,183.612 C387.002,182.515 391.842,177.966 392.205,175.437 L392.205,175.437 C392.219,175.341 392.314,181.441 392.341,182.09 L392.341,182.09 C392.566,187.514 391.879,192.228 390.519,196.321 L390.519,196.321 C383.781,216.606 360.513,221.602 349.644,221.955 L349.644,221.955 C346.407,222.062 343.678,224.033 342.451,226.808 L342.451,226.808 C341.23,228.503 341.278,231.973 341.531,239.332 L341.531,239.332 C341.564,240.276 341.639,241.226 341.728,242.201 L341.728,242.201 L341.725,243.988 C341.721,246.159 343.48,247.921 345.651,247.921 L345.651,247.921 L353.151,247.921 C355.129,248 357.07,247.991 358.979,247.921 L358.979,247.921 L359.878,247.921 C390.628,247.921 415.555,223.119 415.555,192.524 L415.555,192.524 L415.555,177.068 L415.555,129.853 C415.559,129.543 415.578,129.237 415.578,128.926 L415.578,128.926 L415.578,66.457 C415.578,63.224 412.956,60.602 409.722,60.602 L409.722,60.602 L389.893,60.602 C386.668,60.602 384.053,63.218 384.053,66.443 L384.053,66.443 L384.053,129.03 C384.053,129.045 384.052,129.061 384.052,129.075 L384.052,129.075 C383.963,134.567 383.079,139.513 381.479,143.856 L381.479,143.856 C376.433,155.907 364.509,164.431 350.683,164.431 L350.683,164.431 C341.302,164.431 332.806,160.501 326.74,154.208 L326.74,154.208 C320.889,148.14 317.964,139.911 317.537,131.493 L317.537,131.493 C317.502,130.784 317.479,130.067 317.472,129.34 L317.472,129.34 C317.3,113.193 317.582,97.042 317.314,80.898 L317.314,80.898 L317.314,76.244 C317.452,66.908 318.241,63.026 314.497,61.474 L314.497,61.474 C313.609,60.932 312.577,60.602 311.462,60.602 L311.462,60.602 L309.536,60.602 C308.078,60.517 306.362,60.487 304.339,60.487 L304.339,60.487 C301.931,60.487 299.088,60.529 295.727,60.566" id="path-3"></path>
        <path d="M295.727,60.566 C295.513,60.569 295.343,60.596 295.137,60.602 L295.137,60.602 L293.145,60.602 C289.089,60.602 285.8,63.891 285.8,67.947 L285.8,67.947 L285.8,127.426 C285.8,135.723 287.29,143.674 290.013,151.011 L290.013,151.011 C298.438,176.245 320.396,192.529 346.284,193.646 L346.284,193.646 C349.007,193.831 351.77,193.865 354.577,193.698 L354.577,193.698 C365.89,193.021 376.437,189.399 385.48,183.612 L385.48,183.612 C387.002,182.515 391.842,177.966 392.205,175.437 L392.205,175.437 C392.219,175.341 392.314,181.441 392.341,182.09 L392.341,182.09 C392.566,187.514 391.879,192.228 390.519,196.321 L390.519,196.321 C383.781,216.606 360.513,221.602 349.644,221.955 L349.644,221.955 C346.407,222.062 343.678,224.033 342.451,226.808 L342.451,226.808 C341.23,228.503 341.278,231.973 341.531,239.332 L341.531,239.332 C341.564,240.276 341.639,241.226 341.728,242.201 L341.728,242.201 L341.725,243.988 C341.721,246.159 343.48,247.921 345.651,247.921 L345.651,247.921 L353.151,247.921 C355.129,248 357.07,247.991 358.979,247.921 L358.979,247.921 L359.878,247.921 C390.628,247.921 415.555,223.119 415.555,192.524 L415.555,192.524 L415.555,177.068 L415.555,129.853 C415.559,129.543 415.578,129.237 415.578,128.926 L415.578,128.926 L415.578,66.457 C415.578,63.224 412.956,60.602 409.722,60.602 L409.722,60.602 L389.893,60.602 C386.668,60.602 384.053,63.218 384.053,66.443 L384.053,66.443 L384.053,129.03 C384.053,129.045 384.052,129.061 384.052,129.075 L384.052,129.075 C383.963,134.567 383.079,139.513 381.479,143.856 L381.479,143.856 C376.433,155.907 364.509,164.431 350.683,164.431 L350.683,164.431 C341.302,164.431 332.806,160.501 326.74,154.208 L326.74,154.208 C320.889,148.14 317.964,139.911 317.537,131.493 L317.537,131.493 C317.502,130.784 317.479,130.067 317.472,129.34 L317.472,129.34 C317.3,113.193 317.582,97.042 317.314,80.898 L317.314,80.898 L317.314,76.244 C317.452,66.908 318.241,63.026 314.497,61.474 L314.497,61.474 C313.609,60.932 312.577,60.602 311.462,60.602 L311.462,60.602 L309.536,60.602 C308.078,60.517 306.362,60.487 304.339,60.487 L304.339,60.487 C301.931,60.487 299.088,60.529 295.727,60.566" id="path-4"></path>
        <linearGradient x1="50%" y1="0%" x2="50%" y2="100%" id="linearGradient-5">
            <stop stop-color="#EEEEEE" offset="0%"></stop>
            <stop stop-color="#D8D8D8" offset="100%"></stop>
        </linearGradient>
        <linearGradient x1="50%" y1="0%" x2="50%" y2="100%" id="linearGradient-6">
            <stop stop-color="#21AFF8" offset="0%"></stop>
            <stop stop-color="#009FC0" offset="100%"></stop>
        </linearGradient>
        <path d="M613.55,182.97 C613.55,189.444 618.798,194.692 625.272,194.692 L625.272,194.692 C631.746,194.692 636.995,189.444 636.995,182.97 L636.995,182.97 C636.995,176.495 631.746,171.247 625.272,171.247 L625.272,171.247 C618.798,171.247 613.55,176.495 613.55,182.97" id="path-7"></path>
        <path d="M613.55,182.97 C613.55,189.444 618.798,194.692 625.272,194.692 L625.272,194.692 C631.746,194.692 636.995,189.444 636.995,182.97 L636.995,182.97 C636.995,176.495 631.746,171.247 625.272,171.247 L625.272,171.247 C618.798,171.247 613.55,176.495 613.55,182.97" id="path-8"></path>
        <linearGradient x1="50%" y1="0%" x2="50%" y2="100%" id="linearGradient-9">
            <stop stop-color="#EEEEEE" offset="0%"></stop>
            <stop stop-color="#D8D8D8" offset="100%"></stop>
        </linearGradient>
        <linearGradient x1="50%" y1="0%" x2="50%" y2="100%" id="linearGradient-10">
            <stop stop-color="#21AFF8" offset="0%"></stop>
            <stop stop-color="#009FC0" offset="100%"></stop>
        </linearGradient>
        <path d="M825.465,0.29 C821.679,0.29 818.61,3.359 818.61,7.144 L818.61,7.144 L818.61,122.193 C818.61,122.667 818.66,123.13 818.753,123.577 L818.753,123.577 L818.753,125.013 C818.748,125.323 818.729,125.631 818.729,125.944 L818.729,125.944 L818.729,188.661 C818.729,191.928 821.378,194.576 824.645,194.576 L824.645,194.576 L844.496,194.576 C847.755,194.576 850.396,191.935 850.396,188.676 L850.396,188.676 L850.396,125.839 C850.396,125.825 850.397,125.808 850.397,125.794 L850.397,125.794 C850.487,120.277 851.377,115.309 852.981,110.947 L852.981,110.947 C858.051,98.841 870.03,90.278 883.918,90.278 L883.918,90.278 C892.184,90.278 899.766,93.317 905.617,98.329 L905.617,98.329 C912.914,104.579 916.742,113.86 917.218,123.456 L917.218,123.456 C917.252,124.138 917.272,124.828 917.28,125.528 L917.28,125.528 C917.451,141.747 917.169,157.973 917.438,174.19 L917.438,174.19 L917.438,178.864 C917.301,188.243 916.507,192.142 920.268,193.702 L920.268,193.702 C921.159,194.246 922.197,194.576 923.316,194.576 L923.316,194.576 L925.252,194.576 C928.458,194.765 932.909,194.683 939.123,194.613 L939.123,194.613 C939.338,194.611 939.509,194.584 939.715,194.576 L939.715,194.576 L941.683,194.576 C945.776,194.576 949.095,191.258 949.095,187.165 L949.095,187.165 L949.095,127.45 C949.095,119.116 947.598,111.128 944.862,103.758 L944.862,103.758 C936.399,78.411 914.341,62.053 888.336,60.931 L888.336,60.931 C885.602,60.745 882.825,60.71 880.006,60.879 L880.006,60.879 C872.456,61.33 865.262,63.112 858.617,65.96 L858.617,65.96 C854.339,67.793 850.599,70.693 847.678,74.317 L847.678,74.317 C847.133,74.993 846.581,75.684 846.056,76.351 L846.056,76.351 C845.366,77.224 843.973,76.532 844.263,75.458 L844.263,75.458 C845.084,72.422 846.298,68.577 847.79,65.745 L847.79,65.745 C849.335,62.813 850.254,59.592 850.254,56.278 L850.254,56.278 L850.254,7.143 C850.254,3.358 847.185,0.29 843.401,0.29 L843.401,0.29 L825.465,0.29 Z" id="path-11"></path>
        <path d="M825.465,0.29 C821.679,0.29 818.61,3.359 818.61,7.144 L818.61,7.144 L818.61,122.193 C818.61,122.667 818.66,123.13 818.753,123.577 L818.753,123.577 L818.753,125.013 C818.748,125.323 818.729,125.631 818.729,125.944 L818.729,125.944 L818.729,188.661 C818.729,191.928 821.378,194.576 824.645,194.576 L824.645,194.576 L844.496,194.576 C847.755,194.576 850.396,191.935 850.396,188.676 L850.396,188.676 L850.396,125.839 C850.396,125.825 850.397,125.808 850.397,125.794 L850.397,125.794 C850.487,120.277 851.377,115.309 852.981,110.947 L852.981,110.947 C858.051,98.841 870.03,90.278 883.918,90.278 L883.918,90.278 C892.184,90.278 899.766,93.317 905.617,98.329 L905.617,98.329 C912.914,104.579 916.742,113.86 917.218,123.456 L917.218,123.456 C917.252,124.138 917.272,124.828 917.28,125.528 L917.28,125.528 C917.451,141.747 917.169,157.973 917.438,174.19 L917.438,174.19 L917.438,178.864 C917.301,188.243 916.507,192.142 920.268,193.702 L920.268,193.702 C921.159,194.246 922.197,194.576 923.316,194.576 L923.316,194.576 L925.252,194.576 C928.458,194.765 932.909,194.683 939.123,194.613 L939.123,194.613 C939.338,194.611 939.509,194.584 939.715,194.576 L939.715,194.576 L941.683,194.576 C945.776,194.576 949.095,191.258 949.095,187.165 L949.095,187.165 L949.095,127.45 C949.095,119.116 947.598,111.128 944.862,103.758 L944.862,103.758 C936.399,78.411 914.341,62.053 888.336,60.931 L888.336,60.931 C885.602,60.745 882.825,60.71 880.006,60.879 L880.006,60.879 C872.456,61.33 865.262,63.112 858.617,65.96 L858.617,65.96 C854.339,67.793 850.599,70.693 847.678,74.317 L847.678,74.317 C847.133,74.993 846.581,75.684 846.056,76.351 L846.056,76.351 C845.366,77.224 843.973,76.532 844.263,75.458 L844.263,75.458 C845.084,72.422 846.298,68.577 847.79,65.745 L847.79,65.745 C849.335,62.813 850.254,59.592 850.254,56.278 L850.254,56.278 L850.254,7.143 C850.254,3.358 847.185,0.29 843.401,0.29 L843.401,0.29 L825.465,0.29 Z" id="path-12"></path>
        <linearGradient x1="50%" y1="0%" x2="50%" y2="100%" id="linearGradient-13">
            <stop stop-color="#EEEEEE" offset="0%"></stop>
            <stop stop-color="#D8D8D8" offset="100%"></stop>
        </linearGradient>
        <linearGradient x1="50%" y1="0%" x2="50%" y2="100%" id="linearGradient-14">
            <stop stop-color="#21AFF8" offset="0%"></stop>
            <stop stop-color="#009FC0" offset="100%"></stop>
        </linearGradient>
        <path d="M690.292,78.547 L690.292,78.524 L686.568,81.077 C685.587,81.751 684.34,80.705 684.832,79.618 L684.832,79.618 L687.955,72.739 C688.297,72.059 688.578,71.43 688.819,70.838 L688.819,70.838 L689.485,69.364 C690.646,66.807 689.243,63.602 686.47,63.149 L686.47,63.149 C686.231,63.11 685.984,63.09 685.733,63.09 L685.733,63.09 L666.568,63.09 C664.06,63.09 662.027,65.123 662.027,67.631 L662.027,67.631 L662.027,127.838 L661.825,127.838 L661.825,248.099 C661.825,251.675 664.724,254.574 668.3,254.574 L668.3,254.574 L683.22,254.574 C687.116,254.574 690.273,251.412 690.268,247.516 L690.268,247.516 L690.202,191.561 C690.199,189.082 689.738,186.624 688.843,184.312 L688.843,184.312 L685.909,176.73 C685.684,175.626 686.84,174.685 687.877,175.294 L687.877,175.294 L690.275,176.702 C705.816,189.981 723.435,197.037 744.604,193.163 L744.604,193.163 C761.07,190.148 774.818,182.27 785.446,169.321 L785.446,169.321 C804.712,145.852 804.849,109.597 785.618,85.985 L785.618,85.985 C772.969,70.456 756.553,61.959 736.367,60.98 L736.367,60.98 C735.375,60.932 734.394,60.908 733.422,60.908 L733.422,60.908 C716.669,60.908 702.772,67.936 690.292,78.547 M732.862,165.967 C710.18,165.782 695.003,150.315 695.072759,127.461 L695.072759,127.461 C695.143,104.441 711.049,88.605 733.962,88.747 L733.962,88.747 C756.356,88.885 771.641,104.675 771.561313,127.593 L771.561313,127.593 C771.479,151.158 756.695,165.967 733.32,165.969 L733.32,165.969 C733.166,165.969 733.016,165.968 732.862,165.967" id="path-15"></path>
        <path d="M690.292,78.547 L690.292,78.524 L686.568,81.077 C685.587,81.751 684.34,80.705 684.832,79.618 L684.832,79.618 L687.955,72.739 C688.297,72.059 688.578,71.43 688.819,70.838 L688.819,70.838 L689.485,69.364 C690.646,66.807 689.243,63.602 686.47,63.149 L686.47,63.149 C686.231,63.11 685.984,63.09 685.733,63.09 L685.733,63.09 L666.568,63.09 C664.06,63.09 662.027,65.123 662.027,67.631 L662.027,67.631 L662.027,127.838 L661.825,127.838 L661.825,248.099 C661.825,251.675 664.724,254.574 668.3,254.574 L668.3,254.574 L683.22,254.574 C687.116,254.574 690.273,251.412 690.268,247.516 L690.268,247.516 L690.202,191.561 C690.199,189.082 689.738,186.624 688.843,184.312 L688.843,184.312 L685.909,176.73 C685.684,175.626 686.84,174.685 687.877,175.294 L687.877,175.294 L690.275,176.702 C705.816,189.981 723.435,197.037 744.604,193.163 L744.604,193.163 C761.07,190.148 774.818,182.27 785.446,169.321 L785.446,169.321 C804.712,145.852 804.849,109.597 785.618,85.985 L785.618,85.985 C772.969,70.456 756.553,61.959 736.367,60.98 L736.367,60.98 C735.375,60.932 734.394,60.908 733.422,60.908 L733.422,60.908 C716.669,60.908 702.772,67.936 690.292,78.547 M732.862,165.967 C710.18,165.782 695.003,150.315 695.072759,127.461 L695.072759,127.461 C695.143,104.441 711.049,88.605 733.962,88.747 L733.962,88.747 C756.356,88.885 771.641,104.675 771.561313,127.593 L771.561313,127.593 C771.479,151.158 756.695,165.967 733.32,165.969 L733.32,165.969 C733.166,165.969 733.016,165.968 732.862,165.967" id="path-16"></path>
        <linearGradient x1="50%" y1="0%" x2="50%" y2="100%" id="linearGradient-17">
            <stop stop-color="#EEEEEE" offset="0%"></stop>
            <stop stop-color="#D8D8D8" offset="100%"></stop>
        </linearGradient>
        <linearGradient x1="50%" y1="0%" x2="50%" y2="100%" id="linearGradient-18">
            <stop stop-color="#21AFF8" offset="0%"></stop>
            <stop stop-color="#009FC0" offset="100%"></stop>
        </linearGradient>
        <path d="M490.781,58.886 C489.944,59.039 489.119,59.215 488.296,59.392 L488.296,59.392 C472.083,62.494 458.536,70.848 447.662,84.196 L447.662,84.196 C427.603,108.823 427.747,146.639 447.841,171.117 L447.841,171.117 C458.927,184.623 473.266,192.84 490.44,195.983 L490.44,195.983 C500.841,197.888 510.413,197.235 519.332,194.591 L519.332,194.591 C519.373,194.58 519.412,194.566 519.453,194.556 L519.453,194.556 C520.051,194.377 520.653,194.207 521.245,194.011 L521.245,194.011 C530.934,191.007 539.724,185.747 547.807,178.876 L547.807,178.876 L551.313,175.793 C552.337,175.09 553.638,176.181 553.125,177.313 L553.125,177.313 L547.665,184.252 C547.165,184.936 546.555,185.782 546.163,186.347 L546.163,186.347 L545.125,187.805 C542.42,191.61 543.709,194.32 546.175,194.555 L546.175,194.555 C546.427,194.578 549.904,194.554 550.165,194.554 L550.165,194.554 L572.175,194.554 C574.79,194.554 576.91,192.433 576.91,189.818 L576.91,189.818 L576.516,159.162 L576.569,65.051 C576.569,62.436 574.449,60.316 571.834,60.316 L571.834,60.316 L549.823,60.316 C549.562,60.316 547.251,60.291 547,60.316 L547,60.316 C544.534,60.549 542.079,63.261 544.784,67.064 L544.784,67.064 L545.822,68.523 C546.214,69.088 546.825,69.934 547.324,70.619 L547.324,70.619 L552.045,76.618 C551.845,77.477 550.839,78.046 549.948,77.523 L549.948,77.523 L547.713,76.212 L547.465,75.993 C544.628,73.581 541.696,71.376 538.676,69.386 L538.676,69.386 C538.097,68.998 537.512,68.626 536.928,68.254 L536.928,68.254 C536.827,68.191 536.726,68.126 536.624,68.064 L536.624,68.064 C526.294,61.572 515.067,57.785 502.608,57.785 L502.608,57.785 C498.784,57.785 494.846,58.142 490.781,58.886 M490.33,166.229 C473.437,161.61 462.595,146.983 462.663673,127.275 L462.663673,127.275 C462.696,118.006 464.909,110.037 468.962,103.703 L468.962,103.703 C468.994,103.654 469.03,103.61 469.062,103.561 L469.062,103.561 C469.645,102.659 470.274,101.797 470.932,100.964 L470.932,100.964 C471.424,100.347 471.953,99.762 472.484,99.182 L472.484,99.182 C472.753,98.886 473.009,98.575 473.289,98.29 L473.289,98.29 C473.854,97.713 474.458,97.178 475.061,96.642 L475.061,96.642 C475.412,96.332 475.748,96.005 476.113,95.71 L476.113,95.71 C476.492,95.396 476.902,95.118 477.295,94.822 L477.295,94.822 C483.976,89.87 492.694,87.166 503.028,87.25 L503.028,87.25 C505.813,87.273 508.478,87.536 511.034,87.987 L511.034,87.987 C529.711,91.693 542.04,106.78 542.102251,127.457 L542.102251,127.457 C542.175,151.295 526.344,167.425 502.687,167.619 L502.687,167.619 C502.532,167.62 502.376,167.621 502.221,167.621 L502.221,167.621 C497.97,167.621 494.003,167.133 490.33,166.229" id="path-19"></path>
        <path d="M490.781,58.886 C489.944,59.039 489.119,59.215 488.296,59.392 L488.296,59.392 C472.083,62.494 458.536,70.848 447.662,84.196 L447.662,84.196 C427.603,108.823 427.747,146.639 447.841,171.117 L447.841,171.117 C458.927,184.623 473.266,192.84 490.44,195.983 L490.44,195.983 C500.841,197.888 510.413,197.235 519.332,194.591 L519.332,194.591 C519.373,194.58 519.412,194.566 519.453,194.556 L519.453,194.556 C520.051,194.377 520.653,194.207 521.245,194.011 L521.245,194.011 C530.934,191.007 539.724,185.747 547.807,178.876 L547.807,178.876 L551.313,175.793 C552.337,175.09 553.638,176.181 553.125,177.313 L553.125,177.313 L547.665,184.252 C547.165,184.936 546.555,185.782 546.163,186.347 L546.163,186.347 L545.125,187.805 C542.42,191.61 543.709,194.32 546.175,194.555 L546.175,194.555 C546.427,194.578 549.904,194.554 550.165,194.554 L550.165,194.554 L572.175,194.554 C574.79,194.554 576.91,192.433 576.91,189.818 L576.91,189.818 L576.516,159.162 L576.569,65.051 C576.569,62.436 574.449,60.316 571.834,60.316 L571.834,60.316 L549.823,60.316 C549.562,60.316 547.251,60.291 547,60.316 L547,60.316 C544.534,60.549 542.079,63.261 544.784,67.064 L544.784,67.064 L545.822,68.523 C546.214,69.088 546.825,69.934 547.324,70.619 L547.324,70.619 L552.045,76.618 C551.845,77.477 550.839,78.046 549.948,77.523 L549.948,77.523 L547.713,76.212 L547.465,75.993 C544.628,73.581 541.696,71.376 538.676,69.386 L538.676,69.386 C538.097,68.998 537.512,68.626 536.928,68.254 L536.928,68.254 C536.827,68.191 536.726,68.126 536.624,68.064 L536.624,68.064 C526.294,61.572 515.067,57.785 502.608,57.785 L502.608,57.785 C498.784,57.785 494.846,58.142 490.781,58.886 M490.33,166.229 C473.437,161.61 462.595,146.983 462.663673,127.275 L462.663673,127.275 C462.696,118.006 464.909,110.037 468.962,103.703 L468.962,103.703 C468.994,103.654 469.03,103.61 469.062,103.561 L469.062,103.561 C469.645,102.659 470.274,101.797 470.932,100.964 L470.932,100.964 C471.424,100.347 471.953,99.762 472.484,99.182 L472.484,99.182 C472.753,98.886 473.009,98.575 473.289,98.29 L473.289,98.29 C473.854,97.713 474.458,97.178 475.061,96.642 L475.061,96.642 C475.412,96.332 475.748,96.005 476.113,95.71 L476.113,95.71 C476.492,95.396 476.902,95.118 477.295,94.822 L477.295,94.822 C483.976,89.87 492.694,87.166 503.028,87.25 L503.028,87.25 C505.813,87.273 508.478,87.536 511.034,87.987 L511.034,87.987 C529.711,91.693 542.04,106.78 542.102251,127.457 L542.102251,127.457 C542.175,151.295 526.344,167.425 502.687,167.619 L502.687,167.619 C502.532,167.62 502.376,167.621 502.221,167.621 L502.221,167.621 C497.97,167.621 494.003,167.133 490.33,166.229" id="path-20"></path>
        <linearGradient x1="50%" y1="0%" x2="50%" y2="100%" id="linearGradient-21">
            <stop stop-color="#EEEEEE" offset="0%"></stop>
            <stop stop-color="#D8D8D8" offset="100%"></stop>
        </linearGradient>
        <linearGradient x1="50%" y1="0%" x2="50%" y2="100%" id="linearGradient-22">
            <stop stop-color="#21AFF8" offset="0%"></stop>
            <stop stop-color="#009FC0" offset="100%"></stop>
        </linearGradient>
        <path d="M181.74,58.886 C180.903,59.039 180.078,59.215 179.256,59.392 L179.256,59.392 C163.043,62.494 149.494,70.848 138.622,84.196 L138.622,84.196 C118.563,108.823 118.707,146.639 138.8,171.117 L138.8,171.117 C149.886,184.623 164.226,192.84 181.399,195.983 L181.399,195.983 C191.801,197.888 201.372,197.235 210.292,194.591 L210.292,194.591 C210.332,194.58 210.371,194.566 210.412,194.556 L210.412,194.556 C211.01,194.377 211.612,194.207 212.205,194.011 L212.205,194.011 C221.894,191.007 230.684,185.747 238.766,178.876 L238.766,178.876 L242.273,175.793 C243.297,175.09 244.598,176.181 244.084,177.313 L244.084,177.313 L238.625,184.252 C238.125,184.936 237.514,185.782 237.123,186.347 L237.123,186.347 L236.084,187.805 C233.379,191.61 234.669,194.32 237.135,194.555 L237.135,194.555 C237.387,194.578 240.863,194.554 241.124,194.554 L241.124,194.554 L263.135,194.554 C265.749,194.554 267.87,192.433 267.87,189.818 L267.87,189.818 L267.475,159.162 L267.529,65.051 C267.529,62.436 265.408,60.316 262.794,60.316 L262.794,60.316 L240.783,60.316 C240.521,60.316 238.211,60.291 237.96,60.316 L237.96,60.316 C235.494,60.549 233.038,63.261 235.743,67.064 L235.743,67.064 L236.782,68.523 C237.173,69.088 237.785,69.934 238.283,70.619 L238.283,70.619 L243.005,76.618 C242.804,77.477 241.798,78.046 240.908,77.523 L240.908,77.523 L238.673,76.212 L238.425,75.993 C235.587,73.581 232.655,71.376 229.636,69.386 L229.636,69.386 C229.057,68.998 228.472,68.626 227.887,68.254 L227.887,68.254 C227.785,68.191 227.686,68.126 227.584,68.064 L227.584,68.064 C217.254,61.572 206.027,57.785 193.567,57.785 L193.567,57.785 C189.744,57.785 185.805,58.142 181.74,58.886 M181.29,166.229 C164.397,161.61 153.555,146.983 153.622682,127.275 L153.622682,127.275 C153.656,118.006 155.869,110.037 159.922,103.703 L159.922,103.703 C159.953,103.654 159.989,103.61 160.021,103.561 L160.021,103.561 C160.605,102.659 161.234,101.797 161.891,100.964 L161.891,100.964 C162.384,100.347 162.912,99.762 163.444,99.182 L163.444,99.182 C163.713,98.886 163.969,98.575 164.249,98.29 L164.249,98.29 C164.814,97.713 165.418,97.178 166.02,96.642 L166.02,96.642 C166.372,96.332 166.708,96.005 167.072,95.71 L167.072,95.71 C167.452,95.396 167.862,95.118 168.255,94.822 L168.255,94.822 C174.936,89.87 183.654,87.166 193.988,87.25 L193.988,87.25 C196.772,87.273 199.438,87.536 201.993,87.987 L201.993,87.987 C220.671,91.693 233,106.78 233.062251,127.457 L233.062251,127.457 C233.135,151.295 217.304,167.425 193.647,167.619 L193.647,167.619 C193.491,167.62 193.336,167.621 193.181,167.621 L193.181,167.621 C188.93,167.621 184.963,167.133 181.29,166.229" id="path-23"></path>
        <path d="M181.74,58.886 C180.903,59.039 180.078,59.215 179.256,59.392 L179.256,59.392 C163.043,62.494 149.494,70.848 138.622,84.196 L138.622,84.196 C118.563,108.823 118.707,146.639 138.8,171.117 L138.8,171.117 C149.886,184.623 164.226,192.84 181.399,195.983 L181.399,195.983 C191.801,197.888 201.372,197.235 210.292,194.591 L210.292,194.591 C210.332,194.58 210.371,194.566 210.412,194.556 L210.412,194.556 C211.01,194.377 211.612,194.207 212.205,194.011 L212.205,194.011 C221.894,191.007 230.684,185.747 238.766,178.876 L238.766,178.876 L242.273,175.793 C243.297,175.09 244.598,176.181 244.084,177.313 L244.084,177.313 L238.625,184.252 C238.125,184.936 237.514,185.782 237.123,186.347 L237.123,186.347 L236.084,187.805 C233.379,191.61 234.669,194.32 237.135,194.555 L237.135,194.555 C237.387,194.578 240.863,194.554 241.124,194.554 L241.124,194.554 L263.135,194.554 C265.749,194.554 267.87,192.433 267.87,189.818 L267.87,189.818 L267.475,159.162 L267.529,65.051 C267.529,62.436 265.408,60.316 262.794,60.316 L262.794,60.316 L240.783,60.316 C240.521,60.316 238.211,60.291 237.96,60.316 L237.96,60.316 C235.494,60.549 233.038,63.261 235.743,67.064 L235.743,67.064 L236.782,68.523 C237.173,69.088 237.785,69.934 238.283,70.619 L238.283,70.619 L243.005,76.618 C242.804,77.477 241.798,78.046 240.908,77.523 L240.908,77.523 L238.673,76.212 L238.425,75.993 C235.587,73.581 232.655,71.376 229.636,69.386 L229.636,69.386 C229.057,68.998 228.472,68.626 227.887,68.254 L227.887,68.254 C227.785,68.191 227.686,68.126 227.584,68.064 L227.584,68.064 C217.254,61.572 206.027,57.785 193.567,57.785 L193.567,57.785 C189.744,57.785 185.805,58.142 181.74,58.886 M181.29,166.229 C164.397,161.61 153.555,146.983 153.622682,127.275 L153.622682,127.275 C153.656,118.006 155.869,110.037 159.922,103.703 L159.922,103.703 C159.953,103.654 159.989,103.61 160.021,103.561 L160.021,103.561 C160.605,102.659 161.234,101.797 161.891,100.964 L161.891,100.964 C162.384,100.347 162.912,99.762 163.444,99.182 L163.444,99.182 C163.713,98.886 163.969,98.575 164.249,98.29 L164.249,98.29 C164.814,97.713 165.418,97.178 166.02,96.642 L166.02,96.642 C166.372,96.332 166.708,96.005 167.072,95.71 L167.072,95.71 C167.452,95.396 167.862,95.118 168.255,94.822 L168.255,94.822 C174.936,89.87 183.654,87.166 193.988,87.25 L193.988,87.25 C196.772,87.273 199.438,87.536 201.993,87.987 L201.993,87.987 C220.671,91.693 233,106.78 233.062251,127.457 L233.062251,127.457 C233.135,151.295 217.304,167.425 193.647,167.619 L193.647,167.619 C193.491,167.62 193.336,167.621 193.181,167.621 L193.181,167.621 C188.93,167.621 184.963,167.133 181.29,166.229" id="path-24"></path>
        <linearGradient x1="50%" y1="0%" x2="50%" y2="100%" id="linearGradient-25">
            <stop stop-color="#EEEEEE" offset="0%"></stop>
            <stop stop-color="#D8D8D8" offset="100%"></stop>
        </linearGradient>
        <linearGradient x1="50%" y1="0%" x2="50%" y2="100%" id="linearGradient-26">
            <stop stop-color="#21AFF8" offset="0%"></stop>
            <stop stop-color="#009FC0" offset="100%"></stop>
        </linearGradient>
        <path d="M6.826,0 C3.055,0 0,2.938 0,6.563 L0,6.563 L0,28.171 C0,31.796 3.055,34.734 6.826,34.734 L6.826,34.734 L50.485,34.734 C53.705,34.311 58.052,30.337 58.88,29.49 L58.88,29.49 C59.781,28.569 60.03,28.514 60.164,28.661 L60.164,28.661 C60.298,28.809 59.896,29.914 59.896,29.914 L59.896,29.914 C58.549,33.339 56.765,38.948 55.697,42.399 L55.697,42.399 C55.102,44.327 54.798,46.327 54.798,48.344 L54.798,48.344 L54.798,188.554 C54.798,192.179 57.854,195.116 61.624,195.116 L61.624,195.116 L88.309,195.116 C92.079,195.116 95.135,192.179 95.135,188.554 L95.135,188.554 L95.135,48.264 C95.135,46.228 94.83,44.213 94.227,42.268 L94.227,42.268 C93.156,38.808 91.4,33.295 90.07,29.914 L90.07,29.914 C90.07,29.914 89.667,28.809 89.802,28.661 L89.802,28.661 C89.936,28.514 90.185,28.569 91.086,29.49 L91.086,29.49 C91.913,30.337 96.26,34.311 99.482,34.734 L99.482,34.734 L143.106,34.734 C146.877,34.734 149.933,31.796 149.933,28.171 L149.933,28.171 L149.933,6.563 C149.933,2.938 146.877,0 143.106,0 L143.106,0 L6.826,0 Z" id="path-27"></path>
        <path d="M6.826,0 C3.055,0 0,2.938 0,6.563 L0,6.563 L0,28.171 C0,31.796 3.055,34.734 6.826,34.734 L6.826,34.734 L50.485,34.734 C53.705,34.311 58.052,30.337 58.88,29.49 L58.88,29.49 C59.781,28.569 60.03,28.514 60.164,28.661 L60.164,28.661 C60.298,28.809 59.896,29.914 59.896,29.914 L59.896,29.914 C58.549,33.339 56.765,38.948 55.697,42.399 L55.697,42.399 C55.102,44.327 54.798,46.327 54.798,48.344 L54.798,48.344 L54.798,188.554 C54.798,192.179 57.854,195.116 61.624,195.116 L61.624,195.116 L88.309,195.116 C92.079,195.116 95.135,192.179 95.135,188.554 L95.135,188.554 L95.135,48.264 C95.135,46.228 94.83,44.213 94.227,42.268 L94.227,42.268 C93.156,38.808 91.4,33.295 90.07,29.914 L90.07,29.914 C90.07,29.914 89.667,28.809 89.802,28.661 L89.802,28.661 C89.936,28.514 90.185,28.569 91.086,29.49 L91.086,29.49 C91.913,30.337 96.26,34.311 99.482,34.734 L99.482,34.734 L143.106,34.734 C146.877,34.734 149.933,31.796 149.933,28.171 L149.933,28.171 L149.933,6.563 C149.933,2.938 146.877,0 143.106,0 L143.106,0 L6.826,0 Z" id="path-28"></path>
    </defs>
    <g id="页面-1" stroke="none" stroke-width="1" fill="none" fill-rule="evenodd">
        <g id="编组">
            <g id="Clip-2">
                <use fill="url(#linearGradient-1)" xlink:href="#path-3"></use>
                <use fill="url(#linearGradient-2)" xlink:href="#path-3"></use>
            </g>
            <g id="Fill-1">
                <use fill="url(#linearGradient-1)" xlink:href="#path-4"></use>
                <use fill="url(#linearGradient-2)" xlink:href="#path-4"></use>
            </g>
            <g id="Clip-4">
                <use fill="url(#linearGradient-5)" xlink:href="#path-7"></use>
                <use fill="url(#linearGradient-6)" xlink:href="#path-7"></use>
            </g>
            <g id="Fill-3">
                <use fill="url(#linearGradient-5)" xlink:href="#path-8"></use>
                <use fill="url(#linearGradient-6)" xlink:href="#path-8"></use>
            </g>
            <g id="Clip-6">
                <use fill="url(#linearGradient-9)" xlink:href="#path-11"></use>
                <use fill="url(#linearGradient-10)" xlink:href="#path-11"></use>
            </g>
            <g id="Fill-5">
                <use fill="url(#linearGradient-9)" xlink:href="#path-12"></use>
                <use fill="url(#linearGradient-10)" xlink:href="#path-12"></use>
            </g>
            <g id="Clip-8">
                <use fill="url(#linearGradient-13)" xlink:href="#path-15"></use>
                <use fill="url(#linearGradient-14)" xlink:href="#path-15"></use>
            </g>
            <g id="Fill-7">
                <use fill="url(#linearGradient-13)" xlink:href="#path-16"></use>
                <use fill="url(#linearGradient-14)" xlink:href="#path-16"></use>
            </g>
            <g id="Clip-10">
                <use fill="url(#linearGradient-17)" xlink:href="#path-19"></use>
                <use fill="url(#linearGradient-18)" xlink:href="#path-19"></use>
            </g>
            <g id="Fill-9">
                <use fill="url(#linearGradient-17)" xlink:href="#path-20"></use>
                <use fill="url(#linearGradient-18)" xlink:href="#path-20"></use>
            </g>
            <g id="Clip-12">
                <use fill="url(#linearGradient-21)" xlink:href="#path-23"></use>
                <use fill="url(#linearGradient-22)" xlink:href="#path-23"></use>
            </g>
            <g id="Fill-11">
                <use fill="url(#linearGradient-21)" xlink:href="#path-24"></use>
                <use fill="url(#linearGradient-22)" xlink:href="#path-24"></use>
            </g>
            <g id="Clip-14">
                <use fill="url(#linearGradient-25)" xlink:href="#path-27"></use>
                <use fill="url(#linearGradient-26)" xlink:href="#path-27"></use>
            </g>
            <g id="Fill-13">
                <use fill="url(#linearGradient-25)" xlink:href="#path-28"></use>
                <use fill="url(#linearGradient-26)" xlink:href="#path-28"></use>
            </g>
        </g>
    </g>
</svg>