<svg xmlns="http://www.w3.org/2000/svg" width="46" height="46" viewBox="0 0 46 46">
  <g id="银行卡" transform="translate(0.407 0.016)">
    <rect id="矩形_57" data-name="矩形 57" width="46" height="46" transform="translate(-0.407 -0.016)" fill="none"/>
    <path id="路径_331" data-name="路径 331" d="M0,7.05V9.4H36.555V7.05ZM20.08,19.531H18.024l-2.209,4.334h2.108Zm4.569,0H22.593l-2.107,4.334h2.107Zm8.53,0H27.086l-2.031,4.334h5.991ZM32.265,0A4.282,4.282,0,0,1,35.32,1.345a4.534,4.534,0,0,1,1.236,3.172V23.683a4.535,4.535,0,0,1-1.236,3.173A4.282,4.282,0,0,1,32.265,28.2H4.341a4.282,4.282,0,0,1-3.055-1.344A4.535,4.535,0,0,1,.05,23.683V4.517A4.409,4.409,0,0,1,4.316,0Zm0,0" transform="translate(4.405 9.382)" />
  </g>
</svg>
