<svg xmlns="http://www.w3.org/2000/svg" width="16" height="16" viewBox="0 0 16 16">
  <g id="About" transform="translate(-87 -990)">
    <path id="Vector" d="M7.9,0a8,8,0,1,0,5.671,2.256A8,8,0,0,0,7.9,0ZM8.784,2.66A.92.92,0,0,1,9.839,3.715,1.346,1.346,0,0,1,8.447,4.971c-.774,0-1.122-.393-1.122-1.055A1.369,1.369,0,0,1,8.8,2.66ZM6.675,12.982c-.561,0-.965-.337-.572-1.818l.673-2.626c.1-.426.123-.595,0-.595a4.23,4.23,0,0,0-1.313.583l-.269-.449a7.394,7.394,0,0,1,3.59-1.8c.561,0,.64.651.37,1.672l-.729,2.76c-.123.482-.079.651,0,.651a2.872,2.872,0,0,0,1.245-.628l.314.426a5.8,5.8,0,0,1-3.209,1.818Z" transform="translate(87 990)" />
  </g>
</svg>
