<svg xmlns="http://www.w3.org/2000/svg" width="16" height="16" viewBox="0 0 16 16">
  <g id="我的_账变" transform="translate(-404 -381)">
    <g id="组_221" data-name="组 221" transform="translate(275.5 252.5)">
      <path id="联合_13" data-name="联合 13" d="M7.894,11.946A4.053,4.053,0,1,1,11.946,16,4.053,4.053,0,0,1,7.894,11.946Zm1.343.006A2.712,2.712,0,1,0,11.949,9.24,2.712,2.712,0,0,0,9.237,11.951ZM2.359,14.869A2.361,2.361,0,0,1,0,12.51V4.053A2.363,2.363,0,0,1,2.359,1.7h1.59V.667a.668.668,0,0,1,1.335,0V1.7h4.3V.667a.668.668,0,0,1,1.335,0V1.7h1.59a2.363,2.363,0,0,1,2.359,2.353V6.307a.667.667,0,0,1-.668.667H1.335V12.51a1.026,1.026,0,0,0,1.024,1.024H6.871a.667.667,0,1,1,0,1.335ZM1.335,4.053V5.64h12.2V4.053a1.026,1.026,0,0,0-1.024-1.026h-1.59V4.053a.668.668,0,0,1-1.335,0V3.026h-4.3V4.053a.668.668,0,0,1-1.335,0V3.026H2.359A1.028,1.028,0,0,0,1.335,4.053ZM11.671,12.9A.67.67,0,0,1,11,12.229V10.537a.668.668,0,0,1,1.335,0v1.024h1.024a.667.667,0,1,1,0,1.335ZM2.923,12.05a.667.667,0,1,1,0-1.335H5.747a.667.667,0,1,1,0,1.335Zm0-2.255a.667.667,0,1,1,0-1.335H5.747a.667.667,0,1,1,0,1.335Z" transform="translate(128.5 128.5)" />
    </g>
    <rect id="矩形_53" data-name="矩形 53" width="16" height="16" transform="translate(404 381)" fill="none"/>
  </g>
</svg>
