<svg xmlns="http://www.w3.org/2000/svg" width="16" height="16" viewBox="0 0 16 16">
  <g id="Affiliate" transform="translate(-86 -756)">
    <rect id="加盟_1" data-name="加盟 1" width="16" height="16" transform="translate(86 756)" fill="none"/>
    <path id="联合_11" data-name="联合 11" d="M6.264,2868.99a.788.788,0,0,1-.509-.317l-.134-.188a.785.785,0,0,1,.182-1.094l.915-.655a.594.594,0,0,1,.021-.068c-.147-.115-.3-.238-.46-.366l-1.268.907a.787.787,0,0,1-1.094-.183l-.134-.187a.787.787,0,0,1,.182-1.094l.893-.638c-.133-.117-.267-.237-.4-.357l-.976.7a.786.786,0,0,1-1.094-.182l-.134-.187a.786.786,0,0,1,.182-1.094l.7-.5q-.2-.2-.4-.413l-.592.424a.786.786,0,0,1-1.094-.182l-.134-.188a.786.786,0,0,1,.182-1.094l.46-.329a6.08,6.08,0,0,1-1.535-3.378c-.289-3.176,2.953-7.437,7.17-4.106l-.688.833s-2.309,2.066-2.294,2.525c-.091.731.673,1.855,3.395,1.958a2.8,2.8,0,0,0,2.246-1.6,35.033,35.033,0,0,1,3.239,3l1.441,1.03a.787.787,0,0,1,.182,1.093l-.134.188a.786.786,0,0,1-1.094.182l-.3-.216c-.126.144-.252.287-.38.428l.388.277a.788.788,0,0,1,.182,1.094l-.134.187a.788.788,0,0,1-1.094.183l-.6-.432q-.192.19-.38.373l.5.356a.786.786,0,0,1,.182,1.094l-.134.187a.786.786,0,0,1-1.094.182l-.8-.571c-.167.148-.323.286-.469.412l.477.341a.786.786,0,0,1,.182,1.094l-.134.188a.787.787,0,0,1-1.094.181l-.915-.654-1.008.722a.787.787,0,0,1-.457.145A.809.809,0,0,1,6.264,2868.99ZM10,2856.776c-.81-.165-1.411,1.386-2.322,1.645-.664.189-2.328.266-1.947-.971a12.91,12.91,0,0,1,2.27-2.5c5.221-4.3,7.986-.661,7.986,3.072a6,6,0,0,1-1.151,3.032C13.493,2859.792,10.68,2857.188,10,2856.776Z" transform="translate(86 -2097)" />
  </g>
</svg>
