<svg xmlns="http://www.w3.org/2000/svg" width="100" height="100" viewBox="0 0 100 100">
  <g id="组_762" data-name="组 762" transform="translate(-882 -290)">
    <rect id="矩形_227" data-name="矩形 227" width="100" height="100" transform="translate(882 290)" fill="none"/>
    <g id="组_761" data-name="组 761" transform="translate(2933.822 -1051.748)">
      <path id="联合_21" data-name="联合 21" d="M13.859,80.6a16.99,16.99,0,0,1-3.725-1.776A4.139,4.139,0,0,1,8.121,75c.043-5.907.061-11.813-.007-17.721a4.681,4.681,0,0,1,2.405-4.34,18.963,18.963,0,0,1,7.068-2.395,39.5,39.5,0,0,1,9.958-.434c.421.035.848,0,1.266,0A25.723,25.723,0,1,1,40.528,76.725c-2.189,3.383-5.767,4.151-9.341,4.763a41.78,41.78,0,0,1-7.08.626A34.648,34.648,0,0,1,13.859,80.6Zm-3-6.075a2.225,2.225,0,0,0,1.514,2.57,23.752,23.752,0,0,0,2.272.952A30.333,30.333,0,0,0,24.2,79.37a28.491,28.491,0,0,0,11.332-1.862c2.315-.988,2.6-1.546,2.28-4.023a37.057,37.057,0,0,1-26.946-.043A6.836,6.836,0,0,1,10.86,74.528Zm39.1-17.891A18.073,18.073,0,0,1,42.2,69.451a3.233,3.233,0,0,0-1.586,3.491,1.413,1.413,0,0,0,.45.866,22.6,22.6,0,0,0,11.62,4.026V56.321h-2.61A1.806,1.806,0,0,0,49.958,56.638Zm5.587,21.151c4.771-.087,10.937-2.712,14.025-6C63.4,68.315,59.111,63.523,58.2,56.325H55.544ZM10.856,68.808a1.755,1.755,0,0,0,1.014,1.866,16.709,16.709,0,0,0,2.786,1.247,34.6,34.6,0,0,0,16.836.647,27.281,27.281,0,0,0,5.278-1.862,2.179,2.179,0,0,0,1.06-1.395,12.9,12.9,0,0,0,.047-2.607,37.288,37.288,0,0,1-27.01-.006C10.868,67.373,10.922,68.1,10.856,68.808Zm60.758.985a23.01,23.01,0,0,0,5.432-13.464H60.941C61.966,62.883,66.039,66.885,71.615,69.793Zm-30.979-2.48c3.646-2.948,6.054-6.371,6.615-10.962H40.636ZM13.276,64.659c.482.209.978.388,1.478.55a30.261,30.261,0,0,0,9.366,1.283A28.776,28.776,0,0,0,35.458,64.67c2.391-1,2.725-1.65,2.344-4.178a36.836,36.836,0,0,1-26.852-.015C10.58,63.033,10.907,63.638,13.276,64.659ZM15.94,53.665a16.842,16.842,0,0,0-4.174,1.707c-1.233.674-1.183,1.449.007,2.237a10.427,10.427,0,0,0,2.114,1.053,28.017,28.017,0,0,0,9.351,1.593,33.354,33.354,0,0,0,10.523-1.223,15.408,15.408,0,0,0,3.383-1.571c1.021-.629,1-1.329-.018-1.994A11.26,11.26,0,0,0,34.3,54.09a33.33,33.33,0,0,0-9.766-1.448A37.781,37.781,0,0,0,15.94,53.665Zm15.693-3.282a32.952,32.952,0,0,1,5.688,2.132,7.984,7.984,0,0,0,4.67,1.042c.59-.021,1.183,0,1.78,0h3.437c-.258-5.2-4.882-11.037-10.656-13.475A22.219,22.219,0,0,0,31.633,50.383Zm6.985-12.432a4.155,4.155,0,0,0,.363.279c5.838,3.333,9.994,7.906,10.979,14.838a.693.693,0,0,0,.482.457c.744.054,1.492.025,2.257.025V32.008A22.807,22.807,0,0,0,38.619,37.951Zm16.926,15.6c.766,0,1.457,0,2.146,0,.158,0,.32-.037.514-.058.949-7.22,5.224-11.987,11.433-15.5a22.748,22.748,0,0,0-14.093-5.96Zm5.551-.061H77.04a22.966,22.966,0,0,0-5.382-13.407C65.848,42.732,61.236,48.309,61.1,53.493ZM3.39,47.629a1.465,1.465,0,0,1-1.474-1.514A1.51,1.51,0,0,1,3.4,44.6a1.542,1.542,0,0,1,1.539,1.478,1.514,1.514,0,0,1-1.526,1.55ZM31.237,29.182c-.471-.452-.874-.977-1.5-1.682a11.613,11.613,0,0,1-.827,1.118c-1.165,1.193-1.873,1.354-2.57.635-.687-.7-.515-1.369.7-2.562.255-.255.565-.453,1.158-.92a21.714,21.714,0,0,1-1.733-1.359,1.3,1.3,0,0,1-.1-2,1.316,1.316,0,0,1,2,.123c.446.434.823.938,1.438,1.653.64-.744,1.053-1.309,1.549-1.787a1.326,1.326,0,0,1,1.88,1.869,20.68,20.68,0,0,1-1.794,1.492c.73.655,1.24,1.075,1.7,1.543a1.291,1.291,0,0,1,.1,1.935,1.2,1.2,0,0,1-.916.447A1.6,1.6,0,0,1,31.237,29.182ZM76.4,27.873a4.753,4.753,0,1,1,.057,0Zm.021-6.744a1.975,1.975,0,0,0-1.98,2.028,2,2,0,0,0,2.017,2,2.027,2.027,0,0,0,1.992-2.042,2,2,0,0,0-2.014-1.991Zm-76.1.891c-.1-.272-.216-.534-.324-.8V19.633c.108-.266.23-.531.331-.8a4.727,4.727,0,1,1,5.145,6.284,4.28,4.28,0,0,1-.729.062A4.8,4.8,0,0,1,.323,22.02ZM2.764,20.4a1.975,1.975,0,0,0,1.967,2.039,2,2,0,0,0,.075-4.006H4.771A1.978,1.978,0,0,0,2.764,20.4Zm61.47-11.39c-.705-.68-.55-1.405.564-2.5.281-.275.615-.5,1.2-.959-.7-.587-1.218-.949-1.654-1.391a1.325,1.325,0,0,1-.14-2.011,1.382,1.382,0,0,1,2.02.09c.453.428.853.914,1.474,1.594.45-.54.794-1.007,1.2-1.417.751-.766,1.579-.863,2.164-.306.644.615.554,1.388-.273,2.232-.367.377-.759.729-1.223,1.172.5.519.96.975,1.4,1.448a1.35,1.35,0,0,1,.129,2.018,1.387,1.387,0,0,1-2.021-.086,9.134,9.134,0,0,1-.7-.7,4.652,4.652,0,0,0-.96-.9,5.974,5.974,0,0,1-.669,1.075,2.592,2.592,0,0,1-1.686,1.009A1.169,1.169,0,0,1,64.234,9.006ZM42.573,8.413A1.473,1.473,0,0,1,41.128,6.87a1.527,1.527,0,0,1,1.521-1.488,1.55,1.55,0,0,1,1.506,1.611,1.518,1.518,0,0,1-1.521,1.421ZM8.678,1.521A1.465,1.465,0,0,1,10.138,0a1.487,1.487,0,0,1,1.553,1.435A1.5,1.5,0,0,1,10.174,3.01,1.483,1.483,0,0,1,8.678,1.521Z" transform="translate(-2041.822 1350.748)" fill="#586175" stroke="rgba(0,0,0,0)" stroke-miterlimit="10" stroke-width="1"/>
    </g>
  </g>
</svg>
