<svg xmlns="http://www.w3.org/2000/svg" width="16" height="16" viewBox="0 0 16 16">
  <g id="Blog_News" data-name="Blog News" transform="translate(-1126 -711)">
    <path id="Vector" d="M2.887,9.5V6.4H2.339V8.025c0,.048,0,.115.012.206L1.322,6.4H.56V9.5h.552V7.646a.947.947,0,0,0-.01-.133c0-.018,0-.053,0-.105L2.28,9.5ZM4.4,9.5H6.558V8.89H5.118V8.213H6.25V7.629H5.118V6.992h1.44V6.4H4.4Zm4.686,0,.479-2.051.5,2.051h.7l.758-3.1h-.582l-.428,1.891q-.029.135-.044.2L9.953,6.4H9.3L8.806,8.489c-.01-.043-.02-.075-.024-.1-.015-.058-.022-.09-.024-.1L8.342,6.4H7.619L8.4,9.5Zm5.074-.627a.566.566,0,0,1-.362.1.559.559,0,0,1-.613-.434l-.655.153a1.028,1.028,0,0,0,.43.645,1.392,1.392,0,0,0,.792.218,1.293,1.293,0,0,0,.934-.306A.982.982,0,0,0,15,8.519a.841.841,0,0,0-.147-.484.855.855,0,0,0-.362-.313,3.4,3.4,0,0,0-.677-.193.755.755,0,0,1-.354-.135.257.257,0,0,1-.078-.188c0-.186.139-.278.42-.278a.5.5,0,0,1,.516.369l.6-.206a1.078,1.078,0,0,0-1.144-.73,1.1,1.1,0,0,0-.794.283.93.93,0,0,0-.293.7.778.778,0,0,0,.244.622,1.9,1.9,0,0,0,.821.336,1.333,1.333,0,0,1,.418.14.239.239,0,0,1,.108.211.3.3,0,0,1-.12.226ZM7.465,5.57V0L7.308.005A10.033,10.033,0,0,0,3.759,5.57ZM3.033,10.345H0a7.911,7.911,0,0,0,6.289,5.567A10.643,10.643,0,0,1,3.033,10.345Zm0-4.775A10.643,10.643,0,0,1,6.289,0,7.911,7.911,0,0,0,0,5.57Zm8.907,0h3.033A7.911,7.911,0,0,0,8.684,0,10.643,10.643,0,0,1,11.94,5.57ZM7.367,10.345V16l.159-.005a10.177,10.177,0,0,0,3.6-5.653H7.367Zm4.573,0a10.643,10.643,0,0,1-3.256,5.567,7.911,7.911,0,0,0,6.289-5.567Z" transform="translate(1127 711)" />
    <rect id="矩形_51" data-name="矩形 51" width="16" height="16" transform="translate(1126 711)" fill="none"/>
  </g>
</svg>
