<svg xmlns="http://www.w3.org/2000/svg" width="30" height="30" viewBox="0 0 30 30">
  <g id="组_818" data-name="组 818" transform="translate(-896 -193)">
    <rect id="矩形_56" data-name="矩形 56" width="30" height="30" transform="translate(896 193)" fill="none"/>
    <path id="联合_25" data-name="联合 25" d="M8.84,21.516,4.562,17.238h.666a3.287,3.287,0,0,0,2.339-.968l3.39-3.39a.642.642,0,0,1,.887,0l3.378,3.377a3.286,3.286,0,0,0,2.339.968h.407l-4.29,4.29a3.421,3.421,0,0,1-4.838,0ZM1,13.678A3.421,3.421,0,0,1,1,8.84l2.6-2.6a.488.488,0,0,0,.174.035H5.228a2.33,2.33,0,0,1,1.636.678l3.39,3.39a1.623,1.623,0,0,0,2.293,0l3.377-3.378a2.33,2.33,0,0,1,1.636-.678H18.74a.492.492,0,0,0,.184-.037L21.516,8.84a3.421,3.421,0,0,1,0,4.838L18.924,16.27a.492.492,0,0,0-.184-.037H17.561a2.329,2.329,0,0,1-1.636-.678l-3.377-3.377a1.66,1.66,0,0,0-2.293,0l-3.39,3.39a2.33,2.33,0,0,1-1.636.678H3.779a.491.491,0,0,0-.174.035Zm9.955-4.039-3.39-3.39a3.288,3.288,0,0,0-2.339-.968H4.563L8.84,1a3.421,3.421,0,0,1,4.838,0l4.29,4.29h-.407a3.288,3.288,0,0,0-2.339.968L11.844,9.638a.628.628,0,0,1-.887,0Z" transform="translate(900 197)" />
  </g>
</svg>
