<svg id="BTC_1" data-name="BTC 1" xmlns="http://www.w3.org/2000/svg" width="40" height="40" viewBox="0 0 40 40">
  <rect id="BTC_1-2" data-name="BTC 1" width="40" height="40" fill="none"/>
  <path id="Vector" d="M39.8,20A19.9,19.9,0,1,1,19.9,0,19.951,19.951,0,0,1,39.8,20Z" transform="translate(0.029)" fill="#f7931a"/>
  <path id="Vector-2" data-name="Vector" d="M15.624,18.607a2.194,2.194,0,0,1-1.87,1.56,2.161,2.161,0,0,1-.85-.081L7.3,18.409,8.548,14.2l5.6,1.678h0A2.2,2.2,0,0,1,15.624,18.607Zm1.89-8.633a2.2,2.2,0,0,1-2.548,3.152h0l-5.6-1.677L10.61,7.237l5.6,1.677a2.175,2.175,0,0,1,1.3,1.06Zm2.509-1.364a5.012,5.012,0,0,0-2.994-2.444l-.742-.222,1.038-3.5-2.664-.8-1.038,3.5L11.35,4.467l1.038-3.5L11.75.774,9.165,0l-1,3.376-3.15-.943-.889,3,3.15.943L4.039,17.3l-3.15-.943-.889,3,3.15.943-.844,2.85.638.191,2.585.774.882-2.976,2.279.682-.882,2.976,2.653.794.882-2.976.747.223a5.055,5.055,0,0,0,5.83-7.326,5.071,5.071,0,0,0,2.1-6.9Z" transform="translate(9.14 7.237)" fill="#fff"/>
</svg>
