<svg xmlns="http://www.w3.org/2000/svg" width="11.844" height="14" viewBox="0 0 11.844 14">
  <g id="比赛" transform="translate(-133 -64)">
    <path id="路径_18" data-name="路径 18" d="M444.846,376.832V374.2h-1.232v2.632a1.223,1.223,0,0,0,0,2.121v.786h1.232v-.786a1.223,1.223,0,0,0,0-2.121Z" transform="translate(-305.31 -305.72)" fill="#11b85a"/>
    <path id="路径_19" data-name="路径 19" d="M143.638,68.5l1.181-1.181-1.142-1.142L142.5,67.363a5.881,5.881,0,0,0-3.036-1.181v-1.1H140V64h-2.153v1.078h.537v1.1a5.933,5.933,0,1,0,5.256,2.323Zm-4.716,8.417a4.845,4.845,0,1,1,4.845-4.844A4.85,4.85,0,0,1,138.922,76.922Z" fill="#11b85a"/>
  </g>
</svg>
