<svg xmlns="http://www.w3.org/2000/svg" width="16" height="16" viewBox="0 0 16 16">
  <g id="Xwin_Clubhouse" data-name="Xwin Clubhouse" transform="translate(-927 -883)">
    <rect id="矩形_42" data-name="矩形 42" width="16" height="16" transform="translate(927 883)" fill="none"/>
    <g id="组_181" data-name="组 181" transform="translate(841 403)">
      <path id="Vector" d="M13,5.652a.678.678,0,0,1-.684.668H.684A.678.678,0,0,1,0,5.652V1.311A.644.644,0,0,1,.342.743a.711.711,0,0,1,.684,0L3.763,2.312,6.021.175a.742.742,0,0,1,.958,0L9.237,2.312,11.974.743a.634.634,0,0,1,.684,0A.686.686,0,0,1,13,1.311V5.652Zm-1.368-.668v-2.5L9.476,3.715a.681.681,0,0,1-.821-.1L6.5,1.578,4.345,3.615a.735.735,0,0,1-.821.1L1.368,2.479v2.5ZM4.687,7.355a.665.665,0,0,0-.855.4L2.566,11.262,1.334,7.756a.678.678,0,0,0-.855-.4.654.654,0,0,0-.411.835L1.95,13.532A.7.7,0,0,0,2.6,14a.656.656,0,0,0,.65-.468L5.132,8.19A.7.7,0,0,0,4.687,7.355Zm2.5.634a.684.684,0,0,0-1.368,0v5.343a.684.684,0,0,0,1.368,0ZM8.895,14a.678.678,0,0,1-.684-.668V7.989a.678.678,0,0,1,.684-.668h1.711a2.338,2.338,0,1,1,0,4.675H9.579v1.336A.678.678,0,0,1,8.895,14Zm.684-5.343v2h1.026a1,1,0,1,0,0-2Z" transform="translate(88 481)" />
    </g>
  </g>
</svg>
