<svg xmlns="http://www.w3.org/2000/svg" width="100" height="100" viewBox="0 0 100 100">
  <g id="组_743" data-name="组 743" transform="translate(-756 -205)">
    <g id="组_742" data-name="组 742" transform="translate(1339.673 -672.327)">
      <path id="联合_19" data-name="联合 19" d="M9.413,79a1.931,1.931,0,0,1-.786-1.783c.026-5.286.013-10.574.013-15.859v-.874c-2.347,0-4.6-.025-6.853.016A1.934,1.934,0,0,1,0,59.713v-.927a6.994,6.994,0,0,0,.374-.643c1.92-4.2,3.843-8.407,5.737-12.623A1.612,1.612,0,0,1,7.76,44.427q22.953.022,45.9.011h.592v2.446H41.636c.119.271.187.455.28.628,1.805,3.315,3.619,6.629,5.415,9.948a.872.872,0,0,0,.872.568Q61.741,58,75.282,58.013c.145,0,.291-.019.546-.039-1.695-3.729-3.357-7.39-5.03-11.072H61.774V44.438H62.6c2.778,0,5.556.039,8.332-.019A1.921,1.921,0,0,1,73,45.725c1.84,4.156,3.745,8.284,5.629,12.418.1.224.249.43.374.643v.927a1.921,1.921,0,0,1-1.785.786c-1.8-.046-3.593-.016-5.389-.016H70.36v.949c0,5.261-.013,10.522.013,15.781A1.938,1.938,0,0,1,69.589,79ZM40.78,76.5H67.835V60.483h-.973c-6.45,0-12.9-.018-19.352.02a1.988,1.988,0,0,1-2-1.206c-1.4-2.657-2.86-5.281-4.3-7.916-.112-.207-.246-.4-.425-.693Zm-29.617-.025h27.05V50.645c-.207.367-.332.583-.453.8-1.44,2.637-2.9,5.264-4.3,7.916A1.891,1.891,0,0,1,31.568,60.5c-6.477-.031-12.955-.018-19.431-.018h-.973Zm-3.229-29c-1.354,3.02-2.727,6.032-4.1,9.048-.209.459-.418.92-.669,1.466.26.018.361.028.462.028q13.575,0,27.147.014a.873.873,0,0,0,.885-.549c1.792-3.319,3.606-6.63,5.413-9.946.092-.171.172-.352.288-.6-.224-.013-.37-.029-.513-.029q-14.037,0-28.072-.016A.8.8,0,0,0,7.934,47.471Zm48.912-.616v-2.4h2.347v2.4ZM13.73,41.6a30.767,30.767,0,0,0-4.273-8.231c-2.063-2.72-4.524-4.837-8.187-5.01V25.838c.971.172,1.928.262,2.84.517a13.726,13.726,0,0,1,7.027,5.136,32.473,32.473,0,0,1,5.041,9.636c.048.141.068.3.112.492-.749.229-1.477.453-2.281.7C13.908,42.058,13.811,41.834,13.73,41.6Zm11.3.313a7.373,7.373,0,0,1-6.5-7.177q-.069-6.945,0-13.887a6.113,6.113,0,0,1,6.08-6.032c2.054-.024,4.108-.019,6.162-.015q1.433,0,2.864,0h.927c0-.829-.009-1.547,0-2.265a1.26,1.26,0,0,1,1.413-1.433c.739-.016,1.477,0,2.272,0V4.991h2.455v6.118c.786,0,1.519-.007,2.252,0,1.017.011,1.464.449,1.479,1.451.011.715,0,1.433,0,2.25H45.3c2.906,0,5.812,0,8.717,0a6.172,6.172,0,0,1,6.463,6.441c.009,4.473.033,8.949-.011,13.425a7.387,7.387,0,0,1-14.395,2.234,21.786,21.786,0,0,1-.506-2.3H33.421a21.574,21.574,0,0,1-.471,2.254,7.467,7.467,0,0,1-6.956,5.126A6.553,6.553,0,0,1,25.034,41.917ZM46.4,32.094c1.369,0,1.69.37,1.756,1.731a8.857,8.857,0,0,0,.4,2.638,4.817,4.817,0,0,0,5.358,2.958,4.884,4.884,0,0,0,4.092-4.81c.024-4.423.011-8.846.007-13.27a3.728,3.728,0,0,0-4.086-4.059q-7.211,0-14.425,0c-4.911,0-9.822-.01-14.734,0a3.657,3.657,0,0,0-3.775,3.663C20.97,25.525,20.95,30.1,21,34.681a4.891,4.891,0,0,0,6.934,4.369c2.206-1.019,3.014-2.869,2.934-5.219-.046-1.368.357-1.738,1.722-1.738l6.9,0ZM37.047,14.763h4.865V13.639H37.047ZM74,41.965a3.677,3.677,0,1,1,.068,0ZM72.832,38.3a1.23,1.23,0,1,0,1.25-1.263h-.027A1.237,1.237,0,0,0,72.832,38.3ZM4.911,41.965a3.708,3.708,0,1,1,.04,0Zm-1.2-3.68a1.23,1.23,0,1,0,1.266-1.248H4.934A1.239,1.239,0,0,0,3.707,38.285Zm58.97,2.089A33.765,33.765,0,0,1,66.9,31.561,17.881,17.881,0,0,1,71.7,26.614,10.708,10.708,0,0,1,77.721,24.7v2.428c-3.711.181-6.19,2.354-8.266,5.13A30.835,30.835,0,0,0,65.3,40.29c-.086.238-.172.478-.284.786C64.194,40.829,63.463,40.609,62.677,40.374Zm-54.8-18.03L9.44,20.453a29.4,29.4,0,0,1,6.8,8.62l-2.192,1.1A28.521,28.521,0,0,0,7.879,22.344Zm55.223,5.5a29.48,29.48,0,0,1,6.8-8.634c.533.65,1.019,1.24,1.55,1.887a28.278,28.278,0,0,0-6.144,7.826C64.572,28.566,63.87,28.221,63.1,27.848Zm-14.954-.689a1.227,1.227,0,1,1,1.231,1.224A1.237,1.237,0,0,1,48.148,27.159ZM27.182,28.354V25.928H24.726v-2.45h2.424V21.021H29.6v2.423h2.459v2.45H29.632v2.459ZM51.851,24.7a1.227,1.227,0,1,1,1.239,1.215h-.012A1.24,1.24,0,0,1,51.851,24.7Zm-6.19,1.215a1.233,1.233,0,1,1,.012,0Zm3.7-2.471a1.234,1.234,0,1,1,.016,0ZM1.239,17.283a3.7,3.7,0,1,1,3.742,3.7H4.957A3.716,3.716,0,0,1,1.239,17.283ZM4.918,16.05a1.241,1.241,0,1,0,.016,0Zm65.774-.006a3.734,3.734,0,0,1,3.672-3.7,3.7,3.7,0,0,1,.07,7.4h-.012A3.734,3.734,0,0,1,70.692,16.044Zm3.69-1.226a1.229,1.229,0,1,0,.068,2.456,1.229,1.229,0,0,0-.056-2.457ZM20.988,12.29V9.913H18.568V7.436h2.378V4.988h2.479V7.366H25.87V9.844H23.493V12.29ZM54.352,7.363V4.957H51.888V2.509h2.424V0h2.47V2.456h2.43V4.9H56.8V7.363Z" transform="translate(-572.673 888.327)" fill="#586175" stroke="rgba(0,0,0,0)" stroke-miterlimit="10" stroke-width="1"/>
    </g>
    <rect id="矩形_227" data-name="矩形 227" width="100" height="100" transform="translate(756 205)" fill="none"/>
  </g>
</svg>
