<svg
  xmlns="http://www.w3.org/2000/svg"
  width="20"
  height="20"
  viewBox="0 0 20 20"
>
  <g id="我的_充值_复制" transform="translate(-1092 -464)">
    <g id="组_247" data-name="组 247" transform="translate(980.899 347.8)">
      <path
        id="联合_15"
        data-name="联合 15"
        d="M6.233,15.765A3.367,3.367,0,0,1,3.2,13.845h9.44A1.447,1.447,0,0,0,14.081,12.4V3.193A3.367,3.367,0,0,1,16,6.229V12.4a3.366,3.366,0,0,1-3.362,3.362ZM3.362,12.9A3.366,3.366,0,0,1,0,9.534V3.362A3.366,3.366,0,0,1,3.362,0h6.4a3.366,3.366,0,0,1,3.362,3.362V9.534A3.366,3.366,0,0,1,9.767,12.9ZM1.918,3.362V9.534a1.447,1.447,0,0,0,1.445,1.445h6.4a1.447,1.447,0,0,0,1.444-1.445V3.362A1.447,1.447,0,0,0,9.767,1.918h-6.4A1.447,1.447,0,0,0,1.918,3.362Zm1.929,6.1a1.173,1.173,0,0,1,0-2.347H9.176a1.173,1.173,0,1,1,0,2.347Zm0-3.677a1.173,1.173,0,0,1,0-2.347H9.176a1.173,1.173,0,1,1,0,2.347Z"
        transform="translate(113.101 118.2)"
      />
    </g>
    <rect
      id="矩形_59"
      data-name="矩形 59"
      width="20"
      height="20"
      transform="translate(1092 464)"
      fill="none"
    />
  </g>
</svg>
