<svg xmlns="http://www.w3.org/2000/svg" width="16" height="16" viewBox="0 0 16 16">
  <g id="我的_消息_删除" transform="translate(-723 -354)">
    <path id="路径_65" data-name="路径 65" d="M137.462,65.331a1.581,1.581,0,0,1,.724.146,1.29,1.29,0,0,1,.687.841,1.917,1.917,0,0,1,.066.475,1.372,1.372,0,0,1-.007.161.837.837,0,0,0-.007.1v.088h-.965v7.678a1.418,1.418,0,0,1-.453,1.038,1.675,1.675,0,0,1-.534.329,1.959,1.959,0,0,1-.724.124h-6.523a2.166,2.166,0,0,1-.717-.117,1.72,1.72,0,0,1-.578-.329,1.528,1.528,0,0,1-.38-.512,1.6,1.6,0,0,1-.139-.68V67.144h-.907a.116.116,0,0,1-.015-.073,3.722,3.722,0,0,1-.015-.453,1.221,1.221,0,0,1,.088-.424,1.371,1.371,0,0,1,.263-.431,1.4,1.4,0,0,1,.453-.329,1.524,1.524,0,0,1,.658-.132h1.3v-.892a.9.9,0,0,1,.263-.651.863.863,0,0,1,.644-.271h4.578a.824.824,0,0,1,.709.271,1.074,1.074,0,0,1,.2.651v.907q.307.015.658.015Zm-6.815,0h4.578v-.921h-4.578Zm-.453,9.258q.468,0,.468-.6V67.2h-.907v6.786a.849.849,0,0,0,.1.453A.379.379,0,0,0,130.194,74.589Zm2.764-.015a.367.367,0,0,0,.336-.139.864.864,0,0,0,.088-.446V67.2h-.907v6.786Q132.475,74.574,132.958,74.574Zm2.75-.029a.385.385,0,0,0,.351-.139.864.864,0,0,0,.088-.446V67.2h-.921V73.96Q135.225,74.545,135.707,74.545Z" transform="translate(598.024 290.512)" fill="#8e99b6"/>
    <rect id="矩形_70" data-name="矩形 70" width="16" height="16" transform="translate(723 354)" fill="none"/>
  </g>
</svg>
