<svg xmlns="http://www.w3.org/2000/svg" width="48" height="48" viewBox="0 0 48 48">
  <g id="VIP_存款" transform="translate(-1040 -539)">
    <circle id="椭圆_9" data-name="椭圆 9" cx="24" cy="24" r="24" transform="translate(1040 539)" fill="#34b8d5" opacity="0.1"/>
    <g id="组_851" data-name="组 851" transform="translate(993.371 368.333)">
      <path id="联合_26" data-name="联合 26" d="M1359.993-323.515a1.368,1.368,0,0,1-1.364-1.364v-8.182a1.368,1.368,0,0,1,1.364-1.363h12.272a1.367,1.367,0,0,1,1.364,1.363v8.182a1.368,1.368,0,0,1-1.364,1.364Zm2.863-4.637-.613.409a.374.374,0,0,0-.2.341v.75a.44.44,0,0,0,.409.409h1.227a.44.44,0,0,0,.409-.409h.068v-.75a.375.375,0,0,0-.2-.341l-.613-.409a.546.546,0,0,0-.239-.051A.546.546,0,0,0,1362.856-328.152Zm5.318-.818a2.009,2.009,0,0,0,2.045,2.045,2.009,2.009,0,0,0,2.045-2.045,2.009,2.009,0,0,0-2.045-2.046A2.009,2.009,0,0,0,1368.174-328.97Zm-3.887-.886-.409.613a.583.583,0,0,0,0,.477l.409.613a.375.375,0,0,0,.341.2h.75a.44.44,0,0,0,.409-.409v-1.3a.44.44,0,0,0-.409-.409h-.75A.375.375,0,0,0,1364.288-329.856Zm-3.955.273v1.227a.44.44,0,0,0,.409.409h.75a.522.522,0,0,0,.341-.136l.409-.614a.583.583,0,0,0,0-.477l-.409-.614a.375.375,0,0,0-.341-.2h-.75A.44.44,0,0,0,1360.333-329.584Zm1.637-.954a.375.375,0,0,0,.2.341l.614.409a.581.581,0,0,0,.477,0l.614-.409a.374.374,0,0,0,.2-.341v-.75a.44.44,0,0,0-.409-.409h-1.227a.44.44,0,0,0-.409.409h-.068Zm-6.409,7.023c-6.613,0-11.932-1.568-11.932-3.477v-4.364a.366.366,0,0,1,.614-.2c1.636,1.364,6.068,2.318,11.318,2.318h1.023v4.364a3.052,3.052,0,0,0,.273,1.364Zm0-7.432c-6.613,0-11.932-1.568-11.932-3.477v-4.364a.368.368,0,0,1,.614-.273c1.636,1.364,6.068,2.318,11.318,2.318s9.75-.954,11.318-2.318a.387.387,0,0,1,.613.273v2.386h-7.5a3.376,3.376,0,0,0-3.409,3.409v2.046Zm-11.932-10.909c0-1.921,5.342-3.478,11.932-3.478s11.932,1.557,11.932,3.478-5.342,3.477-11.932,3.477S1343.629-339.936,1343.629-341.856Z" transform="translate(-1288 529)" fill="#8bddef"/>
    </g>
  </g>
</svg>
