<svg xmlns="http://www.w3.org/2000/svg" width="56" height="56" viewBox="0 0 56 56">
  <g id="组_656" data-name="组 656" transform="translate(-1646 -844)">
    <g id="组_655" data-name="组 655" transform="translate(2298.907 -347.112)">
      <path id="路径_82" data-name="路径 82" d="M-582.91,1242.666c-2.914.558-5.809,1.216-8.719,1.8a33.232,33.232,0,0,1-4.721.77c-1.37.071-2.756-.3-4.139-.348a15.763,15.763,0,0,0-3.383.2c-1.17.215-1.487,1.116-.821,2.089a6.054,6.054,0,0,0,3.256,2.472,10.729,10.729,0,0,0,4.877.128,8.025,8.025,0,0,1,5.979,1.146,9.158,9.158,0,0,0,8.321,1.258c2.132-.692,3.738-1.92,4.238-4.234a6.991,6.991,0,0,1,.931-2.592,1.153,1.153,0,0,0-.02-.88c-.261-.724-.573-1.432-.9-2.13a8.616,8.616,0,0,0-.636-.975c-.455.909-.619,1.039-1.494,1.111A26.15,26.15,0,0,0-582.91,1242.666Z" transform="translate(-30.096 -31.915)" fill="#00aabe"/>
      <path id="路径_83" data-name="路径 83" d="M-619.719,1221.49a1.542,1.542,0,0,0,1.824,1.434c.417-.042.822-.2,1.237-.281a16.919,16.919,0,0,1,2.995-.535c1.809-.02,3.62.154,5.867.269.762-.074,1.955-.157,3.138-.315.9-.12,1.785-.317,2.671-.511a22.082,22.082,0,0,0,2.4-.61c.7-.237.819-.6.464-1.267-.518-.969-1.052-1.933-1.656-2.849a4.51,4.51,0,0,0-1.151-1.12,4.235,4.235,0,0,0-3.24-.419,38.107,38.107,0,0,1-4.469.562c-1.513.03-3.029-.295-4.548-.352a6.9,6.9,0,0,0-2.327.314C-618.84,1216.557-619.934,1219.948-619.719,1221.49Z" transform="translate(-18.803 -11.796)" fill="#00aabe"/>
      <path id="路径_84" data-name="路径 84" d="M-567.853,1302.72a4.123,4.123,0,0,0,.438-1c.229-.894.448-1.795.6-2.7a37.062,37.062,0,0,0,.539-3.945c.091-1.554-.434-2.089-1.968-1.943a7.252,7.252,0,0,1-4.555-1.149,14.747,14.747,0,0,0-6.906-1.848,11.507,11.507,0,0,0-1.272.007,1.555,1.555,0,0,0-1.474,2.276,4.655,4.655,0,0,0,2.582,2.749c1.4.7,2.839,1.3,4.235,2a5.645,5.645,0,0,1,2.961,3.533,10.228,10.228,0,0,0,.844,2.022A2.215,2.215,0,0,0-567.853,1302.72Z" transform="translate(-47.334 -69.344)" fill="#00aabe"/>
      <path id="路径_85" data-name="路径 85" d="M-635.163,1289.925a3.188,3.188,0,0,0,4.519-2.1,7.916,7.916,0,0,0,.256-3.942,7.892,7.892,0,0,0-4.854-6.374,3.411,3.411,0,0,0-4.651,1.778c-.163.328-.282.679-.459,1a14.206,14.206,0,0,1-1.092,1.828c-.445.576-.907.467-1.238-.2l-.219-.442a15.464,15.464,0,0,0,1.541,5.054.657.657,0,0,0,.434.326,5.8,5.8,0,0,1,2.672,1.289A18.4,18.4,0,0,0-635.163,1289.925Z" transform="translate(-1.024 -59.399)" fill="#00aabe"/>
      <path id="路径_86" data-name="路径 86" d="M-570.9,1330.184a5.264,5.264,0,0,1-2.039-2.583,11.126,11.126,0,0,0-1.138-2,4.979,4.979,0,0,0-4.17-2.215,2.014,2.014,0,0,0-1.972,1.336,4.994,4.994,0,0,0,1.384,4.764,8.152,8.152,0,0,0,6.343,1.709,11.516,11.516,0,0,0,1.836-.525l-.021-.241C-570.746,1330.345-570.8,1330.235-570.9,1330.184Z" transform="translate(-49.036 -94.887)" fill="#00aabe"/>
      <path id="路径_87" data-name="路径 87" d="M-504.736,1270.4a9.532,9.532,0,0,0-.164-1.122l-.2-.058a2.608,2.608,0,0,0-.355.532,9.085,9.085,0,0,0-.492,1.6,5.929,5.929,0,0,1-2.478,3.962,3.364,3.364,0,0,0-1.44,2.645,22.337,22.337,0,0,1-2.174,8.164c-.077.165-.119.346-.217.639a2.34,2.34,0,0,0,.638-.116,6.9,6.9,0,0,0,1.063-.695,16.944,16.944,0,0,0,4.073-5.347C-504.81,1277.392-504.629,1273.917-504.736,1270.4Z" transform="translate(-101.336 -53.301)" fill="#00aabe"/>
      <path id="路径_88" data-name="路径 88" d="M-535.081,1210.866q1.652,2.08,3.275,4.184a1.9,1.9,0,0,0,1.355.79c.421.043.845.061,1.461.1.445-.059,1.083-.1,1.7-.239.7-.156.886-.578.521-1.195a5.658,5.658,0,0,0-.947-1.229c-.853-.808-1.735-1.589-2.645-2.333-1.32-1.081-2.721-1.8-4.491-.967C-535.522,1210.3-535.563,1210.26-535.081,1210.866Z" transform="translate(-83.56 -7.539)" fill="#00aabe"/>
      <path id="路径_89" data-name="路径 89" d="M-595.152,1202.336c1.863-.139,3.71-.469,5.571-.651,1.266-.124,2.543-.129,3.815-.2.335-.019.667-.088,1-.134l.045-.246a7.93,7.93,0,0,0-1.087-.443,18.942,18.942,0,0,0-9.1-.5c-1.589.38-3.152.874-4.711,1.366a3.692,3.692,0,0,0-.919.651c.21.188.336.244.461.242C-598.431,1202.4-596.785,1202.458-595.152,1202.336Z" transform="translate(-33.554)" fill="#00aabe"/>
      <path id="路径_90" data-name="路径 90" d="M-616.658,1338.887a.716.716,0,0,1-.322-.551.68.68,0,0,1,.462-.42,12.476,12.476,0,0,1,1.547-.186c.639-.053.779-.266.532-.854a2.113,2.113,0,0,0-2.343-1.4,5.573,5.573,0,0,1-4.225-1.156,6.821,6.821,0,0,0-1.769-.821c-.489-.162-.813.19-.655.683a2.622,2.622,0,0,0,.539.939c2.682,2.947,6.172,4.385,9.953,5.262a4.859,4.859,0,0,0-2.9-1.263A1.618,1.618,0,0,1-616.658,1338.887Z" transform="translate(-15.942 -102.624)" fill="#00aabe"/>
      <path id="路径_91" data-name="路径 91" d="M-643.371,1261.667c.158.018.421-.19.509-.364a10.946,10.946,0,0,0,.729-1.691,3.57,3.57,0,0,1,2.038-2.431,2.986,2.986,0,0,0,1.573-1.467c.3-.62.1-1.154-.561-1.3a2.842,2.842,0,0,0-1.294.06c-.994.273-1.971.613-2.945.952a.58.58,0,0,0-.293.378c-.225,1.009-.424,2.024-.619,2.978.153.874.266,1.652.438,2.417A.687.687,0,0,0-643.371,1261.667Z" transform="translate(0 -41.899)" fill="#00aabe"/>
      <path id="路径_92" data-name="路径 92" d="M-563.725,1348.2c-.088.038-.168.093-.255.133-1.328.606-2.628,1.29-3.992,1.8a11.539,11.539,0,0,1-8.3.421,9.844,9.844,0,0,0-2.448-.325.491.491,0,0,0-.408.227c-.038.111.093.3.19.43a.806.806,0,0,0,.327.228,12.513,12.513,0,0,0,5.523,1,16.427,16.427,0,0,0,6.324-1.9c1.109-.546,2.146-1.235,3.216-1.86l-.076-.129C-563.657,1348.215-563.7,1348.191-563.725,1348.2Z" transform="translate(-49.985 -113.942)" fill="#00aabe"/>
      <path id="路径_93" data-name="路径 93" d="M-634.988,1225.334c.469-.858,1.011-1.676,1.523-2.51.359-.584.721-1.165,1.082-1.748l-.184-.132a18.294,18.294,0,0,0-4.767,6.7,1.494,1.494,0,0,0,.6-.208A5.09,5.09,0,0,0-634.988,1225.334Z" transform="translate(-5.299 -16.236)" fill="#00aabe"/>
    </g>
    <rect id="矩形_219" data-name="矩形 219" width="56" height="56" transform="translate(1646 844)" fill="none"/>
  </g>
</svg>
