<svg xmlns="http://www.w3.org/2000/svg" width="50.5" height="80" viewBox="0 0 50.5 80">
  <path id="路径_72" data-name="路径 72" d="M328.667,245.667v5h-10v-5a20.059,20.059,0,0,1-20-20h10a10.029,10.029,0,0,0,10,10v-20a20,20,0,1,1,0-40v-5h10v5a20.059,20.059,0,0,1,20,20h-10a10.029,10.029,0,0,0-10-10v20h2c3.5,0,8,2,11.5,5a20.374,20.374,0,0,1,7,15C348.667,236.667,339.667,245.667,328.667,245.667Zm0-10a10,10,0,0,0,0-20Zm-10-50a10,10,0,1,0,0,20Z" transform="translate(-298.667 -170.667)" fill="#11b85a" opacity="0.05"/>
</svg>
