<svg xmlns="http://www.w3.org/2000/svg" width="118" height="118" viewBox="0 0 118 118">
  <g id="组_736" data-name="组 736" transform="translate(-159.729 -457.729)">
    <g id="组_735" data-name="组 735" transform="translate(161.678 465.551)">
      <path id="路径_262" data-name="路径 262" d="M-346-692.283c1.478-5.95,6.127-8.493,11.279-10.5a4.148,4.148,0,0,1,.53-.179,5.143,5.143,0,0,0,3.777-2.889c2.008-3.878,7.551-4.21,10.351-.836a2.028,2.028,0,0,0,1.984.787c2.274-.148,4.557-.153,6.832-.291a2.339,2.339,0,0,0,1.433-.6,30.288,30.288,0,0,1,50.125,9.424,2.72,2.72,0,0,0,1.25,1.24c4.211,2.083,8.458,4.094,12.672,6.171a2.681,2.681,0,0,1,1.157,1.137,1.589,1.589,0,0,1-1.658,2.213,2.417,2.417,0,0,1-.941-.325c-9.593-5.628-19.987-9.17-30.743-11.737a142.333,142.333,0,0,0-34.631-4.113c-1.793.019-3.585.145-5.377.226a2.4,2.4,0,0,0-.394.1c-.431,3.619-2.292,6.084-6.073,6.464-3.25.326-5.444-1.406-6.79-4.378-3.265.961-6.385,2.151-8.936,4.465a6.564,6.564,0,0,0-1.578,8.512A20.942,20.942,0,0,0-335.8-680.6a61.1,61.1,0,0,0,12.732,7.679c-.4-.616-.67-1-.909-1.394-1.751-2.913-1.259-6.014,1.584-7.864a19.645,19.645,0,0,1,5.594-2.437c5.368-1.429,10.879-1.363,16.375-1.028,2.533.154,5.054.5,7.579.773a6.059,6.059,0,0,1,.991.177,1.543,1.543,0,0,1,1.238,1.849,1.506,1.506,0,0,1-1.734,1.387c-1.3-.1-2.589-.3-3.992-.471-.7,2.806-1.4,5.582-2.1,8.36q-2.724,10.917-5.442,21.836c-.045.181-.1.359-.153.539-.322,1.106-1.115,1.674-2.033,1.456a1.706,1.706,0,0,1-1.214-2.269c.655-2.683,1.329-5.361,2-8.041q2.682-10.755,5.366-21.509c.044-.176.077-.354.141-.652a9.051,9.051,0,0,0-1.227-.151c-3.622.054-7.242.132-10.864.187a1.59,1.59,0,0,0-1.656,1.283c-3.246,9.182-6.551,18.344-9.838,27.511-.612,1.707-1.384,2.287-2.5,1.871-1.043-.387-1.26-1.337-.679-2.961l5.016-14.019c-.477-.226-.932-.453-1.4-.66a68.721,68.721,0,0,1-14.049-8.074c-4.147-3.19-7.715-6.832-9.026-12.141Zm40.589-13.884a162.03,162.03,0,0,1,41.734,8.105c-4.279-7.894-10.507-12.718-19.006-14.353C-291.232-714.06-298.822-711.82-305.411-706.167Zm-22.688,3.726a3.159,3.159,0,0,0,3.115,3.151,3.227,3.227,0,0,0,3.176-3.12,3.166,3.166,0,0,0-3.2-3.175A3.081,3.081,0,0,0-328.1-702.441Zm11.138,21.2c-1.1.494-1.962.811-2.752,1.252-.952.53-1.912,1.161-1.86,2.433.06,1.439,1,2.366,2.092,3.36Z" transform="translate(346 721.003)" fill="#586175"/>
      <path id="路径_263" data-name="路径 263" d="M-90.06-598.156c-1.248,5.249-5.135,7.923-9.714,9.878a52.575,52.575,0,0,1-15.777,3.573c-2.005.194-4.02.288-6.3.446,0,1.625.04,3.227-.007,4.827q-.461,15.75-.953,31.5c-.006.187,0,.375-.015.56a1.7,1.7,0,0,1-1.716,1.7,1.661,1.661,0,0,1-1.631-1.77c-.012-1.084.036-2.168.07-3.251q.64-20.681,1.283-41.361c.073-2.354.175-4.708.192-7.062a1.5,1.5,0,0,0-.578-1.136,57.545,57.545,0,0,0-11.688-4.826c-.321,2.411-.638,4.76-.946,7.111-.389,2.963-.76,5.928-1.16,8.889-.163,1.209-.905,1.832-1.942,1.7a1.623,1.623,0,0,1-1.389-2.056c.533-4.337,1.117-8.668,1.681-13,.149-1.145.293-2.291.458-3.583-1.136-.3-2.251-.551-3.336-.9a1.546,1.546,0,0,1-1.139-1.914,1.614,1.614,0,0,1,1.921-1.3,3.586,3.586,0,0,1,.66.127c4.231,1.335,8.507,2.548,12.677,4.053a33.037,33.037,0,0,1,10.164,5.589,17.828,17.828,0,0,1,3.679,4.154c1.519,2.452.937,5.034-1.217,6.965a11.258,11.258,0,0,0-1.528,1.426c2.083-.237,4.175-.414,6.248-.722,4.671-.693,9.262-1.708,13.426-4.064a15.377,15.377,0,0,0,2.891-2.1,6.465,6.465,0,0,0,1.554-8.054,18.506,18.506,0,0,0-4.378-5.627c-.3-.283-.623-.542-.894-.849a1.549,1.549,0,0,1-.05-2.227,1.481,1.481,0,0,1,2.2-.265c3.176,2.695,5.894,5.736,6.984,9.911.083.318.173.635.26.952Zm-31.238,7.914c.86-.57,1.672-1.021,2.38-1.6a1.88,1.88,0,0,0,.5-2.611c-.728-1.127-1.646-2.131-2.482-3.189l-.4.181Z" transform="translate(204.906 647.961)" fill="#586175"/>
      <path id="路径_264" data-name="路径 264" d="M-42.5-685.279a6.468,6.468,0,0,1,6.481-6.472,6.531,6.531,0,0,1,6.56,6.534,6.608,6.608,0,0,1-6.511,6.5A6.541,6.541,0,0,1-42.5-685.279Zm3.374.042a3.171,3.171,0,0,0,3.115,3.154,3.237,3.237,0,0,0,3.18-3.232,3.165,3.165,0,0,0-3.2-3.065A3.085,3.085,0,0,0-39.127-685.237Z" transform="translate(133.27 703.797)" fill="#586175"/>
      <path id="路径_265" data-name="路径 265" d="M-240.639-648.984a5.466,5.466,0,0,1-5.661-5.167,5.083,5.083,0,0,1,5.3-4.929,5.542,5.542,0,0,1,5.716,5.263C-235.286-651.059-237.6-648.973-240.639-648.984Zm.046-3.368c1.149,0,1.97-.654,1.943-1.542a2.253,2.253,0,0,0-2.334-1.811,1.743,1.743,0,0,0-1.941,1.573A2.18,2.18,0,0,0-240.593-652.352Z" transform="translate(276.118 680.897)" fill="#586175"/>
      <path id="路径_266" data-name="路径 266" d="M-308.855-627.3a5.484,5.484,0,0,1-5.644-5.308,5.131,5.131,0,0,1,5.338-4.789,5.529,5.529,0,0,1,5.684,5.285A5.023,5.023,0,0,1-308.855-627.3Zm.014-3.371c1.15.018,1.986-.608,1.993-1.489a2.194,2.194,0,0,0-2.276-1.864,1.806,1.806,0,0,0-2,1.517A2.171,2.171,0,0,0-308.841-630.669Z" transform="translate(323.921 665.697)" fill="#586175"/>
      <path id="路径_267" data-name="路径 267" d="M-160.72-651.076a5.485,5.485,0,0,1,5.686,5.263,5.092,5.092,0,0,1-5.279,4.834,5.539,5.539,0,0,1-5.74-5.231A5.031,5.031,0,0,1-160.72-651.076Zm2.313,5.241a2.138,2.138,0,0,0-2.25-1.869c-1.137-.03-2,.593-2.026,1.462a2.188,2.188,0,0,0,2.248,1.893A1.8,1.8,0,0,0-158.406-645.835Z" transform="translate(219.871 675.287)" fill="#586175"/>
      <path id="路径_268" data-name="路径 268" d="M-82.94-619.011a5.544,5.544,0,0,1-5.673-5.189,5.154,5.154,0,0,1,5.351-4.906c3.12.005,5.744,2.429,5.709,5.274A5.046,5.046,0,0,1-82.94-619.011Zm.092-3.373c1.109-.012,1.881-.6,1.9-1.462a2.211,2.211,0,0,0-2.361-1.891,1.833,1.833,0,0,0-1.928,1.5C-85.265-623.253-84.131-622.37-82.848-622.384Z" transform="translate(165.591 659.887)" fill="#586175"/>
      <path id="路径_269" data-name="路径 269" d="M-27.551-573.8c-3.154-.108-5.72-2.59-5.581-5.4a5.16,5.16,0,0,1,5.541-4.69,5.476,5.476,0,0,1,5.5,5.34A5.093,5.093,0,0,1-27.551-573.8Zm.093-3.377c1.139.02,1.986-.616,1.992-1.5a2.159,2.159,0,0,0-2.276-1.846,1.806,1.806,0,0,0-2.016,1.5C-29.768-578.088-28.659-577.2-27.459-577.181Z" transform="translate(126.708 628.2)" fill="#586175"/>
      <path id="路径_270" data-name="路径 270" d="M-300.679-484.435c1.569-.025,2.341,1.038,2,2.26-.229.822-.566,1.615-.854,2.421-1.129,3.153-2.249,6.31-3.391,9.458-.448,1.235-1.453,1.745-2.426,1.227a1.581,1.581,0,0,1-.826-2.079c1.432-4.033,2.858-8.068,4.369-12.072C-301.595-483.784-300.928-484.177-300.679-484.435Z" transform="translate(318.173 558.484)" fill="#586175"/>
      <path id="路径_271" data-name="路径 271" d="M-62.116-727.08c1.469,1.77,1.636,2.465.823,3.292-.765.778-1.469.625-3.259-.709-1.886,1.342-2.6,1.48-3.342.643s-.573-1.5.826-3.15c-1.39-1.925-1.53-2.563-.729-3.327s1.6-.564,3.229.8c.988-.774,2.027-2.146,3.344-.639C-60.083-728.861-61.3-727.948-62.116-727.08Z" transform="translate(151.374 731.197)" fill="#586175"/>
      <path id="路径_272" data-name="路径 272" d="M-261.407-725.777c-1.6,1.4-2.4,1.588-3.22.8s-.641-1.615.789-3.316c-.811-.926-2.064-1.841-.771-3.244.767-.832,1.481-.63,3.223.787,1.747-1.41,2.437-1.578,3.246-.793s.625,1.58-.718,3.255c1.353,1.91,1.494,2.616.671,3.351C-258.992-724.216-259.6-724.37-261.407-725.777Z" transform="translate(289.342 732.027)" fill="#586175"/>
      <path id="路径_273" data-name="路径 273" d="M-48.108-486.173c1.366,1.816,1.529,2.6.7,3.341-.8.714-1.56.515-3.047-.723a18.762,18.762,0,0,1-2.383,1.088c-.281.087-.783-.224-1.055-.487-.81-.781-.584-1.6.673-3.016a20.177,20.177,0,0,1-1.078-2.485c-.081-.274.259-.769.531-1.034.74-.72,1.459-.507,3.156.835,1.744-1.361,2.492-1.54,3.261-.779S-46.753-487.861-48.108-486.173Z" transform="translate(141.59 562.311)" fill="#586175"/>
    </g>
    <rect id="矩形_226" data-name="矩形 226" width="118" height="118" transform="translate(159.729 457.729)" fill="none"/>
  </g>
</svg>
