<svg id="英国_1" data-name="英国 1" xmlns="http://www.w3.org/2000/svg" width="24" height="24" viewBox="0 0 24 24">
  <rect id="英国_1-2" data-name="英国 1" width="24" height="24" fill="none"/>
  <path id="Vector" d="M0,12A12,12,0,1,0,3.515,3.515,12,12,0,0,0,0,12Z" transform="translate(0 0)" fill="#f0f0f0"/>
  <path id="Vector-2" data-name="Vector" d="M2.067,4.281A11.956,11.956,0,0,0,0,8.456H6.243ZM23.173,8.456a11.957,11.957,0,0,0-2.067-4.175L16.931,8.456ZM0,14.717a11.957,11.957,0,0,0,2.067,4.175l4.175-4.175ZM18.892,2.067A11.957,11.957,0,0,0,14.717,0V6.243l4.175-4.175ZM4.281,21.106a11.957,11.957,0,0,0,4.175,2.067V16.931ZM8.456,0A11.957,11.957,0,0,0,4.281,2.067L8.456,6.243V0Zm6.261,23.173a11.957,11.957,0,0,0,4.175-2.067l-4.175-4.175Zm2.214-8.456,4.175,4.175a11.957,11.957,0,0,0,2.067-4.175Z" transform="translate(0.413 0.413)" fill="#0052b4"/>
  <path id="Vector-3" data-name="Vector" d="M23.9,10.435H13.565V.1a12.11,12.11,0,0,0-3.13,0V10.435H.1a12.11,12.11,0,0,0,0,3.13H10.435V23.9a12.11,12.11,0,0,0,3.13,0V13.565H23.9a12.11,12.11,0,0,0,0-3.13Z" transform="translate(0 0)" fill="#d80027"/>
  <path id="Vector-4" data-name="Vector" d="M12.321,12.321l5.355,5.355q.369-.37.705-.77L13.8,12.321H12.321Zm-6.261,0h0L.705,17.676q.37.369.77.705L6.06,13.8V12.321Zm0-6.261h0L.705.705q-.369.37-.705.77L4.585,6.06H6.06Zm6.261,0L17.676.705q-.37-.369-.77-.705L12.321,4.585Z" transform="translate(2.809 2.809)" fill="#d80027"/>
</svg>
