<svg xmlns="http://www.w3.org/2000/svg" width="24" height="24" viewBox="0 0 24 24">
  <g id="西班牙" transform="translate(-66.002 -65.679)">
    <path id="路径_112" data-name="路径 112" d="M67.713,280.584c-.143-.1-.183-.264-.261-.4a11.178,11.178,0,0,1-.955-2.292,12.094,12.094,0,0,1,.751-8.778,9.5,9.5,0,0,1,.667-1.158.553.553,0,0,1,.323-.046H87.769a.546.546,0,0,1,.307.043,9.544,9.544,0,0,1,.92,1.694,11.885,11.885,0,0,1,.955,5.9,11.614,11.614,0,0,1-.6,2.836,11.415,11.415,0,0,1-.95,2.069c-.03.048-.048.108-.11.129" transform="translate(0 -196.785)" fill="#fdc200"/>
    <path id="路径_113" data-name="路径 113" d="M151.013,83.806c.051,0,.1-.005.156-.005a.869.869,0,0,1-.218.407,11.888,11.888,0,0,1-4.283,3.987,11.738,11.738,0,0,1-3.928,1.338,12.022,12.022,0,0,1-4.682-.186,11.746,11.746,0,0,1-4.316-2.025A12.126,12.126,0,0,1,130.8,84.18a.885.885,0,0,1-.2-.38ZM130.861,71.083a11.939,11.939,0,0,1,8.22-5.271,12.436,12.436,0,0,1,2.882-.086,11.908,11.908,0,0,1,7.743,3.82,10.349,10.349,0,0,1,1.213,1.564.448.448,0,0,1-.272.032q-8.443,0-16.888,0c-.9,0-1.8,0-2.7,0C130.99,71.145,130.9,71.185,130.861,71.083Zm0,0" transform="translate(-62.858 0)" fill="#c40b1e"/>
    <path id="路径_114" data-name="路径 114" d="M497.451,527.452a3.509,3.509,0,0,1,.027-.77.421.421,0,0,1,.011-.057,2.309,2.309,0,0,1,.2-.261.932.932,0,0,1,.6-.229.291.291,0,0,0,.113-.035.886.886,0,0,1,.69.741c.013.073.022.154.108.186.4.035.8.011,1.2.014.447,0,.372.032.374.366s-.013.649.005.975a1.776,1.776,0,0,1-.318,1.212.041.041,0,0,1-.03.011,2.341,2.341,0,0,1-.56.286l0,0a1.147,1.147,0,0,1-.514.046c-.07,0-.14,0-.207,0-.226.016-.374-.135-.539-.253a.543.543,0,0,1-.057-.054c-.057-.084-.124-.154-.186-.232-.07-.108-.5.28-.56.17a7.244,7.244,0,0,1-.046-.838c-.005-.07-.024-.908-.035-.975" transform="translate(-419.827 -448.027)" fill="#aa1619"/>
    <path id="路径_115" data-name="路径 115" d="M526.955,460.15c-.073-.032-.054-.1-.07-.162-.07-.31-.178-.59-.528-.679-.051-.013-.062-.108-.137-.062-.116-.005-.183-.051-.183-.178,0-.509-.005-1.018,0-1.527a.22.22,0,0,1,.019-.083.263.263,0,0,1,.253-.119c.7-.019,1.4.03,2.1.013.153,0,.175.086.183.213.022.463.008.927.019,1.39a1.08,1.08,0,0,1-.019.646v0a2.048,2.048,0,0,1-.005.463c.005.073-.043.1-.113.094C527.971,460.152,527.461,460.176,526.955,460.15Zm0,0" transform="translate(-447.655 -381.113)" fill="#dadada"/>
    <path id="路径_116" data-name="路径 116" d="M462.107,443.088c-.059.054.083.162.1.218.059.2-.264.11-.366.151-.03.011.609-.024.579.005.326,0,.081-.019.407-.019.269,0,.269,0,.269.277l.008,1.358a.025.025,0,0,1-.04,0c-.008-.463-.024-.927-.024-1.39,0-.14-.048-.18-.18-.18-.7,0-3.572.005-4.027,0-.339-.135.043-.512-.043-.42Zm0,0" transform="translate(-382.122 -367.235)" fill="#9f8604"/>
    <path id="路径_117" data-name="路径 117" d="M424.528,355.171a.333.333,0,0,1,.116-.008,1.116,1.116,0,0,1,.323.067,1.875,1.875,0,0,1,.4-.094c.275-.035.463.14.681.251.027.013.024.062.078.048a1.163,1.163,0,0,1,.848.105.709.709,0,0,1,.4.644,2.39,2.39,0,0,1-1.067,1.333h-3.321c-.248-.03-1.344-1.393-1.037-1.845" transform="translate(-346.326 -281.66)" fill="#9f8604"/>
    <path id="路径_118" data-name="路径 118" d="M423,353.651c.248-.536,1.212-.3,1.288-.291.1.008.2-.146.264-.226,0,0,.269-.18.434-.073a.777.777,0,0,0,.611.062" transform="translate(-347.393 -279.612)" fill="#9f8604"/>
    <path id="路径_119" data-name="路径 119" d="M621.384,515.01c-.04-.016-.065-.078-.119-.057a2.649,2.649,0,0,1-.547.081.213.213,0,0,0-.167.127,3.489,3.489,0,0,1,0-.649h.04l.719-.043a.284.284,0,0,1,.083-.032.832.832,0,0,1,.232.008c.18.057.377-.016.555.067.127.132.312.156.458.256.121.081.17.164.113.3a1.042,1.042,0,0,0-.046.148.458.458,0,0,1-.482.38" transform="translate(-539.615 -436.671)" fill="#ab2c17"/>
    <path id="路径_120" data-name="路径 120" d="M638.27,544.519c.049.019.1.035.146.054.42.181.369.283.275.665-.03.118-.186.135-.213.261,0,.016-.051-.011-.065-.038a.22.22,0,0,1-.022-.232c.078-.124.019-.186-.092-.232a.107.107,0,0,1-.049.011c-.1-.035-.2-.07-.31-.1-.137-.057-.272-.119-.412-.172-.092-.016-.105-.121-.178-.162-.035-.022-.07-.04-.1-.065a.47.47,0,0,1-.129-.638.222.222,0,0,1,.172-.105.211.211,0,0,0,.156-.065" transform="translate(-555.679 -465.152)" fill="#ab1719"/>
    <path id="路径_121" data-name="路径 121" d="M353.546,544.938c-.108.051-.587.385-.7.426s-.21.075-.31.124a.22.22,0,0,1-.118.005c-.1.054-.092.137-.059.224s.046.167-.04.218-.275-.315-.331-.358c-.191-.148.154-.514.372-.628.283-.2.892-.7.959-.749" transform="translate(-278.235 -465.639)" fill="#aa1819"/>
    <path id="路径_122" data-name="路径 122" d="M402.9,542.7c.124.024.334.145.353.288.024.18.105.377-.127.5" transform="translate(-327.833 -464.179)" fill="#aa1819"/>
    <path id="路径_123" data-name="路径 123" d="M350.5,515.728c-.789-.248-1.436.679-1.624.679-.253-.038-.717-.391-.673-.638.024-.135.517-.361.633-.415a5.225,5.225,0,0,1,1.665-.043" transform="translate(-274.601 -437.476)" fill="#a9231a"/>
    <path id="路径_124" data-name="路径 124" d="M364.628,630.795a.146.146,0,0,1-.124.051c-.361.008-.719.008-1.08,0a.154.154,0,0,1-.124-.051,3.286,3.286,0,0,1,.215-.59c.022-.019.048-.04.075-.035a4.406,4.406,0,0,0,.8,0,.357.357,0,0,1,.07.14" transform="translate(-289.299 -549.293)" fill="#b9a303"/>
    <path id="路径_125" data-name="路径 125" d="M443.8,565.6c.054-.054.03-.121.03-.18,0-.649,0-1.3,0-1.945a1.22,1.22,0,0,1,0-.14c.008-.07.024-.148.1-.167.094-.024.054.081.1.113a.147.147,0,0,0,.049.016.231.231,0,0,1,.046.18q0,1.055,0,2.109c0,.086.04.24-.151.189Zm0,0" transform="translate(-367.632 -484.095)" fill="#a31518"/>
    <path id="路径_126" data-name="路径 126" d="M481.435,640.953c.167.07.264.272.477.25a3.025,3.025,0,0,0,.374.062c.057.016.148.035.04.113a5.075,5.075,0,0,0-.566.137,3.625,3.625,0,0,1-1.724-.073h0c-.046-.038-.108-.024-.159-.046s-.113-.057-.089-.137a1.337,1.337,0,0,1,.3-.016,3.632,3.632,0,0,0,.4-.135,1.741,1.741,0,0,0,.6-.609" transform="translate(-402.651 -559.346)" fill="#cececb"/>
    <path id="路径_127" data-name="路径 127" d="M646.687,576.321l.051.005a6.858,6.858,0,0,0,.027,1.177.461.461,0,0,0,.076.17c-.016.1-.1.086-.164.089-.267.008-.533.011-.8,0-.07,0-.175.011-.156-.121.116-.094.089-.24.094-.353.019-.428.008-.859.008-1.29a.342.342,0,0,0-.032-.1c.086,0,.1.1.167.119-.016.358-.008.719-.008,1.078,0,.2.016.207.2.213.086,0,.172,0,.261,0,.226-.013.229-.013.229-.24,0-.183,0-.366,0-.552A.3.3,0,0,1,646.687,576.321Zm0,0" transform="translate(-564.117 -496.484)" fill="#a8920a"/>
    <path id="路径_128" data-name="路径 128" d="M433.673,562.728c.164-.032.207.04.2.2-.008.6-.005,1.2,0,1.8a.772.772,0,0,1-.065.366c-.113-.059-.129-.18-.17-.283a.082.082,0,0,0,.022-.065,15.108,15.108,0,0,1-.043-1.88A.19.19,0,0,1,433.673,562.728Zm0,0" transform="translate(-357.715 -483.661)" fill="#b8a100"/>
    <path id="路径_129" data-name="路径 129" d="M366.789,434.612c.016-.151-.164-.186-.189-.312.081-.051.186.008.264-.057.232.027.2-.162.24-.291v0c.065-.038.094,0,.116.054.07.18.07.18.2.043l.167.019c-.04.1-.062.189.086.216a.035.035,0,0,1,.022.054l-.105.143c-.113.175.067.135.135.18l0,.062a.073.073,0,0,1-.086.043,5.167,5.167,0,0,0-.765-.027.259.259,0,0,1-.2-.059C366.705,434.618,366.764,434.647,366.789,434.612Zm0,0" transform="translate(-292.51 -358.341)" fill="#6d5703"/>
    <path id="路径_130" data-name="路径 130" d="M652.356,534.285c-.329-.118-.329-.118-.345-.45,0-.057-.008-.113-.011-.172s0-.14,0-.213c.04-.049.078-.1.146-.038a.5.5,0,0,0,.232.051.172.172,0,0,1,.2.172,2.956,2.956,0,0,1,0,.536C652.563,534.325,652.471,534.331,652.356,534.285Zm0,0" transform="translate(-570.23 -455.115)" fill="#d9d8d8"/>
    <path id="路径_131" data-name="路径 131" d="M647.143,469.983l-.081,0c.013-.245.046-.493.035-.738a.734.734,0,0,0-.1-.436c.013-.089.089-.083.148-.086a7.254,7.254,0,0,1,.727,0c.065,0,.167-.005.137.118-.075.051-.008.105-.008.159a.312.312,0,0,1-.057.191,2.911,2.911,0,0,0-.531-.019c-.21.013-.221.022-.224.234,0,.132,0,.267,0,.4A.224.224,0,0,1,647.143,469.983Zm0,0" transform="translate(-565.365 -392.182)" fill="#a38f09"/>
    <path id="路径_132" data-name="路径 132" d="M644.313,455.693a.068.068,0,0,0-.078-.07c-.291,0-.584,0-.875,0-.019,0-.038.022-.057.032a.184.184,0,0,1-.094-.245c.035-.124.148-.1.242-.105.108-.054.21.016.32.005a1.057,1.057,0,0,0,.471-.113c.008.038,0,.078.046.1C644.464,455.4,644.472,455.553,644.313,455.693Zm0,0" transform="translate(-561.663 -379.035)" fill="#c1a900"/>
    <path id="路径_133" data-name="路径 133" d="M643.131,640.6a.072.072,0,0,0,.081.07c.326,0,.655,0,.981,0,.019,0,.038-.022.057-.032.059.1.016.226.105.315a.168.168,0,0,1-.127.051c-.348.008-.7.011-1.045,0a.15.15,0,0,1-.124-.051C643.087,640.832,643,640.692,643.131,640.6Zm0,0" transform="translate(-561.528 -559.443)" fill="#c1ab01"/>
    <path id="路径_134" data-name="路径 134" d="M370.6,468.7c-.048.137-.022.42-.086.555a.672.672,0,0,0-.426-.1c-.137,0-.28.04-.407-.04-.1-.073-.027-.326-.081-.412" transform="translate(-295.429 -392.171)" fill="#a48f08"/>
    <path id="路径_135" data-name="路径 135" d="M371.9,484.541l.016-.937c.237,0,.471,0,.708-.011.121-.005.086.1.127.151,0,.078,0,.159,0,.237a.855.855,0,0,0-.005.321.207.207,0,0,1-.022.164Zm0,0" transform="translate(-297.667 -406.663)" fill="#b7b2ab"/>
    <path id="路径_136" data-name="路径 136" d="M365.542,459.391c-.008-.059-.046-.073-.1-.073h-.784c-.054,0-.092.013-.1.073a.231.231,0,0,1-.129-.288c.035-.113.14-.1.232-.1l-.073.062a9.77,9.77,0,0,1,1.018.043A.224.224,0,0,1,365.542,459.391Zm0,0" transform="translate(-290.385 -382.732)" fill="#bda600"/>
    <path id="路径_137" data-name="路径 137" d="M657.707,535.37c.132.019.189-.03.178-.172s-.005-.288,0-.434-.051-.207-.194-.2a.214.214,0,0,1-.188-.065l.493.051a.058.058,0,0,1,.062.008c.186.156.086.38.14.568a1.4,1.4,0,0,0-.022.436A2.081,2.081,0,0,1,657.707,535.37Zm0,0" transform="translate(-575.582 -456.2)" fill="#beb7b1"/>
    <path id="路径_138" data-name="路径 138" d="M661.24,483.8c.132,0,.267,0,.4-.005a.118.118,0,0,1,.127.07l-.014.832a1.522,1.522,0,0,1-.552-.03c.229-.059.259-.226.237-.426a.759.759,0,0,1,0-.156c.008-.113-.008-.207-.145-.229A.048.048,0,0,1,661.24,483.8Zm0,0" transform="translate(-579.182 -406.856)" fill="#c3c3c0"/>
    <path id="路径_139" data-name="路径 139" d="M637.4,658.694c-.078-.146-.062-.186.073-.24a.728.728,0,0,1,.506-.019.573.573,0,0,0,.391-.016.488.488,0,0,1,.522.135.152.152,0,0,1,.013.118" transform="translate(-555.982 -576.756)" fill="#1c5da4"/>
    <path id="路径_140" data-name="路径 140" d="M649.108,447.082c-.234.25-.514.167-.789.108a.271.271,0,0,0-.118-.2,1.154,1.154,0,0,1,.781-.108.241.241,0,0,1,.17.108Zm0,0" transform="translate(-566.533 -370.916)" fill="#685303"/>
    <path id="路径_141" data-name="路径 141" d="M638.949,668.306c.013.119.008.2-.154.132a.626.626,0,0,0-.458,0,.373.373,0,0,1-.269.011.7.7,0,0,0-.525-.008c-.067.024-.127.04-.143-.057,0-.038-.008-.081.032-.1a.893.893,0,0,1,.609-.03.58.58,0,0,0,.358-.016A.723.723,0,0,1,638.949,668.306Zm0,0" transform="translate(-556.023 -586.307)" fill="#27639f"/>
    <path id="路径_142" data-name="路径 142" d="M359.648,653.53a1.371,1.371,0,0,1,.054.628,1.121,1.121,0,0,0-.638-.024.409.409,0,0,1-.288,0,.937.937,0,0,0-.558,0c-.18.024-.051-.56-.057-.63" transform="translate(-284.259 -571.996)" fill="#2c6498"/>
    <path id="路径_143" data-name="路径 143" d="M646.192,440.454c-.121,0-.218.11-.348.073a.1.1,0,0,1-.065-.073c-.008-.143.073-.251.218-.232.24.03.477-.011.714.024.076.011.156.024.189.105s-.057.127-.105.178l0,0Zm0,0" transform="translate(-564.177 -364.458)" fill="#7e2f0e"/>
    <path id="路径_144" data-name="路径 144" d="M645.958,432.369c.124-.18.1-.24-.124-.245-.1,0-.215-.075-.3.035-.089-.081-.2-.03-.3-.054a.226.226,0,0,0-.283.189.19.19,0,0,1,.124-.286c.132-.049.294-.022.393-.154a.06.06,0,0,1,.094.005.525.525,0,0,0,.366.154c.092.008.162.035.17.137S646.1,432.353,645.958,432.369Zm0,0" transform="translate(-563.34 -356.297)" fill="#986c02"/>
    <path id="路径_145" data-name="路径 145" d="M636.969,654.981l-.024.081a2.243,2.243,0,0,1,.005-.52c.011.005.024.014.032.011.342-.094.684.092,1.029-.016a.554.554,0,0,1,.479.094.209.209,0,0,1-.011.151c-.189-.065-.358-.2-.579-.062a.4.4,0,0,1-.372-.014c-.191-.1-.361-.005-.531.046-.07.022-.054.1,0,.154C637.017,654.943,636.982,654.96,636.969,654.981Zm0,0" transform="translate(-555.568 -572.984)" fill="#afb2b6"/>
    <path id="路径_146" data-name="路径 146" d="M361.149,665.7a.51.51,0,0,1-.2-.019.64.64,0,0,0-.436.022.291.291,0,0,1-.2.022.9.9,0,0,0-.59-.016.294.294,0,0,1-.119-.005v-.073a.7.7,0,0,1,.679-.008.168.168,0,0,0,.167,0,.664.664,0,0,1,.628-.008c.035.013.054-.008.073-.024C361.149,665.629,361.149,665.666,361.149,665.7Zm0,0" transform="translate(-285.698 -583.713)" fill="#a4b2c1"/>
    <path id="路径_147" data-name="路径 147" d="M518.058,326.845c-.024,0-.094.049-.119.049-.054,0-.07-.046-.124-.049-.016,0-.092.005-.105,0-.035-.013-.232,0-.261-.027-.008-.013.022-.178.019-.194.013-.067.127-.119.086-.172.051-.057.013-.108-.011-.159a.172.172,0,0,1,.075-.25c.067-.038.127-.057.178.027s.17.151.027.256c-.051.038-.013.084.013.121,0,.049-.048.1.005.145.035.027.065-.008.092-.027C517.98,326.665,517.929,326.773,518.058,326.845Zm0,0" transform="translate(-439.298 -253.323)" fill="#b79401"/>
    <path id="路径_148" data-name="路径 148" d="M639.136,653.548a.537.537,0,0,1-.2-.038.356.356,0,0,0-.318,0,.561.561,0,0,1-.423.011.525.525,0,0,0-.466.016c-.1.057-.135.022-.132-.081.035-.054.1-.048.151-.057l1.3,0C639.13,653.413,639.176,653.451,639.136,653.548Zm0,0" transform="translate(-556.213 -571.899)" fill="#1f5e9b"/>
    <path id="路径_149" data-name="路径 149" d="M359.305,656.178a1.1,1.1,0,0,1,.679,0,.469.469,0,0,0,.323-.024.4.4,0,0,1,.272-.024c.062.024.167.048.143.121-.032.094-.1,0-.154-.013a.255.255,0,0,0-.189-.011.714.714,0,0,1-.6,0,.292.292,0,0,0-.283.03.245.245,0,0,1-.2.038Zm0,0" transform="translate(-285.406 -574.536)" fill="#abb4be"/>
    <path id="路径_150" data-name="路径 150" d="M638.3,666.293c.011-.024.019-.048.03-.075a.649.649,0,0,1,.5-.046.535.535,0,0,0,.388.011.981.981,0,0,1,.609.03l0,.081A8.54,8.54,0,0,0,638.3,666.293Zm0,0" transform="translate(-556.899 -584.296)" fill="#a8b7c6"/>
    <path id="路径_151" data-name="路径 151" d="M406.715,516.472c-.175-.1-.049-.151.03-.215a.3.3,0,0,0,.04-.057l.108,0c-.038.129.019.259,0,.391" transform="translate(-331.459 -438.392)" fill="#b7610d"/>
    <path id="路径_152" data-name="路径 152" d="M395.057,534.967c.024.073-.005.156.035.226v0a1.162,1.162,0,0,0-.013.374c.019.073-.032.086-.089.094-.086,0-.11-.059-.116-.124a2.075,2.075,0,0,1,0-.466C394.892,534.981,394.941,534.911,395.057,534.967Zm0,0" transform="translate(-320.011 -456.635)" fill="#cfcbc8"/>
    <path id="路径_153" data-name="路径 153" d="M371.288,429.993c0,.027,0,.057.005.084.035.2-.027.261-.242.229a.787.787,0,0,1-.151-.178C371,430.012,371.172,430.076,371.288,429.993Zm.321.094c-.027.078-.03.191-.145.172-.089-.013-.119-.1-.092-.189.019-.067-.035-.073-.081-.081,0-.054-.008-.113.062-.124.046-.008.07.038.078.078C371.447,430.047,371.576,430.006,371.608,430.087Zm0,0" transform="translate(-296.694 -354.382)" fill="#945409"/>
    <path id="路径_154" data-name="路径 154" d="M366.208,439.813a.152.152,0,0,1,.113-.213c.105.013.129.094.151.178Zm0,0" transform="translate(-292.117 -363.854)" fill="#9e2d11"/>
    <path id="路径_155" data-name="路径 155" d="M399.851,439.072c-.019-.011-.035-.03-.057-.032-.059-.008-.129,0-.148-.081s.043-.119.1-.159C399.854,438.862,399.953,438.927,399.851,439.072Zm0,0" transform="translate(-324.663 -363.076)" fill="#9d400e"/>
    <path id="路径_156" data-name="路径 156" d="M517.962,342.416c0,.046,0,.1-.065.1a.1.1,0,0,1-.105-.07c-.013-.065-.016-.129.07-.145C517.894,342.338,517.929,342.375,517.962,342.416Zm-.382-.113c.154.008.116.092.07.18a.109.109,0,0,1-.175-.032C517.466,342.37,517.528,342.34,517.579,342.3Zm0,0" transform="translate(-439.323 -269.174)" fill="#7c7f43"/>
    <path id="路径_157" data-name="路径 157" d="M400.9,454.28c-.07,0-.137-.008-.21-.011a.2.2,0,0,1,.075-.17C400.729,454.227,400.856,454.224,400.9,454.28Zm0,0" transform="translate(-325.686 -377.964)" fill="#bda600"/>
    <path id="路径_158" data-name="路径 158" d="M539.077,571.81a.57.57,0,0,0-.291-.226c-.153-.043-.14-.226-.191-.347-.016-.038.048-.075.086-.043.119.1.339.094.337.326,0,.07.07.151.132.129s.051-.129.014-.18c-.076-.105-.113-.194-.027-.315.038-.054-.019-.11-.059-.148s-.083,0-.119.03c-.065.057-.151.075-.2.019s0-.151.032-.21c.046-.075.121,0,.175-.005.183-.013.366.019.549-.005.032-.005.065-.032.1-.032.162,0,.31.108.493.016.081-.04.162.1.089.21a.22.22,0,0,0,.011.3.115.115,0,0,1,.022.116,2.882,2.882,0,0,0-.019.776,1.265,1.265,0,0,1-.2.558c-.054.089-.2.127-.24.253,0,.011-.016.024-.024.024-.21.022-.4.162-.628.094-.005,0-.011-.008-.016-.008-.291.04-.431-.21-.633-.334-.03-.016-.073-.051-.07-.07.027-.215-.11-.4-.108-.617a2.107,2.107,0,0,0,.005-.552c-.021-.083-.027-.124.046-.124.089,0,.11-.167.194-.089s-.043.137-.067.21a.227.227,0,0,0,.019.215.118.118,0,0,0,.143.032Zm0,0" transform="translate(-459.565 -491.523)" fill="#c29c04"/>
    <path id="路径_159" data-name="路径 159" d="M505.609,536.2a.664.664,0,0,1-.337-.641.642.642,0,0,1,.364-.6.549.549,0,0,1,.7.267.724.724,0,0,1-.269.975A.523.523,0,0,1,505.609,536.2Zm0,0" transform="translate(-427.45 -456.599)" fill="#0359b7"/>
    <path id="路径_160" data-name="路径 160" d="M451.088,471c-.453,0-1.2.022-1.191-.108a9.657,9.657,0,0,1,.237-2.047,1.692,1.692,0,0,1,1.209.03c.073.089.407,1.242.022,1.643" transform="translate(-373.566 -392.221)" fill="#6d5f03"/>
    <path id="路径_161" data-name="路径 161" d="M497.018,578.276c-.054.089-.159.089-.24.135-.086-.016-.065-.083-.065-.137v-2.141c0-.057-.016-.124.073-.132a1.422,1.422,0,0,1,.175.948c0,.393,0,.786,0,1.18C496.961,578.184,496.953,578.244,497.018,578.276Zm0,0" transform="translate(-419.119 -496.583)" fill="#c2ab00"/>
    <path id="路径_162" data-name="路径 162" d="M517.219,596.793a.422.422,0,0,1-.067-.229c0-.334-.008-.671-.008-1,0-.065-.035-.159.094-.159a.136.136,0,0,1,.156.159c-.008.259.019.52-.013.778a.722.722,0,0,0,.011.17.285.285,0,0,1-.124.3A.057.057,0,0,1,517.219,596.793Zm0,0" transform="translate(-438.998 -515.46)" fill="#bba501"/>
    <path id="路径_163" data-name="路径 163" d="M585.666,473.914a.128.128,0,0,1-.032-.075,1.042,1.042,0,0,1,.013-.447,1.06,1.06,0,0,0,.2-.148c.048.078.1.113.194.046.051-.035.14-.081.191-.022a.161.161,0,0,1-.022.221.6.6,0,0,0-.081.727.251.251,0,0,1-.14.315c-.2.11-.2.113-.075.3.057.081.022.14-.032.2a1.6,1.6,0,0,1-.175-.291c-.073-.124.051-.178.118-.251-.132-.04-.132-.04-.143-.14" transform="translate(-505.631 -396.588)" fill="#b57e96"/>
    <path id="路径_164" data-name="路径 164" d="M570.043,503.061c.043.127.183.032.261.113a.918.918,0,0,0-.153.108c-.065.065-.078.11-.008.186a.38.38,0,0,1,.11.264l-.011.234c-.116.032-.183-.078-.28-.1-.054-.132.086-.113.137-.175-.059-.073-.256.067-.232-.137a.232.232,0,0,1-.016-.164c.04-.237.038-.242-.2-.261l-.032-.1c-.043-.067-.1-.137-.027-.218a.294.294,0,0,1,.32-.059.347.347,0,0,1,.129.307Zm0,0" transform="translate(-490.006 -425.289)" fill="#e173a5"/>
    <path id="路径_165" data-name="路径 165" d="M562.766,475.2v.45c-.148.2-.229.224-.453.086-.054-.032-.11-.062-.167-.089s-.092-.07-.038-.135c.062-.011.137.013.167-.07s.11-.164.148-.264c.027-.073.181-.065.28-.078C562.747,475.122,562.788,475.14,562.766,475.2Zm0,0" transform="translate(-482.731 -398.399)" fill="#e56fa5"/>
    <path id="路径_166" data-name="路径 166" d="M540.422,475.415l-.008,0a.194.194,0,0,1-.21-.121c-.013-.024-.027-.067-.043-.07-.145-.016-.17-.051-.132-.216.024-.11-.011-.167.129-.132.032.008.054-.013.075-.035s.059-.084.113-.04a.081.081,0,0,1,.019.11c-.057.094.03.145.054.215" transform="translate(-461.256 -398.094)" fill="#aa7489"/>
    <path id="路径_167" data-name="路径 167" d="M561.057,518.647c-.048.011-.057.046-.062.092-.032.259-.032.259-.28.191a.186.186,0,0,1-.143-.089c-.032-.065-.057-.145.073-.118.124.065.14-.008.127-.105-.011-.067-.048-.148.03-.186a.289.289,0,0,1,.253-.011C561.2,518.486,561.076,518.572,561.057,518.647Zm0,0" transform="translate(-481.238 -440.53)" fill="#e173a5"/>
    <path id="路径_168" data-name="路径 168" d="M560.957,466.467c-.078,0-.132.108-.224.049-.016-.011-.035.008-.03.027.048.151-.086.178-.164.245-.035-.078-.118-.086-.178-.127-.038-.027-.075-.059-.062-.113s.059-.038.1-.048c.181-.04.374-.07.42-.3C560.865,466.286,560.916,466.372,560.957,466.467Zm0,0" transform="translate(-480.994 -389.738)" fill="#a96571"/>
    <path id="路径_169" data-name="路径 169" d="M543.285,503.462c-.011.04-.021.078-.032.116-.021.075-.043.078-.118.035-.143-.083-.135-.21-.137-.337,0-.07.062-.059.105-.057.075.005.148.019.224.03.022.049-.011.075-.043.094C543.207,503.392,543.25,503.425,543.285,503.462Zm0,0" transform="translate(-464.16 -425.76)" fill="#a67c8d"/>
    <path id="路径_170" data-name="路径 170" d="M556.124,526.508c-.1.027-.081.078-.022.127.032.027.089.021.089.081-.094.172-.07.14-.215.032s-.027-.2-.038-.3c-.005-.038.048-.04.083-.043C556.1,526.4,556.135,526.432,556.124,526.508Zm0,0" transform="translate(-476.716 -448.318)" fill="#ac6986"/>
    <path id="路径_171" data-name="路径 171" d="M548.956,502.377c-.046-.008-.116.027-.129-.046s.043-.083.094-.1a.1.1,0,0,0,.07-.07l.03-.03c.089.046.172-.084.264-.008.021.019.075,0,.073.051s-.04.051-.075.057a.476.476,0,0,0-.294.132Zm0,0" transform="translate(-469.831 -424.674)" fill="#db6d9f"/>
    <path id="路径_172" data-name="路径 172" d="M546.741,484.887c-.094-.073-.1-.213-.2-.277-.03-.016-.043-.04-.022-.07s.051-.016.073.005a.163.163,0,0,0,.154.059c.024.038.1-.008.1.059a.216.216,0,0,0,.005.083c.019.043.086.067.046.129S546.793,484.882,546.741,484.887Zm0,0" transform="translate(-467.576 -407.567)" fill="#dd6da0"/>
    <path id="路径_173" data-name="路径 173" d="M584.195,544.3c.127-.059.178.089.28.1,0,.054-.016.129-.076.1C584.319,544.45,584.146,544.479,584.195,544.3Zm0,0" transform="translate(-504.241 -465.719)" fill="#8b5765"/>
    <path id="路径_174" data-name="路径 174" d="M485.231,378.645c-.013-.013-.019-.046-.046-.038s-.008.03-.011.046c-.1.2-.259.232-.455.1-.062-.135.04-.159.129-.194a.158.158,0,0,0,.105-.129c-.022-.081-.086-.073-.148-.075-.04,0-.094.016-.092-.057-.016-.1-.14-.151-.108-.291a.424.424,0,0,1,.108-.226,1.362,1.362,0,0,1,.708-.18c.129.008.11.092.083.172s-.032.14.057.186c.145.075-.057.156,0,.234-.005.1-.092.059-.14.086-.067.032-.164.048-.105.162a.431.431,0,0,0,.294.057c.075.046.054.119.051.183l-.032.038Zm0,0" transform="translate(-407.336 -303.524)" fill="#a91718"/>
    <path id="路径_175" data-name="路径 175" d="M529.9,379.284c-.156-.07-.186-.191-.073-.331a.2.2,0,0,0,.038-.164c-.016-.137.048-.18.172-.164a.588.588,0,0,1,.531.135c.024.059.105.016.132.07.081.345.081.345-.24.523-.1.054-.116.11-.005.172.016.005.032.013.046.019.078.032.226-.011.164.162-.067.148-.2.105-.315.1-.1-.005-.121-.089-.135-.172-.008-.019,0-.051-.027-.054s-.024.032-.04.049c-.008.078-.089.11-.113.178l0,0a.29.29,0,0,1-.318-.172c-.027-.057-.024-.105.04-.135a.276.276,0,0,1,.067-.013c.067-.008.156,0,.183-.07S529.918,379.348,529.9,379.284Zm0,0" transform="translate(-451.223 -304.51)" fill="#aa1819"/>
    <path id="路径_176" data-name="路径 176" d="M439.767,388.227a.238.238,0,0,1,.1-.242.275.275,0,0,1,.315-.116.511.511,0,0,0,.2-.016c.164-.032.318-.027.4.159.013.011.038.027.035.035-.043.129-.024.277-.135.382-.078.1-.043.148.073.154a.367.367,0,0,1,.121.005.114.114,0,0,1,.013.2c-.137.148-.172.148-.423-.03-.051.057,0,.172-.105.194a.183.183,0,0,1-.172-.059l-.022-.07c-.24-.032-.288-.135-.361-.339Zm0,0" transform="translate(-363.705 -313.486)" fill="#aa1719"/>
    <path id="路径_177" data-name="路径 177" d="M571.755,389.089c-.178.11-.264.105-.391-.032-.03-.191-.03-.2.143-.148.057.016.081-.024.121-.04a.281.281,0,0,1,.04-.022c.083-.043.027-.1-.008-.116-.151-.065-.178-.21-.237-.334a.148.148,0,0,1-.005-.048c.005-.027.027-.04.049-.054a.276.276,0,0,1,.361-.164.573.573,0,0,0,.2.016.335.335,0,0,1,.374.151c.11.089.062.226.1.339.011.03-.242.2-.283.194a.607.607,0,0,0-.118-.013c-.059,0-.121.013-.14.081s.051.086.075.129.135.019.108.086a.187.187,0,0,1-.175.121c-.059,0-.132.027-.159-.062a.517.517,0,0,0-.038-.078c0-.011,0-.027-.008-.027S571.76,389.079,571.755,389.089Zm0,0" transform="translate(-491.75 -313.758)" fill="#a91718"/>
    <path id="路径_178" data-name="路径 178" d="M481.923,441.816c.191.008.229.1-.038.159-.207,0-.98.054-.98.054-.407,0-1.083-.048-1.126-.059-.224-.062-.261-.132.132-.21.18-.008.563-.059.994-.059l1.018.116Zm0,0" transform="translate(-402.481 -365.898)" fill="#931b14"/>
    <path id="路径_179" data-name="路径 179" d="M481.139,363.48a.361.361,0,0,1,.226-.356,1.234,1.234,0,0,1,.649-.022.16.16,0,0,1,.14.148c.016.094,0,.17-.1.2Zm0,0" transform="translate(-403.965 -289.385)" fill="#fac100"/>
    <path id="路径_180" data-name="路径 180" d="M440.384,362.985a3,3,0,0,0-.531-.135c-.027-.083-.162-.035-.175-.145-.016-.14-.035-.245.167-.28a.736.736,0,0,1,.706.159.275.275,0,0,1,.092.315C440.594,363.014,440.476,362.977,440.384,362.985Zm1.312.283a1.054,1.054,0,0,0-.374-.151.533.533,0,0,0-.267-.062c-.148.008-.183-.1-.145-.191s.016-.259.2-.213a3.57,3.57,0,0,1,.466.116.4.4,0,0,1,.259.318C441.866,363.189,441.823,363.27,441.7,363.268Zm-4.186-.151a1.234,1.234,0,0,0-.315.116c-.051,0-.121.065-.151-.016a.242.242,0,0,1,.022-.248.6.6,0,0,1,.444-.267,1.355,1.355,0,0,0,.151-.03c.264-.048.331.03.275.3-.016.083-.073.075-.129.078A.4.4,0,0,0,437.51,363.117Zm0,0" transform="translate(-361.037 -288.733)" fill="#f9bf00"/>
    <path id="路径_181" data-name="路径 181" d="M522.992,380.335c-.013.062-.005.14-.11.14-.083,0-.1-.046-.089-.113s.019-.162.119-.162C522.99,380.2,522.99,380.273,522.992,380.335Zm0,0" transform="translate(-444.497 -306.054)" fill="#b0aa83"/>
    <path id="路径_182" data-name="路径 182" d="M519.718,428.164c-.03.159-.393.159-.418,0C519.354,427.94,519.682,428,519.718,428.164Zm0,0" transform="translate(-441.101 -352.585)" fill="#a71817"/>
    <path id="路径_183" data-name="路径 183" d="M550.954,432.677c-.046-.105-.067-.078,0-.148.108-.019.256-.035.31.086l-.032.054A.258.258,0,0,1,550.954,432.677Zm0,0" transform="translate(-471.861 -356.961)" fill="#218957"/>
    <path id="路径_184" data-name="路径 184" d="M503.667,411.888c-.035-.027-.083-.051-.051-.108a.059.059,0,0,1,.057-.024c.067.019.065.07.049.124Zm0,0" transform="translate(-425.828 -336.759)" fill="#b87875"/>
    <path id="路径_185" data-name="路径 185" d="M546.037,411.045c-.011-.051-.024-.1.027-.143a.043.043,0,0,1,.043.008.093.093,0,0,1,0,.137Zm0,0" transform="translate(-467.108 -335.927)" fill="#b6827c"/>
    <path id="路径_186" data-name="路径 186" d="M524.832,374.1c-.043,0-.057-.032-.057-.067a.04.04,0,0,1,.013-.038.053.053,0,0,1,.038-.016c.035,0,.07.005.067.051A.08.08,0,0,1,524.832,374.1Zm0,0" transform="translate(-446.428 -300.004)" fill="#b0aa83"/>
    <path id="路径_187" data-name="路径 187" d="M585.28,419.526c-.035-.046-.051-.092.011-.127a.056.056,0,0,1,.057.016c.04.057-.024.073-.046.108A.065.065,0,0,0,585.28,419.526Zm0,0" transform="translate(-505.275 -344.195)" fill="#a36f6f"/>
    <path id="路径_188" data-name="路径 188" d="M652.58,483.645c.242.005.272.154.245.35a1.577,1.577,0,0,0,0,.226c0,.264-.019.283-.283.294l-.237-.011c0-.2,0-.4,0-.609C652.3,483.62,652.3,483.62,652.58,483.645Zm0,0" transform="translate(-570.522 -406.704)" fill="#dadada"/>
    <path id="路径_189" data-name="路径 189" d="M669.141,522.331l-.062-.008c-.013-.04-.03-.078-.075-.086-.175-.024-.089-.135-.07-.218.03-.119.11-.089.189-.057s.11.051.073.14A1.575,1.575,0,0,0,669.141,522.331Zm0,0" transform="translate(-586.67 -443.971)" fill="#c19405"/>
    <path id="路径_190" data-name="路径 190" d="M684.19,528.6a.768.768,0,0,1-.013.137.121.121,0,0,1-.051.065c-.013.008-.057-.013-.057-.019,0-.116-.175-.119-.151-.215a.193.193,0,0,1,.21-.119C684.2,528.454,684.217,528.527,684.19,528.6Zm0,0" transform="translate(-601.286 -450.307)" fill="#c08e05"/>
    <path id="路径_191" data-name="路径 191" d="M629.392,520.359a.408.408,0,0,1-.226-.25.039.039,0,0,1,.03-.054.094.094,0,0,1,.11.027c.051.075.1.135.172.022a.031.031,0,0,1,.054.011.248.248,0,0,1-.04.162A.118.118,0,0,1,629.392,520.359Zm0,0" transform="translate(-548.006 -442.137)" fill="#bf8207"/>
    <path id="路径_192" data-name="路径 192" d="M659.8,520.518c-.035.07-.094.108-.089.18,0,.035-.005.075-.051.07s-.048-.04-.057-.078C659.57,520.542,659.615,520.5,659.8,520.518Zm0,0" transform="translate(-577.616 -442.589)" fill="#c08d06"/>
    <path id="路径_193" data-name="路径 193" d="M646.98,520.4c.07.089.086.162.035.24-.005.008-.038.008-.043,0A.2.2,0,0,1,646.98,520.4Zm0,0" transform="translate(-565.301 -442.479)" fill="#c08a06"/>
    <path id="路径_194" data-name="路径 194" d="M652.723,581.739l-.4.013c-.075,0-.121-.019-.121-.108,0-.385,0-.768,0-1.15a.1.1,0,0,1,.062-.094,1.726,1.726,0,0,1,.428.183" transform="translate(-570.424 -500.864)" fill="#dadada"/>
    <path id="路径_195" data-name="路径 195" d="M670.81,588.105c0,.275,0,.275-.28.25a9.192,9.192,0,0,0-.03-1.156.653.653,0,0,1,.3.119Zm0,0" transform="translate(-588.232 -507.481)" fill="#c2c0be"/>
    <path id="路径_196" data-name="路径 196" d="M374.028,586.744c-.52.024-.52.024-.523-.49,0-.183-.005-.369-.005-.552.086-.094.226-.073.323-.143.229-.038.259-.016.261.2.005.261,0,.523,0,.784A.256.256,0,0,1,374.028,586.744Zm0,0" transform="translate(-299.224 -505.869)" fill="#d9d9d9"/>
    <path id="路径_197" data-name="路径 197" d="M373.637,537.126c-.248.065-.253.059-.25-.2,0-.148,0-.3,0-.447s.054-.245.216-.251c.369-.043.372-.04.366.329,0,.148.043.3-.051.439C373.823,537.034,373.729,537.08,373.637,537.126Zm0,0" transform="translate(-299.113 -457.859)" fill="#d8d6d6"/>
    <path id="路径_198" data-name="路径 198" d="M385.7,582.225c0-.329-.008-.655.008-.983.008-.172-.054-.229-.213-.2a1.471,1.471,0,0,1,.345-.14.222.222,0,0,1,.054.175v.97a.231.231,0,0,1-.049.178C385.8,582.225,385.751,582.225,385.7,582.225Zm0,0" transform="translate(-310.901 -501.351)" fill="#adacac"/>
    <path id="路径_199" data-name="路径 199" d="M489.964,432.534c-.089,0-.156.027-.264-.065a.234.234,0,0,1,.3-.092C490.039,432.405,489.986,432.5,489.964,432.534Zm0,0" transform="translate(-412.297 -356.808)" fill="#1a895c"/>
    <path id="路径_200" data-name="路径 200" d="M375.135,485.591c-.1.005-.143-.043-.14-.148q.008-.3,0-.606c0-.089.035-.116.121-.121.369-.022.369-.024.369.342a1.133,1.133,0,0,0,0,.191.253.253,0,0,1-.175.31A.262.262,0,0,1,375.135,485.591Zm0,0" transform="translate(-300.679 -407.748)" fill="#d9d9d9"/>
    <path id="路径_201" data-name="路径 201" d="M365.267,523.491a.129.129,0,0,1,.119.057c.032.048.005.086-.032.121a.274.274,0,0,0-.048.048c-.03.043.022.164-.086.127s-.116-.162-.118-.253S365.2,523.512,365.267,523.491Zm0,0" transform="translate(-291.05 -445.487)" fill="#c08d06"/>
    <path id="路径_202" data-name="路径 202" d="M391.374,518.6c.043.118-.032.207-.086.3-.03.049-.081.075-.129.019s-.129-.143-.1-.226.086-.016.135.013C391.315,518.778,391.288,518.6,391.374,518.6Zm0,0" transform="translate(-316.304 -440.728)" fill="#b8710e"/>
    <path id="路径_203" data-name="路径 203" d="M379.158,521.016a.211.211,0,0,1-.162,0c-.108-.049-.1-.146-.094-.24,0-.032-.005-.086.035-.086.1-.005.07.1.11.151A.86.86,0,0,1,379.158,521.016Zm0,0" transform="translate(-304.478 -442.764)" fill="#bd7c09"/>
    <path id="路径_204" data-name="路径 204" d="M434.3,460.57c.013-.086.081-.067.135-.067.722,0,1.444,0,2.163,0,.116,0,.148.04.148.151-.005.5,0,.989,0,1.484,0,.083-.013.132-.113.156a3.622,3.622,0,0,0-.418.164c-.089.005-.14-.016-.137-.124a2.816,2.816,0,0,1,.059-.671c.032-.116.067-.256-.089-.353-.075-.046.075-.132.032-.213s-.124-.054-.191-.062c-.086-.011-.154-.022-.145-.143.008-.145-.113-.156-.221-.162s-.178.04-.162.167a.111.111,0,0,1-.043.108c-.1.054-.224-.024-.318.057a.331.331,0,0,0,.016.17c.03.062,0,.081-.054.116a.2.2,0,0,0-.065.3.557.557,0,0,1,.1.407c0,.132,0,.267,0,.4-.24-.032-.156.148-.172.261-.019.137.049.17.172.162s.232,0,.348,0c.154.073.318.016.477.035.065.008.145-.024.154.086a.151.151,0,0,1-.121.18,1.169,1.169,0,0,1-.291.046c-.356,0-.708-.005-1.064,0-.151,0-.207-.043-.2-.2.008-.307,0-.614,0-.924C434.3,461.594,434.3,461.082,434.3,460.57Zm0,0" transform="translate(-358.376 -384.192)" fill="#ab1519"/>
    <path id="路径_205" data-name="路径 205" d="M464.316,565.15l-.016-1.95c.237.024.245.032.245.259V565.9c0,.057-.022.086-.081.089s-.092-.032-.092-.1c0-.2,0-.4,0-.593C464.37,565.242,464.4,565.172,464.316,565.15Zm0,0" transform="translate(-387.581 -484.128)" fill="#9e1717"/>
    <path id="路径_206" data-name="路径 206" d="M486.056,565.672l-.07.038c-.189.022-.191.022-.191-.154v-2.475a.248.248,0,0,1,.051-.2c.135-.024.18.024.18.167-.005.784,0,1.565,0,2.349A.856.856,0,0,0,486.056,565.672Zm0,0" transform="translate(-408.497 -483.815)" fill="#9f2115"/>
    <path id="路径_207" data-name="路径 207" d="M456.608,567.16a.189.189,0,0,1-.108-.191c.005-.77,0-1.541,0-2.314,0-.03,0-.059,0-.086.005-.051.03-.092.086-.086s.051.054.051.094c0,.14-.008.28,0,.417.03.391,0,.784,0,1.174a.266.266,0,0,0,.07.224c0,.221,0,.439,0,.66C456.713,567.125,456.7,567.182,456.608,567.16Zm0,0" transform="translate(-379.99 -485.375)" fill="#c4ad00"/>
    <path id="路径_208" data-name="路径 208" d="M474.2,535.058a.929.929,0,0,1,.011-.121c.013-.081-.043-.2.1-.218.167-.016.226.054.232.237a.63.63,0,0,0,.011.1A.409.409,0,0,1,474.2,535.058Zm0,0" transform="translate(-397.214 -456.41)" fill="#133dc3"/>
    <path id="路径_209" data-name="路径 209" d="M476.1,566.783c0-.881,0-1.764,0-2.645,0-.078-.008-.154.11-.148s.1.075.1.145c0,.894,0,1.786,0,2.68l-.1.016Zm0,0" transform="translate(-399.059 -484.896)" fill="#c3b000"/>
    <path id="路径_210" data-name="路径 210" d="M509.937,665.641c.062.151.135.03.2.008a1.821,1.821,0,0,1,.242.011c.078.016.092.067.024.121a.287.287,0,0,1-.175.07c-.132,0-.277-.062-.372.1-.016.027-.057-.092-.073-.124s-.145.073-.329.07c-.078-.021-.162-.167-.013-.226.075-.005.388.054.377-.022A.094.094,0,0,1,509.937,665.641Zm0,0" transform="translate(-431.433 -583.795)" fill="#2a6355"/>
    <path id="路径_211" data-name="路径 211" d="M522.357,351.837c-.051-.143.07-.113.137-.137a.131.131,0,0,0,.032,0c.075.081.086.14-.051.14C522.435,351.843,522.394,351.84,522.357,351.837Zm0,0" transform="translate(-444.063 -278.321)" fill="#1f63a5"/>
    <path id="路径_212" data-name="路径 212" d="M450.82,409.7l.051,0c.065.005.17-.019.17.065s-.024.186-.151.186a.158.158,0,0,1-.167-.1C450.7,409.767,450.788,409.751,450.82,409.7Zm0,0" transform="translate(-374.364 -334.759)" fill="#a68503"/>
    <path id="路径_213" data-name="路径 213" d="M553.2,619.2a.244.244,0,0,1-.032.151.227.227,0,0,0,0,.288.244.244,0,0,1,.032.151c0,.051.005.11-.057.132a.11.11,0,0,1-.14-.035.363.363,0,0,0-.191-.11c-.057-.022-.132-.019-.135-.108s.019-.194.1-.224a.357.357,0,0,0,.28-.283c.005-.035.054-.1.113-.084S553.186,619.165,553.2,619.2Zm0,0" transform="translate(-473.576 -538.501)" fill="#ad1e17"/>
    <path id="路径_214" data-name="路径 214" d="M575.958,619.2c.124.054.032.221.129.277s.216.057.291.146a.164.164,0,0,1-.078.275.7.7,0,0,0-.218.1c-.119.081-.224.035-.178-.083a2.481,2.481,0,0,0,.035-.7S575.944,619.205,575.958,619.2Zm0,0" transform="translate(-496.171 -538.62)" fill="#ad1d17"/>
    <path id="路径_215" data-name="路径 215" d="M579.4,584.336a.454.454,0,0,1,.221-.186.221.221,0,0,0,.18-.224c0-.057.043-.092.078-.132s.065-.124.129-.084-.016.089-.024.137c-.016.1-.04.194.046.275.054.051.027.108-.005.156s-.094.113-.137.078c-.167-.132-.318-.011-.477,0l-.011-.011Zm0,0" transform="translate(-499.584 -504.076)" fill="#ad1f17"/>
    <path id="路径_216" data-name="路径 216" d="M576.324,578.331c-.054.116-.108.224-.234.264a.219.219,0,0,0-.18.221c0,.062-.043.137-.121.105-.062-.024-.057-.1-.022-.151a.329.329,0,0,0,.019-.312c-.035-.105.054-.186.143-.129A.4.4,0,0,0,576.324,578.331Zm0,0" transform="translate(-496.023 -498.829)" fill="#ae2117"/>
    <path id="路径_217" data-name="路径 217" d="M546.037,613.308a.819.819,0,0,0,.442-.005l0,0a.311.311,0,0,1-.151.159.334.334,0,0,0-.25.291.113.113,0,0,1-.143.092c-.07-.027-.054-.094-.038-.151s.051-.132,0-.194Zm0,0" transform="translate(-466.966 -532.878)" fill="#ad2017"/>
    <path id="路径_218" data-name="路径 218" d="M582.2,613.435a.405.405,0,0,0-.043.385c.008.027-.024.048-.057.051-.067,0-.129-.038-.129-.091a.331.331,0,0,0-.269-.329c-.04-.013-.1-.051-.075-.1s.078-.011.119,0a.772.772,0,0,0,.272-.027C582.1,613.3,582.186,613.311,582.2,613.435Zm0,0" transform="translate(-501.748 -532.892)" fill="#ae2217"/>
    <path id="路径_219" data-name="路径 219" d="M568.307,604.887c0,.008.005.016.008.027-.022.224-.092.256-.315.137l0,0v-.14l0,0C568.1,604.823,568.194,604.771,568.307,604.887Zm0,0" transform="translate(-488.49 -524.627)" fill="#368f53"/>
    <path id="路径_220" data-name="路径 220" d="M464.194,509.928a.479.479,0,0,1,.083.218c.005.116-.035.172-.151.167-.183-.038-.092-.18-.1-.277C464.019,509.92,464.111,509.923,464.194,509.928Zm0,0" transform="translate(-387.299 -432.287)" fill="#183b9f"/>
    <path id="路径_221" data-name="路径 221" d="M487.831,511.246l-.129-.011c0-.067-.011-.137-.011-.2s.016-.14.108-.145a.128.128,0,0,1,.148.113C487.953,511.09,487.969,511.208,487.831,511.246Zm0,0" transform="translate(-410.342 -433.22)" fill="#0c34ab"/>
    <path id="路径_222" data-name="路径 222" d="M490.665,491.675c-.073,0-.092-.054-.094-.1s0-.129.065-.14.11.049.121.119S490.721,491.651,490.665,491.675Zm0,0" transform="translate(-413.143 -414.29)" fill="#9f8d00"/>
    <path id="路径_223" data-name="路径 223" d="M464.4,490.8a.131.131,0,0,1,.105.11c.008.051.013.11-.059.118s-.075-.04-.075-.089A.187.187,0,0,1,464.4,490.8Zm0,0" transform="translate(-387.651 -413.676)" fill="#a18f00"/>
    <path id="路径_224" data-name="路径 224" d="M477.6,494.1c.04,0,.07.016.07.057s-.014.1-.067.1-.057-.051-.062-.089S477.56,494.1,477.6,494.1Zm0,0" transform="translate(-400.467 -416.887)" fill="#ad9900"/>
    <path id="路径_225" data-name="路径 225" d="M531.262,546.1a.3.3,0,0,1,.067.059c.038.076.121.183.1.224a.694.694,0,0,0-.11.213c0,.013-.051.03-.075.024-.137-.03-.129-.175-.148-.259S531.171,546.173,531.262,546.1Zm0,0" transform="translate(-452.573 -467.487)" fill="#918d1a"/>
    <path id="路径_226" data-name="路径 226" d="M521.189,562.8c.07.046.083.148.124.215.059.1-.062.2-.113.294-.022.043-.116.013-.127-.035-.022-.1-.154-.2-.008-.3a.121.121,0,0,0,.048-.1C521.119,562.838,521.127,562.805,521.189,562.8Zm0,0" transform="translate(-442.752 -483.738)" fill="#898314"/>
    <path id="路径_227" data-name="路径 227" d="M512.808,541.364c0,.2,0,.477-.154.466-.075-.005-.065-.092-.1-.119-.191-.162.156-.5.25-.347" transform="translate(-434.484 -462.843)" fill="#657234"/>
    <path id="路径_228" data-name="路径 228" d="M518.492,654.224c-.051.067-.288.059-.442.04-.089-.011-.11-.2-.024-.232a.714.714,0,0,1,.447-.04C518.5,654.089,518.546,654.132,518.492,654.224Zm0,0" transform="translate(-439.808 -572.458)" fill="#d6b37c"/>
    <path id="路径_229" data-name="路径 229" d="M525.266,653.783a.451.451,0,0,1,.024-.286c.059-.016.07.04.1.067.067.089.03.18.011.272l-.11.005Zm0,0" transform="translate(-446.894 -571.99)" fill="#822c24"/>
    <path id="路径_230" data-name="路径 230" d="M583.7,480.583c.059-.043.062-.121.1-.178.121-.038.121-.127.094-.221a.247.247,0,0,1-.005-.186.119.119,0,0,1,.143-.075c.073.022.046.078.035.129a1.339,1.339,0,0,0,.011.517c.054.3.016.339-.272.291A.792.792,0,0,1,583.7,480.583Zm0,0" transform="translate(-503.768 -403.087)" fill="#d7d4d5"/>
    <path id="路径_231" data-name="路径 231" d="M565.33,405.376l-.051,0c-.089,0-.17-.008-.154-.127a.084.084,0,0,1,.127-.073c.07.038.191.07.108.2Zm0,0" transform="translate(-485.69 -330.344)" fill="#b08d03"/>
    <path id="路径_232" data-name="路径 232" d="M522.8,405.284a.52.52,0,0,0,0-.065c.049,0,.1-.059.143,0a.05.05,0,0,1-.005.075C522.891,405.343,522.846,405.311,522.8,405.284Zm0,0" transform="translate(-444.506 -330.373)" fill="#a91718"/>
  </g>
</svg>
