<svg xmlns="http://www.w3.org/2000/svg" width="20" height="20" viewBox="0 0 20 20">
  <path id="路径_305" data-name="路径 305" d="M2.833,1.667h3A.787.787,0,0,0,6.667.833.787.787,0,0,0,5.833,0H.667C.5,0,.333.167.167.333A.612.612,0,0,0,0,.833v5a.787.787,0,0,0,.833.833.787.787,0,0,0,.833-.833v-3l4.5,4.5A.825.825,0,0,0,7.333,6.167Zm3.333,11-3,3-1.5,1.5v-3a.787.787,0,0,0-.833-.833A.787.787,0,0,0,0,14.167v5A.787.787,0,0,0,.833,20h5a.833.833,0,0,0,0-1.667h-3l1.5-1.5,3-3a.825.825,0,0,0-1.167-1.167Zm13,.667a.787.787,0,0,0-.833.833v3l-1.5-1.5-3-3a.825.825,0,0,0-1.167,1.167l3,3,1.5,1.5h-3a.833.833,0,1,0,0,1.667h5A.787.787,0,0,0,20,19.167v-5a.787.787,0,0,0-.833-.833ZM19.167,0h-5a.787.787,0,0,0-.833.833.787.787,0,0,0,.833.833h3l-1.5,1.5-3,3a.825.825,0,0,0,1.167,1.167l3-3,1.5-1.5v3a.833.833,0,1,0,1.667,0v-5A.787.787,0,0,0,19.167,0Z" fill="#8e99b6"/>
</svg>
