<svg xmlns="http://www.w3.org/2000/svg" width="32" height="32" viewBox="0 0 32 32">
  <g id="我的_账号_google" transform="translate(-540 -403)">
    <rect id="矩形_71" data-name="矩形 71" width="32" height="32" transform="translate(540 403)" fill="none"/>
    <path id="路径_68" data-name="路径 68" d="M108.374,102.894a8.257,8.257,0,0,1-6.743,5.889,9.216,9.216,0,0,1-10.489-8.167,8.991,8.991,0,0,1,8.991-9.71,9.171,9.171,0,0,1,3.4.659.749.749,0,0,0,.959-.315l2.158-3.971a.779.779,0,0,0-.345-1.049,14.985,14.985,0,0,0-21.159,14.1,15.165,15.165,0,0,0,14.34,14.55,14.985,14.985,0,0,0,15.629-14.206v-3a.764.764,0,0,0-.749-.749H100.881a.749.749,0,0,0-.749.749v4.5a.749.749,0,0,0,.749.749h7.492" transform="translate(455.859 319.104)" />
  </g>
</svg>
