<svg xmlns="http://www.w3.org/2000/svg" width="16" height="16" viewBox="0 0 16 16">
  <g id="Help_Center" data-name="Help Center" transform="translate(-86 -950)">
    <rect id="帮助_1" data-name="帮助 1" width="16" height="16" transform="translate(86 950)" fill="none"/>
    <path id="Vector" d="M7.649,0A7.649,7.649,0,1,0,15.3,7.649,7.649,7.649,0,0,0,7.649,0Zm.6,11.237H6.924V9.64H8.246Zm.615-3.513a1.535,1.535,0,0,0-.615,1.215v.1H6.924V8.864a2.309,2.309,0,0,1,1.01-1.83,1.434,1.434,0,0,0,.6-1.15.78.78,0,0,0-.845-.826c-.636,0-.888.421-.96.987H5.477A2.05,2.05,0,0,1,7.712,4.061,1.869,1.869,0,0,1,9.82,5.923a2.23,2.23,0,0,1-.959,1.8Z" transform="translate(86 950.351)" />
  </g>
</svg>
