<svg xmlns="http://www.w3.org/2000/svg" width="16" height="15.999" viewBox="0 0 16 15.999">
  <path id="Inplay" d="M6.087,2868.764A7.995,7.995,0,0,1,3.1,2854.676a8.032,8.032,0,0,1,2.288-1.237,7.945,7.945,0,0,1,2.6-.438,8.063,8.063,0,0,1,1.92.234,8,8,0,0,1,2.984,14.089,8.031,8.031,0,0,1-2.289,1.238,7.952,7.952,0,0,1-4.522.2Zm.085-.345a7.753,7.753,0,0,0,1,.177l2.208-2.73-.528-1.668-3.286-.81-1.218,1.134.438,3.409A7.639,7.639,0,0,0,6.171,2868.42Zm6.626-1.463a7.628,7.628,0,0,0,2.1-2.652l-1.827-2.986-2.059-.11L9.2,2864.124l.524,1.654Zm-8.751-2.643,1.337-1.246-.24-3.309-1.768-.816-2.987,1.374a7.6,7.6,0,0,0,.471,3.4Zm9.222-3.34,2-2.341a7.72,7.72,0,0,0-2.811-3.846l-3.109,1.291-.539,2.2,2.17,2.572Zm-7.931-1.517,3.131-1.276L9,2856.009l-2.193-2.561a7.608,7.608,0,0,0-3.673,1.651l.415,3.535Z" transform="translate(0 -2853)" />
</svg>
