<svg id="韩国" xmlns="http://www.w3.org/2000/svg" width="24" height="24" viewBox="0 0 24 24">
  <path id="路径_233" data-name="路径 233" d="M12,12,0,12A12,12,0,1,0,12,0,12,12,0,0,0,0,12Z" fill="#f0f0f0"/>
  <path id="路径_234" data-name="路径 234" d="M342.262,338.088a4.211,4.211,0,0,1-8.348,0,4.174,4.174,0,0,1,8.348,0Z" transform="translate(-326.088 -326.088)" fill="#d80027"/>
  <path id="路径_235" data-name="路径 235" d="M342.262,512a4.174,4.174,0,0,1-8.348,0" transform="translate(-326.088 -500)" fill="#0052b4"/>
  <path id="路径_236" data-name="路径 236" d="M162.872,162.133l1.107-1.107.738.738-1.107,1.107Zm-1.845,1.845,1.107-1.107.738.738-1.107,1.107Zm4.059.368,1.107-1.107.738.738-1.107,1.107Zm-1.845,1.845,1.107-1.107.738.738-1.107,1.107Zm.738-2.951,1.107-1.107.738.738-1.107,1.107Zm-1.844,1.845,1.107-1.107.738.738-1.107,1.107Zm2.952-10.33-2.951-2.951.738-.738,2.951,2.951Zm-2.951-.737-1.107-1.107.738-.738,1.107,1.107Zm1.844,1.844-1.107-1.107.738-.738,1.107,1.107Zm.368-4.058-1.107-1.107.738-.738,1.107,1.107Zm1.845,1.845-1.107-1.107.738-.738,1.107,1.107ZM150.7,163.24l2.951,2.951-.738.738-2.951-2.951Zm2.951.737,1.107,1.107-.738.738-1.107-1.107Zm-1.845-1.844,1.107,1.107-.738.738-1.107-1.107Zm1.107-1.107,2.951,2.951-.738.738-2.951-2.951Zm.738-10.33-2.951,2.951-.738-.738,2.951-2.951Zm1.106,1.106-2.951,2.951-.738-.738,2.951-2.951Zm1.107,1.107-2.951,2.951-.738-.738,2.951-2.951Z" transform="translate(-146.445 -146.443)"/>
</svg>
