<svg xmlns="http://www.w3.org/2000/svg" width="12" height="12" viewBox="0 0 12 12">
  <g id="组_638" data-name="组 638" transform="translate(40.428 35.428) rotate(180)">
    <path id="路径_32" data-name="路径 32" d="M6.632.239a.814.814,0,0,1,1.152,0,.767.767,0,0,1,.248.572.767.767,0,0,1-.248.572L4.592,4.558a.536.536,0,0,1-.256.166.941.941,0,0,1-.324.038,1.085,1.085,0,0,1-.337-.073.81.81,0,0,1-.286-.184L.248,1.383A.767.767,0,0,1,0,.811.767.767,0,0,1,.248.239.8.8,0,0,1,.516.06.821.821,0,0,1,.824,0a.854.854,0,0,1,.312.06.786.786,0,0,1,.273.179L4.02,2.817Z" transform="translate(36.78 25.41) rotate(90)" fill="#8e99b6"/>
    <rect id="矩形_210" data-name="矩形 210" width="12" height="12" transform="translate(28.428 23.428)" fill="none"/>
  </g>
</svg>
