<svg xmlns="http://www.w3.org/2000/svg" width="56" height="56" viewBox="0 0 56 56">
  <g id="组_657" data-name="组 657" transform="translate(-1566 -844)">
    <g id="组_654" data-name="组 654" transform="translate(2551.982 515)">
      <path id="路径_75" data-name="路径 75" d="M-983.983,538.066c.276-1.347.515-2.562.785-3.771.028-.126.226-.233.367-.308.083-.044.208-.011.314-.011h39.17l0,.037Z" transform="translate(0 -170.857)" fill="#ecbb41"/>
      <g id="组_653" data-name="组 653" transform="translate(-982.837 346)">
        <path id="路径_76" data-name="路径 76" d="M-721.362,348.392c-.037-.8-.122-1.6-.185-2.392h-5.915c-.33.747-.657,1.495-.992,2.24q-2.564,5.716-5.13,11.431c-.274.612-.539,1.227-.833,1.9,1.749,0,3.4.006,5.051-.012a.5.5,0,0,0,.335-.276c.236-.524.431-1.067.662-1.594.051-.117.184-.275.286-.279.616-.026,1.233-.013,1.892-.013v2.144h5.265c0-1.134.036-2.237-.007-3.337C-721.058,354.932-721.209,351.662-721.362,348.392Zm-4.338,6.745c-.343,0-.583,0-.823,0a2.294,2.294,0,0,1-.31-.056l1.133-2.9Z" transform="translate(755.983 -346)" fill="#fff"/>
        <path id="路径_77" data-name="路径 77" d="M-565.972,346h-8.464a3.163,3.163,0,0,0-.151.422c-.235,1.124-.459,2.251-.692,3.376q-.893,4.31-1.789,8.62c-.213,1.031-.413,2.065-.616,3.088a.581.581,0,0,0,.133.053c1.607,0,3.213,0,4.82.017.307,0,.342-.2.384-.4.313-1.511.628-3.021.92-4.535.054-.281.153-.382.438-.376.849.018,1.7.029,2.546.013a4.648,4.648,0,0,0,4.76-3.808c.211-.912.415-1.825.622-2.737v-1.638A3.283,3.283,0,0,0-565.972,346Zm-2.75,4.6a8.348,8.348,0,0,1-.27,1.053c-.181.557-.683.77-1.559.631.1-.479.2-.932.29-1.387.088-.429.2-.856.248-1.289.053-.472.365-.423.686-.417.355.006.653.11.679.509A3.7,3.7,0,0,1-568.722,350.6Z" transform="translate(613.513 -346)" fill="#fff"/>
        <path id="路径_78" data-name="路径 78" d="M-965.086,357.318c.642-3.1,1.27-6.117,1.888-9.136.148-.724.266-1.454.4-2.181h-5.369l-3.221,15.571h8.582c.94,0,.94,0,1.141-.9.036-.162.079-.323.113-.486.189-.927.376-1.855.581-2.87Z" transform="translate(971.391 -346)" fill="#fff"/>
        <path id="路径_79" data-name="路径 79" d="M-826.212,350.266c1.3,0,2.608-.009,3.911.006.34,0,.512-.066.573-.447.143-.9.35-1.781.518-2.673.072-.381.11-.768.163-1.152H-831.7l-.871,4.266h6.354Z" transform="translate(845.2 -346)" fill="#fff"/>
        <path id="路径_80" data-name="路径 80" d="M-835.373,412.1c.756,0,.755,0,.9-.727.03-.148.079-.293.109-.441.2-1,.4-2.01.617-3.079h-5.781c-1.516,0-3.032.01-4.547-.008-.321,0-.462.093-.511.409-.068.433-.179.858-.267,1.288-.17.824-.336,1.65-.521,2.557h10Z" transform="translate(856.84 -402.219)" fill="#fff"/>
        <path id="路径_81" data-name="路径 81" d="M-846.921,470.464c-3.335,0-6.669,0-10-.01-.35,0-.438.164-.493.443-.177.89-.365,1.777-.545,2.666-.073.361-.135.724-.211,1.136h9.709c1.083,0,1.083,0,1.3-1.034.022-.1.047-.206.068-.31.186-.932.371-1.864.568-2.854C-846.716,470.482-846.818,470.464-846.921,470.464Z" transform="translate(868.478 -459.128)" fill="#fff"/>
      </g>
    </g>
    <rect id="矩形_218" data-name="矩形 218" width="56" height="56" transform="translate(1566 844)" fill="none"/>
  </g>
</svg>
