<svg xmlns="http://www.w3.org/2000/svg" width="28" height="28" viewBox="0 0 28 28"><defs><style>.a{fill:#c0ebe8;}.b{fill:none;}</style></defs><g transform="translate(-420 -177)"><path class="a" d="M78.693,196.206a2.117,2.117,0,0,1,3,0,2.04,2.04,0,0,1,0,2.975l-8.3,8.26a1.4,1.4,0,0,1-.666.433,2.447,2.447,0,0,1-.844.1,2.823,2.823,0,0,1-.877-.189,2.107,2.107,0,0,1-.744-.477l-8.171-8.127a2.04,2.04,0,0,1,0-2.975,2.07,2.07,0,0,1,.7-.466,2.134,2.134,0,0,1,.8-.155,2.22,2.22,0,0,1,.81.155,2.043,2.043,0,0,1,.711.466l6.794,6.706Z" transform="translate(635.977 118.56) rotate(90)"/><rect class="b" width="28" height="28" transform="translate(420 177)"/></g></svg>