<svg xmlns="http://www.w3.org/2000/svg" width="16" height="16" viewBox="0 0 16 16">
  <g id="Live_Chat" data-name="Live Chat" transform="translate(-86 -910)">
    <rect id="帮助的副本_1" data-name="帮助的副本 1" width="16" height="16" transform="translate(86 910)" fill="none"/>
    <path id="Vector" d="M9.816,1.359a4.6,4.6,0,0,1,1.953,3.667c0,2.692-2.555,4.875-5.709,4.878a6.114,6.114,0,0,0,2.555.548,11.848,11.848,0,0,1,2.609,1,.267.267,0,0,0,.364-.314c-.117-.545-.231-1.317.019-1.459a4.472,4.472,0,0,0,2.4-3.833A4.828,4.828,0,0,0,9.816,1.359Zm1.042,3.4C10.858,2.136,8.422,0,5.43,0S0,2.136,0,4.761A4.6,4.6,0,0,0,2.27,8.637c0,.133-.18.853-.342,1.494a.507.507,0,0,0,.678.617c1.058-.491,2.641-1.212,2.822-1.227,2.994,0,5.43-2.136,5.43-4.761Zm-5.43,3.43A3.982,3.982,0,0,0,3.3,9.211a1.2,1.2,0,0,0-.233-1.628A3.317,3.317,0,0,1,1.259,4.759c0-1.892,1.87-3.431,4.169-3.431S9.6,2.867,9.6,4.759,7.727,8.191,5.428,8.191Z" transform="translate(87 912.194)" />
  </g>
</svg>
