<svg xmlns="http://www.w3.org/2000/svg" width="16" height="16" viewBox="0 0 16 16">
  <g id="Live_Casino" data-name="Live Casino" transform="translate(-86 -359)">
    <rect id="女人_1" data-name="女人 1" width="16" height="16" transform="translate(86 359)" fill="none"/>
    <path id="Vector" d="M12.144,12.016a2.308,2.308,0,0,0-.3.056,2.188,2.188,0,0,0-.592.232.787.787,0,0,1,.016-.352,1.124,1.124,0,0,1,.448-.688,2.235,2.235,0,0,1,1.984-.208,1.491,1.491,0,0,1,.752.664,1.8,1.8,0,0,1,.1,1.288,2.76,2.76,0,0,1-.592,1.192,2.863,2.863,0,0,1-1.192.824,4.637,4.637,0,0,1-1.752.272,7.332,7.332,0,0,1-2.256-.448,3.9,3.9,0,0,1-1.36-.76,3.434,3.434,0,0,1-.744-.936,2.633,2.633,0,0,1-.3-.9,2.872,2.872,0,0,1-.016-.664,2.081,2.081,0,0,1,.2-.592q.168-.352.344-.672.208-.384.464-.784.128-.208.224-.4A2.336,2.336,0,0,0,7.7,8.784a.6.6,0,0,0,0-.336,1.69,1.69,0,0,0-.4-.64,2.018,2.018,0,0,0-.464-.336,1.71,1.71,0,0,0-.56-.128,3.843,3.843,0,0,1-.736-.1,3.831,3.831,0,0,1-.568-.208.806.806,0,0,1-.408-.4,1,1,0,0,1-.12-.56,2.613,2.613,0,0,1,.112-.568q.088-.28.184-.536a1.3,1.3,0,0,0,.1-.448.736.736,0,0,0-.544-.72,3.492,3.492,0,0,0-1.056-.144,1.046,1.046,0,0,0-.5.136q-.144.1-.144.192v.024a3.817,3.817,0,0,0,.056.576,1.358,1.358,0,0,1-.056.672,1.467,1.467,0,0,1-.216.36q-.136.168-.232.312-.128.208-.216.36t-.072.2a.2.2,0,0,0,.152.088.761.761,0,0,1,.184.056.227.227,0,0,1,.1.152.337.337,0,0,0,.12.184.71.71,0,0,1,.192.272.2.2,0,0,1,0,.112q0,.128.016.3.016.144.04.328a2.688,2.688,0,0,0,.072.36,1.613,1.613,0,0,0,.224.584.528.528,0,0,0,.312.208,1.322,1.322,0,0,0,.44.008,5.143,5.143,0,0,1,.624-.032q.272.016.56.016a1.014,1.014,0,0,1,.512.128.93.93,0,0,1,.352.352,2.806,2.806,0,0,1,.208.448,4.718,4.718,0,0,1,.1.56,5.685,5.685,0,0,1,.048.736q0,.32-.032.7a3.043,3.043,0,0,1-.16.744,2.242,2.242,0,0,1-.8,1.12,2.882,2.882,0,0,1-1.136.48,3.354,3.354,0,0,1-1.216.032,3.828,3.828,0,0,1-1.04-.32,2.5,2.5,0,0,1-.76-.544,1.351,1.351,0,0,1-.36-.64,1.457,1.457,0,0,1-.008-.5,2.873,2.873,0,0,1,.12-.48,2.965,2.965,0,0,1,.192-.44q.112-.208.192-.4a1.89,1.89,0,0,0,.176-.536,1.2,1.2,0,0,0,0-.392.842.842,0,0,0-.128-.32l-.3-.336Q.72,9.36.576,9.176a1.825,1.825,0,0,1-.24-.408A3,3,0,0,1,0,7.552q0-.24.008-.584a2,2,0,0,1,.12-.648A2.488,2.488,0,0,1,.6,5.64a11.682,11.682,0,0,0,.84-1.1,3.326,3.326,0,0,0,.168-.4A3.67,3.67,0,0,0,1.72,3.76q.04-.176.056-.3a1.7,1.7,0,0,0,.016-.176q0-.16-.016-.352t-.032-.4q0-.1-.016-.32a1.826,1.826,0,0,1,.04-.5,2.162,2.162,0,0,1,.2-.552,1.466,1.466,0,0,1,.448-.5A1.486,1.486,0,0,1,2.984.408,3.89,3.89,0,0,1,3.6.32a5.249,5.249,0,0,1,.7.016A4.028,4.028,0,0,1,4.944.16Q5.232.1,5.616.048A6.658,6.658,0,0,1,8.752.424a5.128,5.128,0,0,1,1.552.96,4.165,4.165,0,0,1,.928,1.232A6.616,6.616,0,0,1,11.7,3.848a5.363,5.363,0,0,1,.168.96q.024.392.024.408a.87.87,0,0,0,.192.5,5.141,5.141,0,0,0,.408.456q.232.232.48.472a2.621,2.621,0,0,1,.792,1.616,1.8,1.8,0,0,1-.128.848,1.844,1.844,0,0,1-.448.632,3.565,3.565,0,0,1-.584.44,3.684,3.684,0,0,1-.544.272q-.248.1-.312.128a2.648,2.648,0,0,0-.808.528,1.547,1.547,0,0,0-.376.576,1.066,1.066,0,0,0-.04.56.958.958,0,0,0,.232.464.912.912,0,0,0,.288.24,1.587,1.587,0,0,0,.36.144,1.72,1.72,0,0,0,.352.056.883.883,0,0,0,.28-.024.783.783,0,0,0,.624-.624.424.424,0,0,0-.088-.352.492.492,0,0,0-.424-.128Z" transform="translate(87 359)" />
  </g>
</svg>
