<svg xmlns="http://www.w3.org/2000/svg" width="12" height="11.582" viewBox="0 0 12 11.582">
  <g id="锁定" transform="translate(-118.3 -138.1)">
    <path id="联合_2" data-name="联合 2" d="M.968,11.582A.969.969,0,0,1,0,10.614V4.264A.969.969,0,0,1,.968,3.3H2.292V3.121A3.125,3.125,0,0,1,5.414,0H6.585A3.125,3.125,0,0,1,9.706,3.121V3.3H11.03a.971.971,0,0,1,.97.968v6.35a.969.969,0,0,1-.968.968Zm.107-1.074h9.848V4.373H1.075ZM3.369,3.121V3.3H8.63V3.121A2.046,2.046,0,0,0,6.585,1.077H5.414A2.046,2.046,0,0,0,3.369,3.121ZM5.981,8.355a.522.522,0,0,1-.521-.521V5.807a.522.522,0,0,1,.521-.521h.037a.522.522,0,0,1,.521.521V7.835a.522.522,0,0,1-.521.521Z" transform="translate(118.3 138.1)" fill="#8e99b6"/>
  </g>
</svg>
