<svg xmlns="http://www.w3.org/2000/svg" width="285.761" height="96.595" viewBox="0 0 285.761 96.595">
  <g id="logo" transform="translate(-975.119 -10.405)">
    <path id="路径_1" data-name="路径 1" d="M32.4,5.027V81.389H13.235V40.449q0-8.867-.427-10.659A3.922,3.922,0,0,0,10.436,27.1q-1.9-.943-8.539-.943H0V17.243Q13.9,14.272,21.11,5.027Z" transform="translate(975.119 25.473)" fill="#11b85a"/>
    <path id="路径_2" data-name="路径 2" d="M33.242,38.035,10.093,10.16H28.024L42.066,27.14,55.4,10.16H72.9L51.126,37.988,74.275,65.863H56.344l-14.468-17.4-13.425,17.4h-17.5Z" transform="translate(1005.648 41.137)" fill="#11b85a"/>
    <path id="路径_3" data-name="路径 3" d="M107.223,5.027,98.353,81.389H73.4q-3.416-17.593-6.025-40-1.186,9.574-5.55,40H37.016L28.1,5.027H47.5l2.04,26.648,2.087,25.706q1.091-19.951,5.5-52.354H77.907q.427,3.349,2.182,25.187l2.182,29.007q1.66-27.687,5.55-54.193Z" transform="translate(1060.111 25.611)" fill="#fff"/>
    <path id="路径_4" data-name="路径 4" d="M71.114,9.449V68.013H51.38V9.449Z" transform="translate(1130.534 38.987)" fill="#fff"/>
    <path id="路径_5" data-name="路径 5" d="M79.512,9.3l-.332,5.754a14.183,14.183,0,0,1,5.076-5.141,13.741,13.741,0,0,1,6.973-1.745,13.231,13.231,0,0,1,8.064,2.311,10.281,10.281,0,0,1,4.032,5.848q.9,3.49.9,11.7V71.889H85.062V28.544q0-6.462-.427-7.877t-2.372-1.415A2.371,2.371,0,0,0,79.7,20.9q-.522,1.6-.522,8.679V71.889H60.015V9.3Z" transform="translate(1156.654 35.111)" fill="#fff"/>
    <path id="路径_6" data-name="路径 6" d="M70.317,31.418A16.1,16.1,0,1,1,80.689,11.152,16.114,16.114,0,0,1,70.317,31.418Zm-1.944-8.205,4.681,1.53-.008,3.037A14.024,14.024,0,0,0,79.062,18.9L76.3,19.983l-3.123-3.81-3.443.2-2.473,3.389Zm-2.26,6.845-1.8-2.491,2.9-3.979L66.126,20.22,62.081,18.9l-2.87,1.847-.278,4.913-2.962.785A14.058,14.058,0,0,0,66.112,30.057Zm-11.98-16.8-1.7-2.449a13.927,13.927,0,0,0-.4,9.5l1.932-2.373,4.588,1.791,2.821-1.813.01-4.144-2.534-1.928ZM61.069,2.784a13.885,13.885,0,0,0-4.152,2.184l2.787,1-.115,4.9,2.5,1.9,4.059-1.308.92-3.015L64.1,4.506l1.66-2.379A13.924,13.924,0,0,0,61.069,2.784ZM72.834,4.277l.052,2.914-4.655,1.6-.956,3.129,2.34,3.236,3.483-.2,2.656-4.148,2.829.739A13.909,13.909,0,0,0,72.834,4.277Z" transform="translate(1124.154 10.405)" fill="#11b85a"/>
  </g>
</svg>
