<svg xmlns="http://www.w3.org/2000/svg" width="100" height="100" viewBox="0 0 100 100">
  <g id="组_806" data-name="组 806" transform="translate(-719 -290)">
    <g id="组_805" data-name="组 805" transform="translate(151.104 -57.898)">
      <path id="联合_24" data-name="联合 24" d="M6,62.523a6,6,0,0,1-6-6V48.586a6,6,0,0,1,6-6H61.706a6,6,0,0,1,6,6v7.937a6,6,0,0,1-6,6ZM6,41.23a6,6,0,0,1-6-6V27.293a6,6,0,0,1,6-6H61.706a6,6,0,0,1,6,6V35.23a6,6,0,0,1-6,6ZM6,19.938a6,6,0,0,1-6-6V6A6,6,0,0,1,6,0H61.706a6,6,0,0,1,6,6v7.937a6,6,0,0,1-6,6Z" transform="translate(578.896 366.898)" fill="#566177" stroke="rgba(0,0,0,0)" stroke-miterlimit="10" stroke-width="1" opacity="0.4"/>
      <g id="组_249" data-name="组 249" transform="translate(625.62 405.857)">
        <path id="减去_1" data-name="减去 1" d="M-245.017,395.193H-267.2a3.912,3.912,0,0,1-2.217-.685,4.019,4.019,0,0,1-1.668-2.52,4.078,4.078,0,0,1,.09-1.972,4.021,4.021,0,0,1,.495-1.063l11.093-15.538a4.005,4.005,0,0,1,.664-.77,3.925,3.925,0,0,1,4.833-.343,3.988,3.988,0,0,1,1.1,1.112h0l11.093,15.538a4.058,4.058,0,0,1,.011,4.438,3.976,3.976,0,0,1-1.112,1.129A3.931,3.931,0,0,1-245.017,395.193Zm-11.093-6.546a1.3,1.3,0,0,0-1.3,1.305,1.3,1.3,0,0,0,1.305,1.3,1.3,1.3,0,0,0,1.3-1.305,1.3,1.3,0,0,0-.8-1.2A1.3,1.3,0,0,0-256.11,388.647Zm0-11.128a1.317,1.317,0,0,0-1.317,1.317v6.529a1.317,1.317,0,0,0,1.316,1.318,1.317,1.317,0,0,0,1.318-1.316v-6.54a1.317,1.317,0,0,0-1.317-1.318Z" transform="translate(271.167 -371.628)" fill="#566177"/>
      </g>
      <path id="路径_310" data-name="路径 310" d="M-379.765,265.089l-3.363-2.549a11.522,11.522,0,0,0,.071-1.168,11.523,11.523,0,0,0-.071-1.168l3.363-2.549a2.294,2.294,0,0,0,.566-3.009l-3.753-6.337a2.423,2.423,0,0,0-2.089-1.2,2.2,2.2,0,0,0-.814.142l-4,1.558a13.585,13.585,0,0,0-2.089-1.168l-.6-4.071a2.371,2.371,0,0,0-2.372-2.018h-7.576a2.372,2.372,0,0,0-2.372,1.983l-.566,4.107a15.476,15.476,0,0,0-2.089,1.168l-4-1.558a2.379,2.379,0,0,0-.85-.142,2.293,2.293,0,0,0-2.053,1.168l-3.788,6.373a2.309,2.309,0,0,0,.566,3.009l3.364,2.549c-.036.425-.071.814-.071,1.168a6.864,6.864,0,0,0,.071,1.168l-3.364,2.549a2.294,2.294,0,0,0-.566,3.009l3.753,6.337a2.423,2.423,0,0,0,2.089,1.2,2.195,2.195,0,0,0,.814-.142l4-1.558a13.577,13.577,0,0,0,2.089,1.168l.6,4.071a2.375,2.375,0,0,0,2.372,2.018h7.576a2.371,2.371,0,0,0,2.372-1.983l.6-4.107a15.483,15.483,0,0,0,2.089-1.168l4,1.558a2.38,2.38,0,0,0,.85.142,2.293,2.293,0,0,0,2.053-1.168l3.788-6.408a2.3,2.3,0,0,0-.6-2.974Zm-10.444-3.717a8.522,8.522,0,0,1-8.5,8.5,8.522,8.522,0,0,1-8.5-8.5,8.522,8.522,0,0,1,8.5-8.5A8.522,8.522,0,0,1-390.209,261.371Z" transform="translate(1012.98 136.789)" fill="#566177"/>
      <ellipse id="椭圆_30" data-name="椭圆 30" cx="1.904" cy="1.904" rx="1.904" ry="1.904" transform="translate(636.869 371.871)" fill="#b7e444" opacity="0.6"/>
    </g>
    <rect id="矩形_227" data-name="矩形 227" width="100" height="100" transform="translate(719 290)" fill="none"/>
  </g>
</svg>
