<svg xmlns="http://www.w3.org/2000/svg" width="100" height="100" viewBox="0 0 100 100">
  <g id="组_740" data-name="组 740" transform="translate(-1038 -255)">
    <g id="组_740-2" data-name="组 740" transform="translate(1046.999 273.002)">
      <path id="联合_18" data-name="联合 18" d="M20.066,63.324c-3.11,0-5.205-1.908-5.21-4.735q-.01-7,0-14v-.918h-.876c-2.042,0-4.082.007-6.125,0-1.107,0-1.836-.576-1.857-1.433-.021-.891.716-1.488,1.873-1.5,2.04-.006,4.082,0,6.122,0h.862v-.856c0-4.984.014-9.968-.011-14.95a2.122,2.122,0,0,1,.972-1.886c2.6-1.9,5.148-3.846,7.753-5.73a1.666,1.666,0,0,0,.789-1.537c-.036-3.419.069-6.842-.046-10.259-.085-2.615.8-4.6,4.082-5.525H42.74c.956.59,1.281,1.152,1.068,1.841-.24.766-.862,1.089-2.111,1.089H29.85c-1.768,0-2.287.475-2.287,2.106q0,12.346-.016,24.7a1.374,1.374,0,0,0,.7,1.263q9.925,6.829,19.813,13.7a.936.936,0,0,0,1.292,0Q59.239,37.828,69.165,31a1.361,1.361,0,0,0,.693-1.267q-.031-12.313-.014-24.626c0-1.729-.49-2.177-2.369-2.178q-6.045,0-12.089,0c-1.134,0-1.875-.635-1.841-1.523C53.572.7,54.1.338,54.667,0H69.014a3.434,3.434,0,0,0,.357.144,4.513,4.513,0,0,1,3.691,4.43q.027,5.714-.007,11.431a1.3,1.3,0,0,0,.6,1.174c2.657,1.945,5.278,3.929,7.936,5.872a2.093,2.093,0,0,1,.97,1.816q-.027,16.854-.014,33.708c0,2.838-2.09,4.748-5.194,4.748q-16.781,0-33.56,0Q31.933,63.326,20.066,63.324Zm.354-2.985H77Q67.287,51.5,57.592,42.687c-.169.111-.384.253-.6.4C54.621,44.726,52.254,46.37,49.873,48a1.806,1.806,0,0,1-2.342,0c-.215-.144-.425-.3-.64-.443l-7.055-4.873ZM60.344,40.77,79.262,57.981V27.688Q69.694,34.3,60.344,40.77ZM18.136,57.894q9.407-8.552,18.877-17.163-9.324-6.45-18.877-13.054ZM73.1,28.26c1.859-1.283,3.586-2.479,5.384-3.723l-5.384-4ZM18.93,24.542c1.816,1.255,3.533,2.438,5.336,3.683V20.567C22.436,21.933,20.709,23.217,18.93,24.542ZM1.617,53.017a1.476,1.476,0,1,1,0-2.937h8.72a1.475,1.475,0,1,1,0,2.938ZM33.754,26.568a1.475,1.475,0,1,1,0-2.937H63.63a1.476,1.476,0,1,1,0,2.938Zm0-7.2a1.476,1.476,0,1,1,0-2.938H63.63a1.476,1.476,0,1,1,0,2.938Zm.16-7.2A1.547,1.547,0,0,1,32.3,10.7a1.547,1.547,0,0,1,1.615-1.469h8.723A1.547,1.547,0,0,1,44.252,10.7a1.547,1.547,0,0,1-1.615,1.47ZM48.664,2.917a1.49,1.49,0,0,1-1.484-1.028A1.332,1.332,0,0,1,47.836.242c.126-.083.256-.164.384-.242h.967c.128.08.256.159.382.242a1.324,1.324,0,0,1,.656,1.646,1.494,1.494,0,0,1-1.518,1.028Z" fill="#586175" stroke="rgba(0,0,0,0)" stroke-miterlimit="10" stroke-width="1"/>
    </g>
    <rect id="矩形_227" data-name="矩形 227" width="100" height="100" transform="translate(1038 255)" fill="none"/>
  </g>
</svg>
