<svg xmlns="http://www.w3.org/2000/svg" width="16" height="16" viewBox="0 0 16 16">
  <g id="My_bet" data-name="My bet" transform="translate(-86 -243)">
    <rect id="其他_1" data-name="其他 1" width="16" height="16" transform="translate(86 243)" fill="none"/>
    <path id="Vector" d="M11.786,7.9l1.928.951a.482.482,0,0,1,.225.673.507.507,0,0,1-.225.2l-6.46,3.212a.6.6,0,0,1-.509,0L.286,9.731a.484.484,0,0,1-.225-.675.544.544,0,0,1,.225-.2L2.212,7.9.286,6.939a.49.49,0,0,1-.225-.68.583.583,0,0,1,.225-.2l1.926-.955L.286,4.148a.477.477,0,0,1,0-.872L6.745.059a.583.583,0,0,1,.509,0l6.46,3.214a.485.485,0,0,1,.225.673.577.577,0,0,1-.225.2l-1.928.962,1.928.955a.483.483,0,0,1,.225.673.582.582,0,0,1-.225.2L11.786,7.9ZM7,9.148Q9.666,7.826,12.33,6.5l-1.674-.831-3.4,1.687a.492.492,0,0,1-.173.057H7.069l-.049.007H6.978l-.044-.007H6.918a.509.509,0,0,1-.173-.057l-3.4-1.687L1.673,6.5C3.448,7.387,5.23,8.269,7,9.148Z" transform="translate(87 245)" />
  </g>
</svg>
