<svg xmlns="http://www.w3.org/2000/svg" width="16" height="20" viewBox="0 0 16 20">
  <g id="通知" transform="translate(-127.137)">
    <path id="路径_22" data-name="路径 22" d="M413.182,898.981a2.16,2.16,0,1,0,4.32,0C417.509,898.994,413.2,898.985,413.182,898.981Z" transform="translate(-280.205 -881.141)" />
    <path id="路径_23" data-name="路径 23" d="M141.82,11.93c-.011-.064-.021-.133-.03-.207a10.352,10.352,0,0,1-.076-1.2V8.552a7.206,7.206,0,0,0-3.69-6.4,3.013,3.013,0,0,0-5.783.022,7.338,7.338,0,0,0-3.683,6.375V10.5a10.649,10.649,0,0,1-.075,1.212c-.009.073-.019.142-.029.206a2.356,2.356,0,0,0-1.318,2.128,2.328,2.328,0,0,0,2.311,2.349h11.378a2.356,2.356,0,0,0,.994-4.471Zm-.995,2.831H129.448a.709.709,0,1,1,.018-1.418c.693-.025.693-2.837.693-2.837V8.552a5.6,5.6,0,0,1,3.575-5.259,1.422,1.422,0,1,1,2.806,0,5.456,5.456,0,0,1,3.575,5.261v1.972s0,2.817.711,2.817a.709.709,0,1,1,0,1.418Z" transform="translate(0)" />
  </g>
</svg>
