<svg xmlns="http://www.w3.org/2000/svg" width="32" height="32" viewBox="0 0 32 32">
  <g id="我的_账号_密码" transform="translate(-1153 -272)">
    <rect id="矩形_71" data-name="矩形 71" width="32" height="32" transform="translate(1153 272)" fill="none"/>
    <path id="路径_67" data-name="路径 67" d="M147.1,59.3h-1.031V54.3h0c0-3.856-3.726-6.987-8.322-6.987s-8.315,3.134-8.315,6.993v5h-1.045a3.063,3.063,0,0,0-3.12,3V74.311a3.061,3.061,0,0,0,3.12,3h18.727a3.057,3.057,0,0,0,3.12-3V62.305A3.084,3.084,0,0,0,147.1,59.3Zm-7.807,11.076V71.74a1.56,1.56,0,0,1-3.12,0V70.377a3.467,3.467,0,0,1-2.089-3.12,3.644,3.644,0,0,1,7.278,0A3.425,3.425,0,0,1,139.292,70.377ZM133.059,59.3v-5c0-1.655,2.1-3.493,4.68-3.493s4.68,1.838,4.68,3.493v5Z" transform="translate(1031.734 225.691)" />
  </g>
</svg>
