<svg xmlns="http://www.w3.org/2000/svg" width="32" height="32" viewBox="0 0 32 32">
  <g id="我的_账号_手机" transform="translate(-1574 -769)">
    <rect id="矩形_71" data-name="矩形 71" width="32" height="32" transform="translate(1574 769)" fill="none"/>
    <path id="路径_69" data-name="路径 69" d="M220.668,17.92H205.629a1.847,1.847,0,0,0-1.853,1.853V46.067a1.847,1.847,0,0,0,1.853,1.853h15.023a1.888,1.888,0,0,0,1.9-1.853V19.773a1.894,1.894,0,0,0-1.884-1.853Zm-7.519,28.194a1.853,1.853,0,0,1,0-3.705,1.888,1.888,0,0,1,1.9,1.853A1.908,1.908,0,0,1,213.148,46.114Zm7.519-5.651H205.629V21.672h15.023V40.463Z" transform="translate(1377.224 752.08)" />
  </g>
</svg>
