<svg xmlns="http://www.w3.org/2000/svg" width="46" height="46" viewBox="0 0 46 46">
  <g id="披索" transform="translate(0.406 0.016)">
    <rect id="矩形_57" data-name="矩形 57" width="46" height="46" transform="translate(-0.406 -0.016)" fill="none"/>
    <path id="路径_330" data-name="路径 330" d="M-844.782,490.034h-4.285V473.2H-853.2v-4.246h4.021v-2.086h-4.011V462.66h4.049v-6.446c3.9,0,7.606-.083,11.309.045a11.469,11.469,0,0,1,3.792.973,9,9,0,0,1,4.617,4.189,1.928,1.928,0,0,0,2.105,1.183c1.156-.087,2.323-.02,3.56-.02v4.228h-4.063v2.081h4.052v4.255c-1.318,0-2.664-.071-4,.037a2.017,2.017,0,0,0-1.393.788,10.778,10.778,0,0,1-9.827,5.548c-1.876,0-3.753,0-5.8,0Zm12.556-21.175v-1.944h-12.553v1.944Zm-12.52-8.514v2.133h10.933C-837.2,459.279-841.092,460.882-844.746,460.345Zm-.037,15.013c3.7-.424,7.574,1,11-2.132h-11Z" transform="translate(861.321 -450.596)" />
  </g>
</svg>
