<svg xmlns="http://www.w3.org/2000/svg" width="100" height="100" viewBox="0 0 100 100">
  <g id="组_772" data-name="组 772" transform="translate(-665 -723)">
    <g id="组_771" data-name="组 771" transform="translate(597.256 561.06)">
      <path id="路径_306" data-name="路径 306" d="M135.059,219.2a6.771,6.771,0,1,0-6.813-6.771,6.791,6.791,0,0,0,6.813,6.771Zm-14.886,17.173L94.826,212.343a5.206,5.206,0,0,0-1.423,1.073L82.842,224.5l-.556-20.637a4.554,4.554,0,0,1,4.416-4.645l18.692-.5,4.386-4.632-23.2.625a9.062,9.062,0,0,0-8.832,9.28l.678,25.142.417,15.45a9.054,9.054,0,0,0,9.32,8.784l16.3-.44,1.112-.03,4.386-4.632L120.727,236.9Z" transform="translate(0 -11.923)" fill="#586175"/>
      <path id="路径_307" data-name="路径 307" d="M505.7,184.077l-22.5-3.137-5.1,3.841,26.978,3.761a4.544,4.544,0,0,1,3.871,5.107l-5.033,36.092-11.2-14.734a5.545,5.545,0,0,0-7.738-1.081L480.9,216.99l6.028,7.981-5.122,3.87-7.371,5.568-5.088,3.843,3.165.441,25.08,3.5a9.037,9.037,0,0,0,10.179-7.374,2.074,2.074,0,0,0,.06-.319l5.607-40.22A9.054,9.054,0,0,0,505.7,184.077Z" transform="translate(-355.328)" fill="#586175"/>
    </g>
    <rect id="矩形_227" data-name="矩形 227" width="100" height="100" transform="translate(665 723)" fill="none"/>
  </g>
</svg>
