<svg xmlns="http://www.w3.org/2000/svg" width="16" height="16" viewBox="0 0 16 16">
  <g id="Promotions" transform="translate(-86 -679)">
    <rect id="优惠券_4_1" data-name="优惠券 (4) 1" width="16" height="16" transform="translate(86 679)" fill="none"/>
    <path id="Vector" d="M14.667,7.39a1,1,0,0,0,0,1.887v.057a1.333,1.333,0,0,1-1.333,1.333H4V0h9.333a1.333,1.333,0,0,1,1.333,1.333V1.39a1,1,0,0,0,0,1.887V3.39a1,1,0,0,0,0,1.887V5.39a1,1,0,0,0,0,1.887Zm-12,3.277H1.333A1.333,1.333,0,0,1,0,9.333V6.667a1.333,1.333,0,0,0,.51-.1,1.333,1.333,0,0,0,.433-.289,1.333,1.333,0,0,0,.289-.433,1.333,1.333,0,0,0,0-1.02,1.333,1.333,0,0,0-.289-.433A1.333,1.333,0,0,0,.51,4.1,1.333,1.333,0,0,0,0,4V1.333A1.333,1.333,0,0,1,1.333,0H2.667V10.667ZM10.007,6l0-.667h1.325a.667.667,0,0,0,0-1.333h-.969l.98-.823a.667.667,0,1,0-.858-1.021l-1.021.858-1.04-.861a.667.667,0,0,0-.85,1.027L8.565,4H7.333a.667.667,0,1,0,0,1.333H8.675l0,.667H7.333a.667.667,0,1,0,0,1.333H8.669l0,.569a.72.72,0,0,0,.664.765A.718.718,0,0,0,10,7.907l0-.574h1.331a.667.667,0,0,0,0-1.333Z" transform="translate(87 682)" />
  </g>
</svg>
