<svg xmlns="http://www.w3.org/2000/svg" width="24" height="24" viewBox="0 0 24 24">
  <g id="葡萄牙" transform="translate(1596.896 -549.63)">
    <g id="组_809" data-name="组 809" transform="translate(-1596.896 549.63)">
      <path id="路径_311" data-name="路径 311" d="M-1511.518,549.63a11.977,11.977,0,0,0-4.06.705v22.59a11.977,11.977,0,0,0,4.06.705,12,12,0,0,0,12-12A12,12,0,0,0-1511.518,549.63Z" transform="translate(1523.518 -549.63)" fill="#fe4d55"/>
      <path id="路径_312" data-name="路径 312" d="M-1596.9,568.146a12,12,0,0,0,7.94,11.3v-22.59A12,12,0,0,0-1596.9,568.146Z" transform="translate(1596.896 -556.146)" fill="#73af02"/>
    </g>
    <path id="路径_313" data-name="路径 313" d="M-1561.348,630.613a4.52,4.52,0,0,1,4.547-4.537,4.514,4.514,0,0,1,4.528,4.535,4.515,4.515,0,0,1-4.526,4.537A4.521,4.521,0,0,1-1561.348,630.613Zm4.536-2.492c-.637,0-1.274,0-1.911,0a.515.515,0,0,0-.59.591c0,.791,0,1.582,0,2.373a2.959,2.959,0,0,0,.062.558,2.491,2.491,0,0,0,2.707,1.949,2.442,2.442,0,0,0,2.195-2.208c.055-.915.035-1.835.034-2.753a.488.488,0,0,0-.548-.509C-1555.511,628.12-1556.161,628.121-1556.812,628.121Z" transform="translate(-32.077 -68.982)" fill="#ffe05a"/>
    <path id="路径_314" data-name="路径 314" d="M-1538.015,647.018c.65,0,1.3,0,1.951,0a.488.488,0,0,1,.548.509c0,.918.021,1.838-.034,2.753a2.442,2.442,0,0,1-2.195,2.208,2.491,2.491,0,0,1-2.707-1.949,2.959,2.959,0,0,1-.062-.558c-.007-.791,0-1.582,0-2.373a.515.515,0,0,1,.59-.591C-1539.288,647.017-1538.651,647.018-1538.015,647.018Zm.018.957c-.442,0-.885,0-1.327,0-.149,0-.216.037-.214.2.009.623,0,1.246.006,1.869a1.514,1.514,0,0,0,1.512,1.487,1.517,1.517,0,0,0,1.525-1.475c.013-.63,0-1.26.007-1.889,0-.154-.06-.2-.2-.2C-1537.126,647.978-1537.561,647.975-1538,647.975Zm-2.017-.221a.247.247,0,0,0,.246-.251.252.252,0,0,0-.266-.264.246.246,0,0,0-.259.25A.259.259,0,0,0-1540.014,647.755Zm4.028-.516a.259.259,0,0,0-.282.264.245.245,0,0,0,.258.251.252.252,0,0,0,.266-.263A.248.248,0,0,0-1535.985,647.239Zm-4.012,2.013a.263.263,0,0,0-.3.256.245.245,0,0,0,.251.257.25.25,0,0,0,.273-.255A.245.245,0,0,0-1540,649.252Zm1.966-1.5a.254.254,0,0,0,.276-.247.256.256,0,0,0-.262-.268.256.256,0,0,0-.262.267A.247.247,0,0,0-1538.031,647.754Zm2.045,2.013a.249.249,0,0,0,.244-.253.251.251,0,0,0-.268-.26.244.244,0,0,0-.256.251A.259.259,0,0,0-1535.987,649.767Zm-3.51,1.34a.261.261,0,0,0-.267.245.263.263,0,0,0,.262.27.25.25,0,0,0,.265-.245A.256.256,0,0,0-1539.5,651.107Zm3,.516a.253.253,0,0,0,.247-.259.248.248,0,0,0-.268-.255.24.24,0,0,0-.246.257A.248.248,0,0,0-1536.5,651.623Z" transform="translate(-50.874 -87.879)" fill="#fe4d55"/>
    <path id="路径_315" data-name="路径 315" d="M-1528.948,656.8c.436,0,.871,0,1.307,0,.142,0,.2.042.2.2-.007.63.006,1.26-.007,1.889a1.517,1.517,0,0,1-1.525,1.475,1.514,1.514,0,0,1-1.512-1.487c-.009-.623,0-1.246-.006-1.869,0-.167.065-.206.214-.2C-1529.832,656.807-1529.39,656.8-1528.948,656.8Zm-.577,1.423h-.245c-.42,0-.429.009-.379.433a.279.279,0,0,0,.283.278.266.266,0,0,0,.314-.237C-1529.529,658.552-1529.533,658.4-1529.524,658.226Zm1.75.011h-.624c.008.233-.081.48.135.639a.37.37,0,0,0,.331.015C-1527.672,658.742-1527.811,658.477-1527.774,658.238Zm-1.486-1.033c0,.161-.01.308,0,.453a.27.27,0,0,0,.3.26.27.27,0,0,0,.285-.257c.013-.145,0-.292,0-.456Zm-.007,1.031c.028.242-.1.5.151.656a.361.361,0,0,0,.328-.019c.218-.166.1-.411.117-.638Zm.6,1.063c-.538-.108-.646-.029-.6.414a.268.268,0,0,0,0,.04.284.284,0,0,0,.307.233.264.264,0,0,0,.282-.235A3.52,3.52,0,0,0-1528.668,659.3Z" transform="translate(-59.923 -96.707)" fill="#fff"/>
    <path id="路径_316" data-name="路径 316" d="M-1496.716,670.432a.259.259,0,0,1-.281-.262.244.244,0,0,1,.256-.251.251.251,0,0,1,.268.26A.249.249,0,0,1-1496.716,670.432Z" transform="translate(-90.145 -108.543)" fill="#ffe15a"/>
    <path id="路径_317" data-name="路径 317" d="M-1501.83,689.42a.248.248,0,0,1-.268-.257.24.24,0,0,1,.246-.257.248.248,0,0,1,.268.255A.254.254,0,0,1-1501.83,689.42Z" transform="translate(-85.542 -125.676)" fill="#ffe05a"/>
    <path id="路径_318" data-name="路径 318" d="M-1537.942,649.8a.259.259,0,0,1-.279-.264.246.246,0,0,1,.259-.25.252.252,0,0,1,.266.264A.247.247,0,0,1-1537.942,649.8Z" transform="translate(-52.946 -89.928)" fill="#ffe15a"/>
    <path id="路径_319" data-name="路径 319" d="M-1496.716,649.281a.248.248,0,0,1,.242.252.252.252,0,0,1-.266.263.245.245,0,0,1-.258-.251A.259.259,0,0,1-1496.716,649.281Z" transform="translate(-90.143 -89.921)" fill="#ffe15a"/>
    <path id="路径_320" data-name="路径 320" d="M-1537.921,669.9a.245.245,0,0,1,.229.258.25.25,0,0,1-.273.255.245.245,0,0,1-.251-.257A.263.263,0,0,1-1537.921,669.9Z" transform="translate(-52.95 -108.527)" fill="#ffe15a"/>
    <path id="路径_321" data-name="路径 321" d="M-1517.364,649.793a.247.247,0,0,1-.249-.248.256.256,0,0,1,.262-.267.256.256,0,0,1,.262.268A.254.254,0,0,1-1517.364,649.793Z" transform="translate(-71.542 -89.918)" fill="#ffe15a"/>
    <path id="路径_322" data-name="路径 322" d="M-1526.574,671.394c-.009.174-.005.326-.027.474a.266.266,0,0,1-.314.237.279.279,0,0,1-.283-.278c-.05-.424-.041-.434.379-.433Z" transform="translate(-62.874 -109.875)" fill="#013399"/>
    <path id="路径_323" data-name="路径 323" d="M-1532.539,688.894a.256.256,0,0,1,.26.269.25.25,0,0,1-.265.245.263.263,0,0,1-.262-.27A.261.261,0,0,1-1532.539,688.894Z" transform="translate(-57.832 -125.666)" fill="#ffe15a"/>
    <path id="路径_324" data-name="路径 324" d="M-1508.563,671.511c-.037.239.1.5-.158.655a.37.37,0,0,1-.331-.015c-.217-.16-.127-.406-.135-.639Z" transform="translate(-79.134 -109.98)" fill="#013399"/>
    <path id="路径_325" data-name="路径 325" d="M-1517.936,660.933h.59c0,.164.01.311,0,.456a.27.27,0,0,1-.285.257.27.27,0,0,1-.3-.26C-1517.946,661.241-1517.936,661.094-1517.936,660.933Z" transform="translate(-71.247 -100.435)" fill="#013399"/>
    <path id="路径_326" data-name="路径 326" d="M-1518.058,671.49h.6c-.016.227.1.472-.117.638a.361.361,0,0,1-.328.019C-1518.161,671.993-1518.03,671.732-1518.058,671.49Z" transform="translate(-71.132 -109.961)" fill="#013399"/>
    <path id="路径_327" data-name="路径 327" d="M-1517.458,681.977a3.542,3.542,0,0,1,0,.451.265.265,0,0,1-.282.235.284.284,0,0,1-.307-.233.269.269,0,0,1,0-.04C-1518.1,681.948-1518,681.87-1517.458,681.977Z" transform="translate(-71.133 -119.386)" fill="#013399"/>
  </g>
</svg>
