<svg xmlns="http://www.w3.org/2000/svg" width="85.263" height="80.999" viewBox="0 0 85.263 80.999">
  <g id="组_648" data-name="组 648" transform="translate(569.464 -1010.792)" opacity="0.05">
    <path id="联合_16" data-name="联合 16" d="M63.286,80V75.128c-5.762-1.086-10.267-3.879-13.294-8.812a17.889,17.889,0,0,1-2.673-9.522h4.829c.681,6.836,4.114,11.37,11.1,13.222V62.874c0-6.517-.03-13.034.027-19.55.01-1.154-.339-1.735-1.453-1.988a22.318,22.318,0,0,1-2.707-.86C51.2,37.576,46.9,31.079,47.286,22.6a18.55,18.55,0,0,1,13.3-17.052c.846-.238,1.7-.46,2.7-.731V0h4.978V4.893a18.808,18.808,0,0,1,11.393,6.216,17.814,17.814,0,0,1,4.529,12.063h-4.8c-1.119-7.5-5.476-12.6-11.108-12.92V34.206c0,3.861-.005,3.876,3.66,5.145,6.509,2.255,10.8,6.541,11.963,13.462,1.234,7.338-.732,13.731-6.739,18.323-2.513,1.921-5.66,3.01-8.9,4.672V80Zm5.1-10.208c5.823-.676,10.709-6.412,10.839-12.575.157-7.491-3.752-12.434-10.839-13.591ZM52.311,22.767c-.193,7.461,3.666,12.348,10.838,13.617V10.191C57.265,10.965,52.47,16.574,52.311,22.767ZM31.99,75.6v-2c0-4.976-.067-9.952.013-14.926.12-7.355-5.462-15.219-14.9-14.867-2.2.081-4.4.062-6.605.041-1.116-.01-2.232-.02-3.346-.017-.639,0-1.276.059-2.075.1V75.583H0V73.46Q0,40.141,0,6.824C0,4.51.005,4.5,2.3,4.507c1.458,0,2.919-.026,4.381-.055a81.73,81.73,0,0,1,9.827.195C28.7,5.877,36.439,18,32.928,29.917a20.206,20.206,0,0,1-7.006,10.265,67.585,67.585,0,0,1,5.63,4.585A17.369,17.369,0,0,1,36.833,56.5c.249,6.314.063,12.646.063,19.1ZM5.111,38.841c3.557,0,7.04.155,10.5-.034a14.13,14.13,0,0,0,13.048-12.8C29.5,18.9,25.4,11.739,18.835,10.257c-4.4-.993-9.085-.71-13.724-1Z" transform="translate(-568.964 1011.292)" fill="#11b85a" stroke="rgba(0,0,0,0)" stroke-miterlimit="10" stroke-width="1"/>
  </g>
</svg>
