<svg xmlns="http://www.w3.org/2000/svg" width="30" height="30" viewBox="0 0 30 30">
  <g id="BRL" transform="translate(-50 -136)">
    <rect id="矩形_55" data-name="矩形 55" width="30" height="30" transform="translate(50 136)" fill="none"/>
    <g id="组_648" data-name="组 648" transform="translate(620.964 -872.292)">
      <path id="联合_16" data-name="联合 16" d="M19.53,24.688v-1.5a5.82,5.82,0,0,1-4.1-2.719,5.52,5.52,0,0,1-.825-2.938h1.49a4.281,4.281,0,0,0,3.426,4.08V19.4c0-2.011-.009-4.022.008-6.033,0-.356-.1-.535-.448-.613a6.887,6.887,0,0,1-.835-.265,5.3,5.3,0,0,1-3.651-5.518A5.724,5.724,0,0,1,18.7,1.711c.261-.074.524-.142.832-.226V0h1.536V1.51a5.8,5.8,0,0,1,3.516,1.918,5.5,5.5,0,0,1,1.4,3.723H24.5c-.345-2.314-1.69-3.887-3.428-3.987v7.392c0,1.192,0,1.2,1.13,1.588A5.113,5.113,0,0,1,25.892,16.3a5.511,5.511,0,0,1-2.08,5.654,18.335,18.335,0,0,1-2.746,1.442v1.294Zm1.573-3.15a4.047,4.047,0,0,0,3.345-3.881A3.789,3.789,0,0,0,21.1,13.463ZM16.143,7.026a3.8,3.8,0,0,0,3.345,4.2V3.145A4.056,4.056,0,0,0,16.143,7.026Zm-6.271,16.3v-.617c0-1.536-.021-3.071,0-4.606a4.435,4.435,0,0,0-4.6-4.588c-.679.025-1.359.019-2.038.013-.344,0-.689-.006-1.033-.005-.2,0-.394.018-.64.03v9.768H0V22.67Q0,12.387,0,2.106c0-.714,0-.717.709-.715.45,0,.9-.008,1.352-.017a25.222,25.222,0,0,1,3.033.06,6.017,6.017,0,0,1,5.068,7.8A6.236,6.236,0,0,1,8,12.4a20.856,20.856,0,0,1,1.737,1.415,5.36,5.36,0,0,1,1.63,3.622c.077,1.949.019,3.9.019,5.894ZM1.577,11.987c1.1,0,2.173.048,3.242-.01a4.36,4.36,0,0,0,4.027-3.95A4.362,4.362,0,0,0,5.812,3.165a27.276,27.276,0,0,0-4.235-.31Z" transform="translate(-568.964 1011.292)"/>
    </g>
  </g>
</svg>
