<svg xmlns="http://www.w3.org/2000/svg" width="54" height="54" viewBox="0 0 54 54">
  <g id="我的_充值_btc" transform="translate(-1324 -211)">
    <rect id="矩形_57" data-name="矩形 57" width="54" height="54" transform="translate(1324 211)" fill="none"/>
    <path id="路径_64" data-name="路径 64" d="M234.306,102.4q.444,4.489-3.231,6.363a7.406,7.406,0,0,1,4.316,2.54,7.31,7.31,0,0,1,1.11,5.278,9.325,9.325,0,0,1-.8,3.083,6.8,6.8,0,0,1-1.591,2.2,8.089,8.089,0,0,1-2.392,1.443,14.568,14.568,0,0,1-3,.851,29.736,29.736,0,0,1-3.589.37v6.289h-3.8v-6.19q-1.973,0-3.009-.025v6.215h-3.8v-6.289q-.444,0-1.332-.012t-1.356-.012h-4.933l.765-4.513h2.738a1.317,1.317,0,0,0,1.43-1.258V101.708a1.959,1.959,0,0,0-2.2-1.677h-2.738V95.986l5.229.025q1.578,0,2.392-.025V89.771h3.8v6.092q2.022-.049,3.009-.049V89.771h3.8v6.215a22.016,22.016,0,0,1,3.453.555,11.215,11.215,0,0,1,2.787,1.11,5.652,5.652,0,0,1,2.035,1.924A6.3,6.3,0,0,1,234.306,102.4ZM229,115.84a3.29,3.29,0,0,0-.37-1.578,3.7,3.7,0,0,0-.912-1.135,4.683,4.683,0,0,0-1.418-.752,12.006,12.006,0,0,0-1.615-.456,14.585,14.585,0,0,0-1.825-.222q-1.085-.074-1.7-.074t-1.591.025q-.974.024-1.171.025v8.336q.2,0,.912.012t1.184.012q.469,0,1.307-.037t1.443-.1q.6-.062,1.406-.21a9.4,9.4,0,0,0,1.369-.345,8.372,8.372,0,0,0,1.171-.518,3.413,3.413,0,0,0,.974-.74,3.487,3.487,0,0,0,.6-.986A3.271,3.271,0,0,0,229,115.84Zm-1.751-11.74a3.237,3.237,0,0,0-.308-1.443,3.44,3.44,0,0,0-.752-1.036,3.688,3.688,0,0,0-1.184-.691,8.492,8.492,0,0,0-1.356-.407,13.574,13.574,0,0,0-1.517-.2q-.9-.074-1.43-.062t-1.332.025q-.8.012-.974.012v7.572q.123,0,.851.012t1.147,0q.419-.012,1.233-.049a10.429,10.429,0,0,0,1.356-.136q.543-.1,1.27-.271a4.178,4.178,0,0,0,1.2-.456,6.787,6.787,0,0,0,.912-.666,2.37,2.37,0,0,0,.666-.95A3.425,3.425,0,0,0,227.252,104.1Z" transform="translate(1130.055 127.709)"/>
  </g>
</svg>
