<svg xmlns="http://www.w3.org/2000/svg" width="100" height="100" viewBox="0 0 100 100">
  <g id="组_767" data-name="组 767" transform="translate(-882 -542)">
    <rect id="矩形_227" data-name="矩形 227" width="100" height="100" transform="translate(882 542)" fill="none"/>
    <g id="组_766" data-name="组 766" transform="translate(2723.234 -71.766)">
      <path id="联合_23" data-name="联合 23" d="M35.3,72c-1.076-.62-1.242-.976-.992-2.237.657-3.326,1.312-6.654,2-9.975a2.276,2.276,0,0,1,.583-1.082Q48.446,47.11,60.036,35.55a4.436,4.436,0,0,1,6.423-.017c1.43,1.385,2.879,2.759,4.2,4.242A12.323,12.323,0,0,1,72,42.188v1.547a7.87,7.87,0,0,1-2.388,3.456Q58.72,58.046,47.869,68.941a3.746,3.746,0,0,1-2.053,1.083c-3.122.6-6.237,1.227-9.355,1.849a1.879,1.879,0,0,0-.32.127ZM61.952,37.869Q50.77,49.046,39.6,60.235a2.063,2.063,0,0,0-.506.95c-.3,1.3-.55,2.609-.81,3.917-.222,1.114-.433,2.229-.661,3.409a4.109,4.109,0,0,0,.433-.024c2.41-.475,4.82-.946,7.224-1.444a1.4,1.4,0,0,0,.626-.412q11.212-11.194,22.411-22.4a1.579,1.579,0,0,0,.006-2.6q-1.879-1.9-3.775-3.777a1.89,1.89,0,0,0-1.29-.67A1.914,1.914,0,0,0,61.952,37.869ZM.107,56.7C.1,56.642.037,56.588,0,56.531V15.469a2.744,2.744,0,0,0,.137-.38A7.527,7.527,0,0,1,7.46,9c1.491-.018,2.982,0,4.528,0,0-.407,0-.731,0-1.056.007-1.437.5-1.931,1.953-1.934,1.38,0,2.76,0,4.164,0,.067-.207.126-.382.181-.558A7.421,7.421,0,0,1,22.812.514C23.347.3,23.916.169,24.469,0h1.969c.472.127.953.229,1.413.389a7.3,7.3,0,0,1,4.823,5,.736.736,0,0,0,.872.634c1.241-.031,2.483-.019,3.726-.008,1.185.012,1.7.536,1.716,1.728.006.394,0,.787,0,1.26,1.563,0,3.056-.024,4.547.006a7.534,7.534,0,0,1,7.473,7.626q.014,8.789,0,17.577a2.669,2.669,0,0,1-.1.761,1.432,1.432,0,0,1-1.438,1.02A1.388,1.388,0,0,1,48.1,34.968a3.662,3.662,0,0,1-.109-1.041c-.006-5.647-.072-11.3.024-16.943a4.7,4.7,0,0,0-5.053-5c-1.283.058-2.571.01-3.976.01,0,.44,0,.827,0,1.214A4.5,4.5,0,0,1,34.2,18q-8.717,0-17.436,0a4.527,4.527,0,0,1-4.774-4.762c0-.391,0-.782,0-1.128a48.485,48.485,0,0,0-5.472.043A4.313,4.313,0,0,0,3,16.4c-.014.257-.008.515-.008.773q0,18.946,0,37.895a4.52,4.52,0,0,0,3.3,4.736A6.714,6.714,0,0,0,8.021,60q7.382.015,14.764.009h5.063c.257,0,.517-.007.773.017a1.428,1.428,0,0,1,1.357,1.43A1.473,1.473,0,0,1,28.7,62.979,4.934,4.934,0,0,1,28,63q-3.047,0-6.093-.009c-4.672-.011-9.343-.021-14.014.027H7.8A7.584,7.584,0,0,1,.107,56.7Zm34.2-41.7c.913-.012,1.6-.455,1.637-1.224.074-1.578.022-3.161.022-4.783-1.491,0-2.917.011-4.343,0A1.51,1.51,0,0,1,30,7.514a9.3,9.3,0,0,0-.128-1.043,4.492,4.492,0,0,0-8.857.722C20.848,8.639,20.446,9,18.989,9H15.012c0,1.385,0,2.689,0,4,0,1.539.476,2.016,2.014,2.016H30.095C31.5,15.012,32.905,15.023,34.31,15.006ZM39.933,45H10.9C9.716,45,9.01,44.44,9,43.507s.677-1.494,1.887-1.494q7.31,0,14.62,0,7.38,0,14.761,0c1.152,0,1.87.749,1.7,1.724a1.477,1.477,0,0,1-1.333,1.248,3.344,3.344,0,0,1-.357.016Zm-29.027-9a2.992,2.992,0,0,1-.962-.129A1.446,1.446,0,0,1,9.015,34.3a1.475,1.475,0,0,1,1.312-1.266,7.023,7.023,0,0,1,.772-.021H39.918c1.378,0,2.1.53,2.082,1.516C41.978,35.5,41.273,36,39.936,36H19.678Q15.292,36,10.906,35.994Zm29.03-9H11.046C9.728,27,9.012,26.477,9,25.51s.7-1.5,2.024-1.5h14.48q7.38,0,14.761,0c1.153,0,1.871.747,1.7,1.721a1.477,1.477,0,0,1-1.331,1.251,3.335,3.335,0,0,1-.357.016Z" transform="translate(-1827.234 627.766)" fill="#586175" stroke="rgba(0,0,0,0)" stroke-miterlimit="10" stroke-width="1"/>
    </g>
  </g>
</svg>
