<svg xmlns="http://www.w3.org/2000/svg" width="16" height="16" viewBox="0 0 16 16">
  <g id="Slots" transform="translate(-214 -885)">
    <rect id="游戏_1" data-name="游戏 1" width="16" height="16" transform="translate(214 885)" fill="none"/>
    <path id="Vector" d="M1.214,0A1.2,1.2,0,0,0,0,1.214,1.2,1.2,0,0,0,1.214,2.427,1.2,1.2,0,0,0,2.427,1.214,1.222,1.222,0,0,0,1.214,0Z" transform="translate(221 892)" fill="#8e99b6"/>
    <path id="Vector-2" data-name="Vector" d="M10.756,0C8.518,1.1,7.039.986,4.726,0,.667,0-1.646,10.733,1.388,10.733c2.579,0,2.92-3.148,6.409-3.148,2.844,0,4.513,3.11,6.409,3.11,2.958,0-.114-10.7-3.451-10.7Zm-5.8,5.689A1.972,1.972,0,1,1,6.925,3.717,1.983,1.983,0,0,1,4.953,5.689ZM9.466,3.831a.5.5,0,0,1-.341-.683.523.523,0,0,1,.683-.341.5.5,0,0,1,.341.683A.552.552,0,0,1,9.466,3.831Zm1.327.834a.523.523,0,0,1-.683.341.5.5,0,0,1-.341-.683.523.523,0,0,1,.683-.341A.553.553,0,0,1,10.794,4.665Zm.076-1.289a.5.5,0,0,1-.341-.683.523.523,0,0,1,.683-.341.5.5,0,0,1,.341.683A.59.59,0,0,1,10.87,3.375Zm1.365.91a.523.523,0,0,1-.683.341.5.5,0,0,1-.341-.683.523.523,0,0,1,.683-.341A.552.552,0,0,1,12.235,4.286Z" transform="translate(214 887)" />
  </g>
</svg>
