<svg xmlns="http://www.w3.org/2000/svg" width="18" height="18" viewBox="0 0 18 18">
  <g id="组_200" data-name="组 200" transform="translate(-444 -813)">
    <path id="路径_10" data-name="路径 10" d="M11.792.439a9,9,0,1,0,5.8,11.329A9.008,9.008,0,0,0,11.792.439ZM10.7,5.025l2.617-.855,0-1.7a7.84,7.84,0,0,1,3.364,4.965l-1.546-.606-1.746,2.13-1.925-.113L10.081,6.954ZM9.441,1.2,8.434,2.592l1.622,2.224L9.449,6.7l-2.261.738L5.584,6.4,5.428,3.657,3.772,3.219A7.859,7.859,0,0,1,9.441,1.2Zm-6.7,9.394-.951,1.369a7.788,7.788,0,0,1-.224-5.31L2.65,7.979l2.565-1L6.792,7.991,6.8,10.307,5.381,11.385l-2.637-.792Zm3.878,5.852A7.762,7.762,0,0,1,4.3,15.225l1.558-.56L5.8,11.928l1.4-1.061L9.46,11.6l.514,1.685-1.659,2.2.928,1.33a7.785,7.785,0,0,1-2.621-.367Zm6.577-.835.029-1.629-2.6-.9-.534-1.749L11.4,9.528l1.947.114,1.485,2.319,1.582-.413A7.775,7.775,0,0,1,13.2,15.611Zm0,0" transform="translate(443.974 812.998)" fill="#8e99b6"/>
    <rect id="矩形_44" data-name="矩形 44" width="18" height="18" transform="translate(444 813)" fill="none"/>
  </g>
</svg>
