<?xml version="1.0" encoding="UTF-8"?>
<svg width="577px" height="248px" viewBox="0 0 577 248" version="1.1" xmlns="http://www.w3.org/2000/svg" xmlns:xlink="http://www.w3.org/1999/xlink">
    <title>编组</title>
    <defs>
        <linearGradient x1="50%" y1="0%" x2="50%" y2="100%" id="linearGradient-1">
            <stop stop-color="#21AFF8" offset="0%"></stop>
            <stop stop-color="#009FC0" offset="100%"></stop>
        </linearGradient>
        <linearGradient x1="50%" y1="0%" x2="50%" y2="100%" id="linearGradient-2">
            <stop stop-color="#21AFF8" offset="0%"></stop>
            <stop stop-color="#009FC0" offset="100%"></stop>
        </linearGradient>
        <linearGradient x1="50%" y1="0%" x2="50%" y2="100%" id="linearGradient-3">
            <stop stop-color="#21AFF8" offset="0%"></stop>
            <stop stop-color="#009FC0" offset="100%"></stop>
        </linearGradient>
        <linearGradient x1="50%" y1="0%" x2="50%" y2="100%" id="linearGradient-4">
            <stop stop-color="#21AFF8" offset="0%"></stop>
            <stop stop-color="#009FC0" offset="100%"></stop>
        </linearGradient>
    </defs>
    <g id="页面-1" stroke="none" stroke-width="1" fill="none" fill-rule="evenodd">
        <g id="60x60" transform="translate(-1552.000000, -2279.000000)">
            <g id="编组" transform="translate(1552.000000, 2279.000000)">
                <path d="M295.727,60.566 C295.513,60.569 295.343,60.596 295.137,60.602 L295.137,60.602 L293.145,60.602 C289.089,60.602 285.8,63.891 285.8,67.947 L285.8,67.947 L285.8,127.426 C285.8,135.723 287.29,143.674 290.013,151.011 L290.013,151.011 C298.438,176.245 320.396,192.529 346.284,193.646 L346.284,193.646 C349.007,193.831 351.77,193.865 354.577,193.698 L354.577,193.698 C365.89,193.021 376.437,189.399 385.48,183.612 L385.48,183.612 C387.002,182.515 391.842,177.966 392.205,175.437 L392.205,175.437 C392.219,175.341 392.314,181.441 392.341,182.09 L392.341,182.09 C392.566,187.514 391.879,192.228 390.519,196.321 L390.519,196.321 C383.781,216.606 360.513,221.602 349.644,221.955 L349.644,221.955 C346.407,222.062 343.678,224.033 342.451,226.808 L342.451,226.808 C341.23,228.503 341.278,231.973 341.531,239.332 L341.531,239.332 C341.564,240.276 341.639,241.226 341.728,242.201 L341.728,242.201 L341.725,243.988 C341.721,246.159 343.48,247.921 345.651,247.921 L345.651,247.921 L353.151,247.921 C355.129,248 357.07,247.991 358.979,247.921 L358.979,247.921 L359.878,247.921 C390.628,247.921 415.555,223.119 415.555,192.524 L415.555,192.524 L415.555,177.068 L415.555,129.853 C415.559,129.543 415.578,129.237 415.578,128.926 L415.578,128.926 L415.578,66.457 C415.578,63.224 412.956,60.602 409.722,60.602 L409.722,60.602 L389.893,60.602 C386.668,60.602 384.053,63.218 384.053,66.443 L384.053,66.443 L384.053,129.03 C384.053,129.045 384.052,129.061 384.052,129.075 L384.052,129.075 C383.963,134.567 383.079,139.513 381.479,143.856 L381.479,143.856 C376.433,155.907 364.509,164.431 350.683,164.431 L350.683,164.431 C341.302,164.431 332.806,160.501 326.74,154.208 L326.74,154.208 C320.889,148.14 317.964,139.911 317.537,131.493 L317.537,131.493 C317.502,130.784 317.479,130.067 317.472,129.34 L317.472,129.34 C317.3,113.193 317.582,97.042 317.314,80.898 L317.314,80.898 L317.314,76.244 C317.452,66.908 318.241,63.026 314.497,61.474 L314.497,61.474 C313.609,60.932 312.577,60.602 311.462,60.602 L311.462,60.602 L309.536,60.602 C308.078,60.517 306.362,60.487 304.339,60.487 L304.339,60.487 C301.931,60.487 299.088,60.529 295.727,60.566" id="Clip-2" fill="url(#linearGradient-1)"></path>
                <path d="M295.727,60.566 C295.513,60.569 295.343,60.596 295.137,60.602 L295.137,60.602 L293.145,60.602 C289.089,60.602 285.8,63.891 285.8,67.947 L285.8,67.947 L285.8,127.426 C285.8,135.723 287.29,143.674 290.013,151.011 L290.013,151.011 C298.438,176.245 320.396,192.529 346.284,193.646 L346.284,193.646 C349.007,193.831 351.77,193.865 354.577,193.698 L354.577,193.698 C365.89,193.021 376.437,189.399 385.48,183.612 L385.48,183.612 C387.002,182.515 391.842,177.966 392.205,175.437 L392.205,175.437 C392.219,175.341 392.314,181.441 392.341,182.09 L392.341,182.09 C392.566,187.514 391.879,192.228 390.519,196.321 L390.519,196.321 C383.781,216.606 360.513,221.602 349.644,221.955 L349.644,221.955 C346.407,222.062 343.678,224.033 342.451,226.808 L342.451,226.808 C341.23,228.503 341.278,231.973 341.531,239.332 L341.531,239.332 C341.564,240.276 341.639,241.226 341.728,242.201 L341.728,242.201 L341.725,243.988 C341.721,246.159 343.48,247.921 345.651,247.921 L345.651,247.921 L353.151,247.921 C355.129,248 357.07,247.991 358.979,247.921 L358.979,247.921 L359.878,247.921 C390.628,247.921 415.555,223.119 415.555,192.524 L415.555,192.524 L415.555,177.068 L415.555,129.853 C415.559,129.543 415.578,129.237 415.578,128.926 L415.578,128.926 L415.578,66.457 C415.578,63.224 412.956,60.602 409.722,60.602 L409.722,60.602 L389.893,60.602 C386.668,60.602 384.053,63.218 384.053,66.443 L384.053,66.443 L384.053,129.03 C384.053,129.045 384.052,129.061 384.052,129.075 L384.052,129.075 C383.963,134.567 383.079,139.513 381.479,143.856 L381.479,143.856 C376.433,155.907 364.509,164.431 350.683,164.431 L350.683,164.431 C341.302,164.431 332.806,160.501 326.74,154.208 L326.74,154.208 C320.889,148.14 317.964,139.911 317.537,131.493 L317.537,131.493 C317.502,130.784 317.479,130.067 317.472,129.34 L317.472,129.34 C317.3,113.193 317.582,97.042 317.314,80.898 L317.314,80.898 L317.314,76.244 C317.452,66.908 318.241,63.026 314.497,61.474 L314.497,61.474 C313.609,60.932 312.577,60.602 311.462,60.602 L311.462,60.602 L309.536,60.602 C308.078,60.517 306.362,60.487 304.339,60.487 L304.339,60.487 C301.931,60.487 299.088,60.529 295.727,60.566" id="Fill-1" fill="url(#linearGradient-1)"></path>
                <path d="M490.781,58.886 C489.944,59.039 489.119,59.215 488.296,59.392 L488.296,59.392 C472.083,62.494 458.536,70.848 447.662,84.196 L447.662,84.196 C427.603,108.823 427.747,146.639 447.841,171.117 L447.841,171.117 C458.927,184.623 473.266,192.84 490.44,195.983 L490.44,195.983 C500.841,197.888 510.413,197.235 519.332,194.591 L519.332,194.591 C519.373,194.58 519.412,194.566 519.453,194.556 L519.453,194.556 C520.051,194.377 520.653,194.207 521.245,194.011 L521.245,194.011 C530.934,191.007 539.724,185.747 547.807,178.876 L547.807,178.876 L551.313,175.793 C552.337,175.09 553.638,176.181 553.125,177.313 L553.125,177.313 L547.665,184.252 C547.165,184.936 546.555,185.782 546.163,186.347 L546.163,186.347 L545.125,187.805 C542.42,191.61 543.709,194.32 546.175,194.555 L546.175,194.555 C546.427,194.578 549.904,194.554 550.165,194.554 L550.165,194.554 L572.175,194.554 C574.79,194.554 576.91,192.433 576.91,189.818 L576.91,189.818 L576.516,159.162 L576.569,65.051 C576.569,62.436 574.449,60.316 571.834,60.316 L571.834,60.316 L549.823,60.316 C549.562,60.316 547.251,60.291 547,60.316 L547,60.316 C544.534,60.549 542.079,63.261 544.784,67.064 L544.784,67.064 L545.822,68.523 C546.214,69.088 546.825,69.934 547.324,70.619 L547.324,70.619 L552.045,76.618 C551.845,77.477 550.839,78.046 549.948,77.523 L549.948,77.523 L547.713,76.212 L547.465,75.993 C544.628,73.581 541.696,71.376 538.676,69.386 L538.676,69.386 C538.097,68.998 537.512,68.626 536.928,68.254 L536.928,68.254 C536.827,68.191 536.726,68.126 536.624,68.064 L536.624,68.064 C526.294,61.572 515.067,57.785 502.608,57.785 L502.608,57.785 C498.784,57.785 494.846,58.142 490.781,58.886 M490.33,166.229 C473.437,161.61 462.595,146.983 462.663673,127.275 L462.663673,127.275 C462.696,118.006 464.909,110.037 468.962,103.703 L468.962,103.703 C468.994,103.654 469.03,103.61 469.062,103.561 L469.062,103.561 C469.645,102.659 470.274,101.797 470.932,100.964 L470.932,100.964 C471.424,100.347 471.953,99.762 472.484,99.182 L472.484,99.182 C472.753,98.886 473.009,98.575 473.289,98.29 L473.289,98.29 C473.854,97.713 474.458,97.178 475.061,96.642 L475.061,96.642 C475.412,96.332 475.748,96.005 476.113,95.71 L476.113,95.71 C476.492,95.396 476.902,95.118 477.295,94.822 L477.295,94.822 C483.976,89.87 492.694,87.166 503.028,87.25 L503.028,87.25 C505.813,87.273 508.478,87.536 511.034,87.987 L511.034,87.987 C529.711,91.693 542.04,106.78 542.102251,127.457 L542.102251,127.457 C542.175,151.295 526.344,167.425 502.687,167.619 L502.687,167.619 C502.532,167.62 502.376,167.621 502.221,167.621 L502.221,167.621 C497.97,167.621 494.003,167.133 490.33,166.229" id="Clip-10" fill="url(#linearGradient-2)"></path>
                <path d="M490.781,58.886 C489.944,59.039 489.119,59.215 488.296,59.392 L488.296,59.392 C472.083,62.494 458.536,70.848 447.662,84.196 L447.662,84.196 C427.603,108.823 427.747,146.639 447.841,171.117 L447.841,171.117 C458.927,184.623 473.266,192.84 490.44,195.983 L490.44,195.983 C500.841,197.888 510.413,197.235 519.332,194.591 L519.332,194.591 C519.373,194.58 519.412,194.566 519.453,194.556 L519.453,194.556 C520.051,194.377 520.653,194.207 521.245,194.011 L521.245,194.011 C530.934,191.007 539.724,185.747 547.807,178.876 L547.807,178.876 L551.313,175.793 C552.337,175.09 553.638,176.181 553.125,177.313 L553.125,177.313 L547.665,184.252 C547.165,184.936 546.555,185.782 546.163,186.347 L546.163,186.347 L545.125,187.805 C542.42,191.61 543.709,194.32 546.175,194.555 L546.175,194.555 C546.427,194.578 549.904,194.554 550.165,194.554 L550.165,194.554 L572.175,194.554 C574.79,194.554 576.91,192.433 576.91,189.818 L576.91,189.818 L576.516,159.162 L576.569,65.051 C576.569,62.436 574.449,60.316 571.834,60.316 L571.834,60.316 L549.823,60.316 C549.562,60.316 547.251,60.291 547,60.316 L547,60.316 C544.534,60.549 542.079,63.261 544.784,67.064 L544.784,67.064 L545.822,68.523 C546.214,69.088 546.825,69.934 547.324,70.619 L547.324,70.619 L552.045,76.618 C551.845,77.477 550.839,78.046 549.948,77.523 L549.948,77.523 L547.713,76.212 L547.465,75.993 C544.628,73.581 541.696,71.376 538.676,69.386 L538.676,69.386 C538.097,68.998 537.512,68.626 536.928,68.254 L536.928,68.254 C536.827,68.191 536.726,68.126 536.624,68.064 L536.624,68.064 C526.294,61.572 515.067,57.785 502.608,57.785 L502.608,57.785 C498.784,57.785 494.846,58.142 490.781,58.886 M490.33,166.229 C473.437,161.61 462.595,146.983 462.663673,127.275 L462.663673,127.275 C462.696,118.006 464.909,110.037 468.962,103.703 L468.962,103.703 C468.994,103.654 469.03,103.61 469.062,103.561 L469.062,103.561 C469.645,102.659 470.274,101.797 470.932,100.964 L470.932,100.964 C471.424,100.347 471.953,99.762 472.484,99.182 L472.484,99.182 C472.753,98.886 473.009,98.575 473.289,98.29 L473.289,98.29 C473.854,97.713 474.458,97.178 475.061,96.642 L475.061,96.642 C475.412,96.332 475.748,96.005 476.113,95.71 L476.113,95.71 C476.492,95.396 476.902,95.118 477.295,94.822 L477.295,94.822 C483.976,89.87 492.694,87.166 503.028,87.25 L503.028,87.25 C505.813,87.273 508.478,87.536 511.034,87.987 L511.034,87.987 C529.711,91.693 542.04,106.78 542.102251,127.457 L542.102251,127.457 C542.175,151.295 526.344,167.425 502.687,167.619 L502.687,167.619 C502.532,167.62 502.376,167.621 502.221,167.621 L502.221,167.621 C497.97,167.621 494.003,167.133 490.33,166.229" id="Fill-9" fill="url(#linearGradient-2)"></path>
                <path d="M181.74,58.886 C180.903,59.039 180.078,59.215 179.256,59.392 L179.256,59.392 C163.043,62.494 149.494,70.848 138.622,84.196 L138.622,84.196 C118.563,108.823 118.707,146.639 138.8,171.117 L138.8,171.117 C149.886,184.623 164.226,192.84 181.399,195.983 L181.399,195.983 C191.801,197.888 201.372,197.235 210.292,194.591 L210.292,194.591 C210.332,194.58 210.371,194.566 210.412,194.556 L210.412,194.556 C211.01,194.377 211.612,194.207 212.205,194.011 L212.205,194.011 C221.894,191.007 230.684,185.747 238.766,178.876 L238.766,178.876 L242.273,175.793 C243.297,175.09 244.598,176.181 244.084,177.313 L244.084,177.313 L238.625,184.252 C238.125,184.936 237.514,185.782 237.123,186.347 L237.123,186.347 L236.084,187.805 C233.379,191.61 234.669,194.32 237.135,194.555 L237.135,194.555 C237.387,194.578 240.863,194.554 241.124,194.554 L241.124,194.554 L263.135,194.554 C265.749,194.554 267.87,192.433 267.87,189.818 L267.87,189.818 L267.475,159.162 L267.529,65.051 C267.529,62.436 265.408,60.316 262.794,60.316 L262.794,60.316 L240.783,60.316 C240.521,60.316 238.211,60.291 237.96,60.316 L237.96,60.316 C235.494,60.549 233.038,63.261 235.743,67.064 L235.743,67.064 L236.782,68.523 C237.173,69.088 237.785,69.934 238.283,70.619 L238.283,70.619 L243.005,76.618 C242.804,77.477 241.798,78.046 240.908,77.523 L240.908,77.523 L238.673,76.212 L238.425,75.993 C235.587,73.581 232.655,71.376 229.636,69.386 L229.636,69.386 C229.057,68.998 228.472,68.626 227.887,68.254 L227.887,68.254 C227.785,68.191 227.686,68.126 227.584,68.064 L227.584,68.064 C217.254,61.572 206.027,57.785 193.567,57.785 L193.567,57.785 C189.744,57.785 185.805,58.142 181.74,58.886 M181.29,166.229 C164.397,161.61 153.555,146.983 153.622682,127.275 L153.622682,127.275 C153.656,118.006 155.869,110.037 159.922,103.703 L159.922,103.703 C159.953,103.654 159.989,103.61 160.021,103.561 L160.021,103.561 C160.605,102.659 161.234,101.797 161.891,100.964 L161.891,100.964 C162.384,100.347 162.912,99.762 163.444,99.182 L163.444,99.182 C163.713,98.886 163.969,98.575 164.249,98.29 L164.249,98.29 C164.814,97.713 165.418,97.178 166.02,96.642 L166.02,96.642 C166.372,96.332 166.708,96.005 167.072,95.71 L167.072,95.71 C167.452,95.396 167.862,95.118 168.255,94.822 L168.255,94.822 C174.936,89.87 183.654,87.166 193.988,87.25 L193.988,87.25 C196.772,87.273 199.438,87.536 201.993,87.987 L201.993,87.987 C220.671,91.693 233,106.78 233.062251,127.457 L233.062251,127.457 C233.135,151.295 217.304,167.425 193.647,167.619 L193.647,167.619 C193.491,167.62 193.336,167.621 193.181,167.621 L193.181,167.621 C188.93,167.621 184.963,167.133 181.29,166.229" id="Clip-12" fill="url(#linearGradient-3)"></path>
                <path d="M181.74,58.886 C180.903,59.039 180.078,59.215 179.256,59.392 L179.256,59.392 C163.043,62.494 149.494,70.848 138.622,84.196 L138.622,84.196 C118.563,108.823 118.707,146.639 138.8,171.117 L138.8,171.117 C149.886,184.623 164.226,192.84 181.399,195.983 L181.399,195.983 C191.801,197.888 201.372,197.235 210.292,194.591 L210.292,194.591 C210.332,194.58 210.371,194.566 210.412,194.556 L210.412,194.556 C211.01,194.377 211.612,194.207 212.205,194.011 L212.205,194.011 C221.894,191.007 230.684,185.747 238.766,178.876 L238.766,178.876 L242.273,175.793 C243.297,175.09 244.598,176.181 244.084,177.313 L244.084,177.313 L238.625,184.252 C238.125,184.936 237.514,185.782 237.123,186.347 L237.123,186.347 L236.084,187.805 C233.379,191.61 234.669,194.32 237.135,194.555 L237.135,194.555 C237.387,194.578 240.863,194.554 241.124,194.554 L241.124,194.554 L263.135,194.554 C265.749,194.554 267.87,192.433 267.87,189.818 L267.87,189.818 L267.475,159.162 L267.529,65.051 C267.529,62.436 265.408,60.316 262.794,60.316 L262.794,60.316 L240.783,60.316 C240.521,60.316 238.211,60.291 237.96,60.316 L237.96,60.316 C235.494,60.549 233.038,63.261 235.743,67.064 L235.743,67.064 L236.782,68.523 C237.173,69.088 237.785,69.934 238.283,70.619 L238.283,70.619 L243.005,76.618 C242.804,77.477 241.798,78.046 240.908,77.523 L240.908,77.523 L238.673,76.212 L238.425,75.993 C235.587,73.581 232.655,71.376 229.636,69.386 L229.636,69.386 C229.057,68.998 228.472,68.626 227.887,68.254 L227.887,68.254 C227.785,68.191 227.686,68.126 227.584,68.064 L227.584,68.064 C217.254,61.572 206.027,57.785 193.567,57.785 L193.567,57.785 C189.744,57.785 185.805,58.142 181.74,58.886 M181.29,166.229 C164.397,161.61 153.555,146.983 153.622682,127.275 L153.622682,127.275 C153.656,118.006 155.869,110.037 159.922,103.703 L159.922,103.703 C159.953,103.654 159.989,103.61 160.021,103.561 L160.021,103.561 C160.605,102.659 161.234,101.797 161.891,100.964 L161.891,100.964 C162.384,100.347 162.912,99.762 163.444,99.182 L163.444,99.182 C163.713,98.886 163.969,98.575 164.249,98.29 L164.249,98.29 C164.814,97.713 165.418,97.178 166.02,96.642 L166.02,96.642 C166.372,96.332 166.708,96.005 167.072,95.71 L167.072,95.71 C167.452,95.396 167.862,95.118 168.255,94.822 L168.255,94.822 C174.936,89.87 183.654,87.166 193.988,87.25 L193.988,87.25 C196.772,87.273 199.438,87.536 201.993,87.987 L201.993,87.987 C220.671,91.693 233,106.78 233.062251,127.457 L233.062251,127.457 C233.135,151.295 217.304,167.425 193.647,167.619 L193.647,167.619 C193.491,167.62 193.336,167.621 193.181,167.621 L193.181,167.621 C188.93,167.621 184.963,167.133 181.29,166.229" id="Fill-11" fill="url(#linearGradient-3)"></path>
                <path d="M6.826,0 C3.055,0 0,2.938 0,6.563 L0,6.563 L0,28.171 C0,31.796 3.055,34.734 6.826,34.734 L6.826,34.734 L50.485,34.734 C53.705,34.311 58.052,30.337 58.88,29.49 L58.88,29.49 C59.781,28.569 60.03,28.514 60.164,28.661 L60.164,28.661 C60.298,28.809 59.896,29.914 59.896,29.914 L59.896,29.914 C58.549,33.339 56.765,38.948 55.697,42.399 L55.697,42.399 C55.102,44.327 54.798,46.327 54.798,48.344 L54.798,48.344 L54.798,188.554 C54.798,192.179 57.854,195.116 61.624,195.116 L61.624,195.116 L88.309,195.116 C92.079,195.116 95.135,192.179 95.135,188.554 L95.135,188.554 L95.135,48.264 C95.135,46.228 94.83,44.213 94.227,42.268 L94.227,42.268 C93.156,38.808 91.4,33.295 90.07,29.914 L90.07,29.914 C90.07,29.914 89.667,28.809 89.802,28.661 L89.802,28.661 C89.936,28.514 90.185,28.569 91.086,29.49 L91.086,29.49 C91.913,30.337 96.26,34.311 99.482,34.734 L99.482,34.734 L143.106,34.734 C146.877,34.734 149.933,31.796 149.933,28.171 L149.933,28.171 L149.933,6.563 C149.933,2.938 146.877,0 143.106,0 L143.106,0 L6.826,0 Z" id="Clip-14" fill="url(#linearGradient-4)"></path>
                <path d="M6.826,0 C3.055,0 0,2.938 0,6.563 L0,6.563 L0,28.171 C0,31.796 3.055,34.734 6.826,34.734 L6.826,34.734 L50.485,34.734 C53.705,34.311 58.052,30.337 58.88,29.49 L58.88,29.49 C59.781,28.569 60.03,28.514 60.164,28.661 L60.164,28.661 C60.298,28.809 59.896,29.914 59.896,29.914 L59.896,29.914 C58.549,33.339 56.765,38.948 55.697,42.399 L55.697,42.399 C55.102,44.327 54.798,46.327 54.798,48.344 L54.798,48.344 L54.798,188.554 C54.798,192.179 57.854,195.116 61.624,195.116 L61.624,195.116 L88.309,195.116 C92.079,195.116 95.135,192.179 95.135,188.554 L95.135,188.554 L95.135,48.264 C95.135,46.228 94.83,44.213 94.227,42.268 L94.227,42.268 C93.156,38.808 91.4,33.295 90.07,29.914 L90.07,29.914 C90.07,29.914 89.667,28.809 89.802,28.661 L89.802,28.661 C89.936,28.514 90.185,28.569 91.086,29.49 L91.086,29.49 C91.913,30.337 96.26,34.311 99.482,34.734 L99.482,34.734 L143.106,34.734 C146.877,34.734 149.933,31.796 149.933,28.171 L149.933,28.171 L149.933,6.563 C149.933,2.938 146.877,0 143.106,0 L143.106,0 L6.826,0 Z" id="Fill-13" fill="url(#linearGradient-4)"></path>
            </g>
        </g>
    </g>
</svg>