<svg xmlns="http://www.w3.org/2000/svg" width="24" height="24" viewBox="0 0 24 24">
  <g id="泰国" transform="translate(737.25 -1648)">
    <path id="路径_105" data-name="路径 105" d="M-722.524,1995a11.988,11.988,0,0,0,2.171,3.778h18.3a11.989,11.989,0,0,0,2.171-3.778Z" transform="translate(-14.048 -331.015)" fill="#f0f0f0"/>
    <path id="路径_106" data-name="路径 106" d="M-702.645,1742H-721.1a11.981,11.981,0,0,0-2.125,3.777h22.708A11.98,11.98,0,0,0-702.645,1742Z" transform="translate(-13.376 -89.67)" fill="#f0f0f0"/>
    <path id="路径_107" data-name="路径 107" d="M-667.861,1648a11.975,11.975,0,0,0-9.229,4.33h18.457A11.975,11.975,0,0,0-667.861,1648Z" transform="translate(-57.389)" fill="#d80027"/>
    <path id="路径_108" data-name="路径 108" d="M-666.248,2081.238A11.974,11.974,0,0,0-657.1,2077h-18.3A11.973,11.973,0,0,0-666.248,2081.238Z" transform="translate(-59.002 -409.238)" fill="#d80027"/>
    <path id="路径_109" data-name="路径 109" d="M-713.25,1827.893A11.982,11.982,0,0,0-713.9,1824H-736.6a11.984,11.984,0,0,0-.646,3.893,11.981,11.981,0,0,0,.678,3.985h22.643A11.98,11.98,0,0,0-713.25,1827.893Z" transform="translate(0 -167.893)" fill="#0052b4"/>
  </g>
</svg>
