<svg id="Cryptocurrency" xmlns="http://www.w3.org/2000/svg" width="40" height="40" viewBox="0 0 40 40">
  <rect id="Cryptocurrency-2" data-name="Cryptocurrency" width="40" height="40" fill="none"/>
  <path id="Oval" d="M20,40A20,20,0,1,0,0,20,20,20,0,0,0,20,40Z" fill="#459cec"/>
  <path id="Shape" d="M18.987,29.231h-.043a.457.457,0,0,1-.41-.3c-.658-1.858-1.326-3.742-1.985-5.6l-.013-.037-.71-2-.733-2.067,0-.006c-.913-2.572-1.857-5.232-2.774-7.841l-.009-.031v-.2l.013-.035a.648.648,0,0,1,.146-.233l.05-.043a.379.379,0,0,1,.158-.06.9.9,0,0,1,.113-.007,1.623,1.623,0,0,1,.449.08l.145.039,2.685.663.077.019.02,0,2.742.677,1.231.3.036.009c1.617.4,3.288.812,4.926,1.214l.008,0a1.033,1.033,0,0,1,.3.173.6.6,0,0,1,.056.04c.61.438,1.23.877,1.829,1.3l.469.333a.631.631,0,0,1,.23.627v.051l-.03.043c-.573.834-1.142,1.677-1.691,2.493l-.57.844L25.7,19.7l-.435.645q-.655.967-1.31,1.937l-.013.02L22.792,24l-3.378,5A.48.48,0,0,1,18.987,29.231ZM13.511,12.607h0c.033.093.068.192.1.29l.063.176q1.154,3.257,2.307,6.508l.015.041q1.008,2.844,2.017,5.689l.456,1.284c.064.189.127.368.188.533l.024.065c.015.041.031.083.045.125.015-.147.03-.295.044-.438.022-.216.043-.432.066-.644l.035-.338c.078-.746.158-1.516.225-2.274l0-.03h0l0-.014c.01-.091.069-.608.1-.847.005-.047.011-.095.016-.143v-.008c.016-.14.033-.285.042-.429.034-.305.063-.607.092-.9l0-.019c.018-.167.036-.336.053-.507.028-.269.057-.548.088-.822-.122-.137-.238-.28-.349-.419l-.006-.007-.093-.115c-.1-.13-.223-.278-.341-.415-.378-.464-.759-.929-1.128-1.379l-.625-.762C15.938,15.577,14.813,14.2,13.511,12.607Zm12.969,4.26q-1.534.815-3,1.588c-.835.438-1.679.886-2.494,1.319l-.466.247a1.21,1.21,0,0,1-.139.071l-.053.024a1.21,1.21,0,0,0-.154.074c-.026.394-.071.791-.111,1.142l-.013.1c-.046.519-.1,1.049-.155,1.562l-.02.195c-.018.174-.037.352-.055.531s-.04.382-.06.572c-.03.33-.066.668-.1.995V25.3q-.02.188-.039.374c-.06.546-.11,1.068-.149,1.553.348-.525.711-1.059,1.032-1.531.134-.2.272-.4.411-.608.174-.256.348-.514.519-.768.547-.8,1.1-1.622,1.635-2.413l.016-.024.678-1C24.595,19.646,25.509,18.3,26.481,16.867ZM13.992,12.052l.083.1,0,0c.051.062.1.124.152.188l.1.125c.085.107.173.218.262.321l0,0,1.642,2c1.355,1.653,2.552,3.118,3.659,4.481.572-.619,1.2-1.3,1.868-2.038l.494-.538c.64-.7,1.3-1.42,1.959-2.13l-7.426-1.83c-.458-.117-.923-.23-1.319-.325C14.923,12.288,14.459,12.175,13.992,12.052Zm10.979,2.786h0c-.035.041-.071.078-.107.113l-.038.038a1.973,1.973,0,0,0-.184.2l-.013.013-.051.056-.009.01c-.582.631-1.183,1.284-1.757,1.911l-.712.774-.712.774c.506-.266,1.014-.536,1.505-.8l.01-.005.9-.479c.833-.444,1.816-.966,2.785-1.466-.263-.183-.479-.336-.679-.481-.272-.2-.58-.413-.942-.666Z" fill="#fff"/>
</svg>
