<svg xmlns="http://www.w3.org/2000/svg" width="16" height="16" viewBox="0 0 16 16">
  <g id="快速游戏" transform="translate(-706 -557)">
    <g id="组_732" data-name="组 732" transform="translate(619.354 451.66)">
      <path id="联合_17" data-name="联合 17" d="M.556,14.306A.557.557,0,0,1,0,13.75V12.361a.557.557,0,0,1,.556-.556H2.778V10.278a.557.557,0,0,1,.556-.556H6.25V7.857a4.028,4.028,0,1,1,2.5,0V9.722h2.917a.557.557,0,0,1,.556.556v1.528h2.222a.557.557,0,0,1,.556.556V13.75a.557.557,0,0,1-.556.556ZM7.5,6.944A2.917,2.917,0,1,0,4.583,4.028,2.916,2.916,0,0,0,7.5,6.944Zm6.139.375a.573.573,0,0,1-.292-.736,6.451,6.451,0,0,0,0-5.111.56.56,0,1,1,1.028-.444,7.4,7.4,0,0,1,.625,3,7.4,7.4,0,0,1-.625,3,.56.56,0,0,1-.514.333A.63.63,0,0,1,13.639,7.319ZM.625,7.028a7.4,7.4,0,0,1-.625-3,7.4,7.4,0,0,1,.625-3A.573.573,0,0,1,1.361.736a.573.573,0,0,1,.292.736,6.451,6.451,0,0,0,0,5.111.554.554,0,0,1-.292.736.691.691,0,0,1-.222.042A.575.575,0,0,1,.625,7.028Zm11.75-1.069a.558.558,0,0,1-.389-.681,4.667,4.667,0,0,0,0-2.472.554.554,0,1,1,1.069-.292,5.807,5.807,0,0,1,0,3.083.592.592,0,0,1-.681.361ZM1.931,5.569a5.809,5.809,0,0,1,0-3.083A.554.554,0,0,1,3,2.778,4.667,4.667,0,0,0,3,5.25a.558.558,0,0,1-.389.681c-.028.042-.083.042-.139.042A.567.567,0,0,1,1.931,5.569ZM5.417,2.986A1.042,1.042,0,1,1,6.458,4.028,1.042,1.042,0,0,1,5.417,2.986Z" transform="translate(86.646 106.34)" />
    </g>
    <rect id="矩形_225" data-name="矩形 225" width="16" height="16" transform="translate(706 557)" fill="none"/>
  </g>
</svg>
