<svg id="Cryptocurrency" xmlns="http://www.w3.org/2000/svg" width="40" height="40" viewBox="0 0 40 40">
  <rect id="Cryptocurrency-2" data-name="Cryptocurrency" width="40" height="40" fill="none"/>
  <path id="Shape" d="M39.789,19.895A19.895,19.895,0,1,1,19.895,0,19.895,19.895,0,0,1,39.789,19.895Z" transform="translate(0.102 0.106)" fill="#3cc8c8"/>
  <g id="cardano">
    <path id="Shape-2" data-name="Shape" d="M20.7,30.769a.638.638,0,0,1-.511-.291.594.594,0,0,1-.078-.55.634.634,0,0,1,.623-.467.581.581,0,0,1,.311.087c.22.094.285.338.342.554l0,.006c-.03.109-.056.216-.085.334a.745.745,0,0,1-.53.323h-.013A.527.527,0,0,1,20.7,30.769Zm-5.411-.59a.6.6,0,0,1-.549-.56c.076-.231.251-.478.516-.478a.457.457,0,0,1,.1.011.469.469,0,0,1,.416.4.492.492,0,0,1-.223.547A.454.454,0,0,1,15.287,30.179Zm11-.035a.465.465,0,0,1-.416-.23.482.482,0,0,1-.043-.459.634.634,0,0,1,.443-.367c.31.064.594.3.535.619A.5.5,0,0,1,26.289,30.144Zm-9.553-2.229a.674.674,0,0,1-.1-.008c-.434-.01-.647-.459-.719-.652A.885.885,0,0,1,16.4,26.4a.643.643,0,0,1,.305-.075.82.82,0,0,1,.588.269.714.714,0,0,1,.2.543.735.735,0,0,1-.216.536A.767.767,0,0,1,16.736,27.915Zm8.089-.014a.672.672,0,0,1-.447-.164.8.8,0,0,1,.092-1.326.67.67,0,0,1,.36-.1.838.838,0,0,1,.6.272.726.726,0,0,1,.2.553.71.71,0,0,1-.21.512A.853.853,0,0,1,24.826,27.9Zm-4.134-.634a.783.783,0,0,1-.477-.157.884.884,0,0,1-.4-.882.871.871,0,0,1,.574-.764.782.782,0,0,1,.32-.067.963.963,0,0,1,.694.315.829.829,0,0,1,.228.634.817.817,0,0,1-.231.611A.989.989,0,0,1,20.692,27.268Zm-8.6-1.538a.583.583,0,0,1-.334-.1.661.661,0,0,1,.029-1.114.546.546,0,0,1,.309-.094.686.686,0,0,1,.518.254.6.6,0,0,1,.136.5A.659.659,0,0,1,12.092,25.73Zm17.364-.037a.621.621,0,0,1-.6-.39.6.6,0,0,1,.033-.592.634.634,0,0,1,.529-.323.531.531,0,0,1,.088.007h.007a.755.755,0,0,1,.511.309l.025.026.006.046a.771.771,0,0,1-.131.7A.589.589,0,0,1,29.457,25.692Zm-10.493-.9a1.327,1.327,0,0,1-.307-.036,1.572,1.572,0,0,1-1.273-1.565A1.6,1.6,0,0,1,18.6,21.67a1.362,1.362,0,0,1,.346-.045,1.594,1.594,0,0,1,1.563,1.53,1.523,1.523,0,0,1-.427,1.125A1.553,1.553,0,0,1,18.964,24.789Zm3.655-.008a1.335,1.335,0,0,1-.266-.027,1.575,1.575,0,0,1-1.262-1.922,1.574,1.574,0,0,1,1.141-1.163,1.368,1.368,0,0,1,.373-.051,1.584,1.584,0,0,1,1.114.484,1.488,1.488,0,0,1,.446,1.067,1.517,1.517,0,0,1-.431,1.111A1.558,1.558,0,0,1,22.618,24.78ZM15.333,24.1a.849.849,0,0,1-.679-.317.883.883,0,0,1-.163-.924.9.9,0,0,1,.735-.609.785.785,0,0,1,.132-.011.937.937,0,0,1,.76.435.851.851,0,0,1,.095.811A.9.9,0,0,1,15.333,24.1Zm10.843-.016a.793.793,0,0,1-.467-.149.941.941,0,0,1,.174-1.655.792.792,0,0,1,.311-.063.96.96,0,0,1,.686.309.851.851,0,0,1,.238.642.84.84,0,0,1-.245.613A.991.991,0,0,1,26.176,24.089Zm-9.045-2.51a1.535,1.535,0,0,1-1.43-.893,1.5,1.5,0,0,1-.009-1.321,1.544,1.544,0,0,1,1.012-.876,1.47,1.47,0,0,1,.393-.053,1.562,1.562,0,0,1,1.375.809,1.594,1.594,0,0,1-.347,1.958A1.44,1.44,0,0,1,17.131,21.578Zm7.316-.012a1.544,1.544,0,0,1-1.391-.822A1.518,1.518,0,0,1,22.99,19.4a1.536,1.536,0,0,1,.985-.915,1.574,1.574,0,0,1,.438-.061A1.577,1.577,0,0,1,25.3,21.3,1.454,1.454,0,0,1,24.446,21.566Zm-11.825-.754a.7.7,0,0,1-.507-.205.8.8,0,0,1,.274-1.339.673.673,0,0,1,.241-.045.819.819,0,0,1,.661.372.718.718,0,0,1,.086.678A.776.776,0,0,1,12.621,20.812Zm16.261-.035a.7.7,0,0,1-.344-.088,1.076,1.076,0,0,1-.441-.58.89.89,0,0,1,.827-.941.838.838,0,0,1,.751.823.7.7,0,0,1-.194.523A.839.839,0,0,1,28.883,20.778ZM9.724,20.541a.45.45,0,0,1-.389-.2.48.48,0,0,1-.091-.416.542.542,0,0,1,.295-.371.477.477,0,0,1,.193-.04.535.535,0,0,1,.41.2.458.458,0,0,1,.1.387A.5.5,0,0,1,9.724,20.541Zm22.107-.056a.4.4,0,0,1-.06,0l-.042,0a.441.441,0,0,1-.418-.364.5.5,0,0,1,.214-.574.444.444,0,0,1,.262-.081.5.5,0,0,1,.475.321.464.464,0,0,1-.031.456A.482.482,0,0,1,31.831,20.485Zm-12.883-2.1A1.567,1.567,0,0,1,17.461,16.3a1.522,1.522,0,0,1,1.458-1.057,1.565,1.565,0,0,1,1.505,2.02,1.541,1.541,0,0,1-.754.936A1.451,1.451,0,0,1,18.948,18.382Zm3.669-.007a1.555,1.555,0,0,1-1.485-1.024,1.582,1.582,0,0,1,.965-2.046,1.414,1.414,0,0,1,.483-.084,1.591,1.591,0,0,1,1.319.719,1.543,1.543,0,0,1,.2,1.234,1.526,1.526,0,0,1-.735.994A1.425,1.425,0,0,1,22.617,18.376Zm-7.316-.6a.88.88,0,0,1-.673-.334.893.893,0,0,1-.2-.736.98.98,0,0,1,.939-.809,1.035,1.035,0,0,1,.913.923.984.984,0,0,1-.9.954Zm10.863-.019a.8.8,0,0,1-.471-.151A.94.94,0,0,1,25.762,16a.79.79,0,0,1,.405-.109.981.981,0,0,1,.69.3.855.855,0,0,1,.249.627.843.843,0,0,1-.239.629A.99.99,0,0,1,26.164,17.761ZM12.073,15.617a.592.592,0,0,1-.388-.136.635.635,0,0,1-.235-.579.616.616,0,0,1,.339-.512.538.538,0,0,1,.287-.082.687.687,0,0,1,.543.3.589.589,0,0,1,.089.538A.641.641,0,0,1,12.073,15.617Zm17.344-.031a.533.533,0,0,1-.28-.077.657.657,0,0,1-.071-1.121.549.549,0,0,1,.343-.116.7.7,0,0,1,.506.228.569.569,0,0,1,.153.439.577.577,0,0,1-.165.43A.683.683,0,0,1,29.417,15.587ZM20.781,14.6c-.075,0-.151-.006-.225-.012l-.1-.008a1.01,1.01,0,0,1-.616-.931.979.979,0,0,1,.934-.924,1,1,0,0,1,.8.526.881.881,0,0,1,.058.708.922.922,0,0,1-.489.561A.709.709,0,0,1,20.781,14.6Zm4.082-.9a.852.852,0,0,1-.711-.41.782.782,0,1,1,1.365-.762.718.718,0,0,1,.039.622.926.926,0,0,1-.555.537A.752.752,0,0,1,24.862,13.694Zm-8.2,0a.68.68,0,0,1-.466-.176.754.754,0,0,1-.287-.677.763.763,0,0,1,.4-.629.662.662,0,0,1,.362-.105.835.835,0,0,1,.615.289.722.722,0,0,1,.184.575A.8.8,0,0,1,16.663,13.692Zm-1.435-2.8a.43.43,0,0,1-.212-.054.476.476,0,0,1-.285-.487.488.488,0,0,1,.344-.465.41.41,0,0,1,.158-.031.526.526,0,0,1,.379.175.452.452,0,0,1,.124.347.443.443,0,0,1-.121.34A.537.537,0,0,1,15.228,10.89Zm11.049-.028a.481.481,0,0,1-.121-.016.512.512,0,0,1-.094-.969.451.451,0,0,1,.2-.049.615.615,0,0,1,.535.545A.59.59,0,0,1,26.277,10.862Zm-5.542-.32a.6.6,0,0,1-.444-.182.642.642,0,0,1-.174-.592.625.625,0,0,1,.369-.474.543.543,0,0,1,.255-.064.686.686,0,0,1,.566.34.581.581,0,0,1,.029.581A.632.632,0,0,1,20.735,10.542Z" fill="#fff"/>
  </g>
</svg>
