<svg id="Cryptocurrency" xmlns="http://www.w3.org/2000/svg" width="40" height="40" viewBox="0 0 40 40">
  <rect id="Cryptocurrency-2" data-name="Cryptocurrency" width="40" height="40" fill="none"/>
  <path id="Shape" d="M39.789,19.895A19.895,19.895,0,1,1,19.895,0,19.895,19.895,0,0,1,39.789,19.895Z" transform="translate(0.102 0.106)" fill="#f6d43d"/>
  <g id="euro-currency-symbol">
    <path id="Shape-2" data-name="Shape" d="M13.256,17.544,12.8,15.459a.4.4,0,0,0-.2-.275.391.391,0,0,0-.341-.026l-.066.026-.158.039-.243.059q-.138.033-.321.066c-.122.022-.251.042-.387.059s-.282.033-.439.046-.315.02-.472.02a5.278,5.278,0,0,1-4.956-3.33h5.074A.424.424,0,0,0,10.7,11.8l.315-1.469a.426.426,0,0,0-.078-.354.41.41,0,0,0-.328-.158H4.589a11.794,11.794,0,0,1,0-1.377h6.4a.383.383,0,0,0,.42-.341l.315-1.495a.43.43,0,0,0-.419-.5H5.166A5.18,5.18,0,0,1,7.133,3.8,5.378,5.378,0,0,1,10.1,2.963a1.169,1.169,0,0,1,.387.013,2.988,2.988,0,0,0,.38.033,2.194,2.194,0,0,1,.341.039l.3.046.229.046c.066.013.116.024.151.033l.052.013a.375.375,0,0,0,.315-.033A.385.385,0,0,0,12.43,2.9L12.994.813A.435.435,0,0,0,12.955.5a.5.5,0,0,0-.262-.2A10.456,10.456,0,0,0,10.148,0,8.722,8.722,0,0,0,4.9,1.678,8.542,8.542,0,0,0,1.7,6.11H.42A.4.4,0,0,0,0,6.53V8.024a.4.4,0,0,0,.42.419H1.3q-.04.63-.013,1.377H.42a.4.4,0,0,0-.295.124A.4.4,0,0,0,0,10.24v1.482a.4.4,0,0,0,.125.3.4.4,0,0,0,.295.124H1.665A8.467,8.467,0,0,0,4.786,16.75a8.722,8.722,0,0,0,5.363,1.711c.166,0,.334,0,.5-.013s.33-.022.479-.039.3-.037.439-.059.275-.043.393-.066.229-.043.334-.065.2-.046.282-.072.153-.046.21-.059a.646.646,0,0,0,.137-.046l.066-.013a.412.412,0,0,0,.223-.19A.384.384,0,0,0,13.256,17.544Z" transform="translate(12.332 10.769)" fill="#fff"/>
  </g>
</svg>
