<svg xmlns="http://www.w3.org/2000/svg" width="16" height="16" viewBox="0 0 16 16">
  <g id="Upcoming" transform="translate(-86 -203)">
    <rect id="日历_6_1" data-name="日历 (6) 1" width="16" height="16" transform="translate(86 203)" fill="none"/>
    <path id="Vector" d="M9.8,0a.68.68,0,0,1,.465.186.75.75,0,0,1,.23.464l0,.086v.737h1.4a2.045,2.045,0,0,1,1.441.6A2.261,2.261,0,0,1,14,3.555l0,.13v8.105a2.271,2.271,0,0,1-.615,1.563A2.048,2.048,0,0,1,11.9,14H2.1a2.048,2.048,0,0,1-1.485-.647A2.271,2.271,0,0,1,0,11.789V3.684A2.271,2.271,0,0,1,.615,2.121,2.048,2.048,0,0,1,2.1,1.474H3.5V.737A.758.758,0,0,1,3.691.232.686.686,0,0,1,4.159,0a.678.678,0,0,1,.49.171A.749.749,0,0,1,4.9.651l0,.086v.737H9.1V.737A.757.757,0,0,1,9.305.216.683.683,0,0,1,9.8,0Zm2.8,6.632H1.4v5.158a.757.757,0,0,0,.205.521.683.683,0,0,0,.495.216h9.8a.683.683,0,0,0,.495-.216.757.757,0,0,0,.205-.521V6.632ZM9.1,8.842a.682.682,0,0,1,.48.2.754.754,0,0,1,.218.493.762.762,0,0,1-.162.516.691.691,0,0,1-.454.259l-.082.005H4.9a.682.682,0,0,1-.48-.2A.754.754,0,0,1,4.2,9.622a.762.762,0,0,1,.162-.516.691.691,0,0,1,.454-.259L4.9,8.842ZM3.5,2.947H2.1a.683.683,0,0,0-.495.216.757.757,0,0,0-.205.521V5.158H12.6V3.684a.757.757,0,0,0-.205-.521.683.683,0,0,0-.495-.216H10.5a.758.758,0,0,1-.191.505.686.686,0,0,1-.468.23.678.678,0,0,1-.49-.171A.749.749,0,0,1,9.1,3.034l0-.086H4.9a.758.758,0,0,1-.191.505.686.686,0,0,1-.468.23.678.678,0,0,1-.49-.171A.749.749,0,0,1,3.5,3.034Z" transform="translate(87 204)"/>
  </g>
</svg>
