<svg id="Cryptocurrency" xmlns="http://www.w3.org/2000/svg" width="40" height="40" viewBox="0 0 40 40">
  <rect id="Cryptocurrency-2" data-name="Cryptocurrency" width="40" height="40" fill="none"/>
  <path id="Oval" d="M20,40A20,20,0,1,0,0,20,20,20,0,0,0,20,40Z" fill="#83bd67" fill-rule="evenodd"/>
  <path id="Shape" d="M4.4,0H7.693C7.628.743,7.56,1.49,7.5,2.233A9.089,9.089,0,0,1,11.15,3.348q-.727,1.829-1.462,3.659A5.241,5.241,0,0,0,6.259,5.775a1.643,1.643,0,0,0-.892.246.79.79,0,0,0-.331.5A.709.709,0,0,0,5.1,7.01a.839.839,0,0,0,.456.319A4.888,4.888,0,0,0,6.7,7.507a11.286,11.286,0,0,1,2.633.582,4.08,4.08,0,0,1,1.728,1.175,3.566,3.566,0,0,1,.763,1.8,5.1,5.1,0,0,1-.157,2.274,4.459,4.459,0,0,1-.9,1.6,5.206,5.206,0,0,1-3.323,1.7c.04.8.089,1.587.133,2.383H4.458c.04-.787.093-1.575.129-2.362a7.671,7.671,0,0,1-2.443-.509A10.9,10.9,0,0,1,0,15.038q.739-1.9,1.482-3.808A9.773,9.773,0,0,0,3.3,12.478a5.151,5.151,0,0,0,2.274.6,3.173,3.173,0,0,0,1.119-.145.889.889,0,0,0,.529-.444.765.765,0,0,0-.061-.739,1.035,1.035,0,0,0-.424-.307,3.011,3.011,0,0,0-.674-.174,16.7,16.7,0,0,1-2.52-.517,5.145,5.145,0,0,1-1.825-.973,3.28,3.28,0,0,1-.8-1.034,4.2,4.2,0,0,1-.392-1.91,4.294,4.294,0,0,1,.513-2.116,4.073,4.073,0,0,1,1.337-1.4A8.576,8.576,0,0,1,4.5,2.35Z" transform="translate(13.846 10.769)" fill="#fff" fill-rule="evenodd"/>
</svg>
