<svg xmlns="http://www.w3.org/2000/svg" width="20" height="20" viewBox="0 0 20 20"><defs><style>.a{fill:none;}.b{fill:#d4e8e8;}</style></defs><g transform="translate(-927 -267)"><rect class="a" width="20" height="20" transform="translate(927 267)"/><path class="b" d="M169.094,216.119l-10.126,5.846-9.866-5.695v-.85a1.821,1.821,0,0,1,1.821-1.821h16.355a1.821,1.821,0,0,1,1.821,1.821v.7Zm0,2.1v9.921a1.821,1.821,0,0,1-1.821,1.821H150.921a1.821,1.821,0,0,1-1.821-1.821v-9.77l9.416,5.435a.907.907,0,0,0,.993-.055c.014-.006.025-.014.039-.019Z" transform="translate(777.9 55.4)"/></g></svg>