<svg xmlns="http://www.w3.org/2000/svg" width="20" height="20" viewBox="0 0 20 20">
  <g id="新闻" transform="translate(-1046 -155)">
    <rect id="矩形_77" data-name="矩形 77" width="20" height="20" transform="translate(1046 155)" fill="none"/>
    <g id="组_229" data-name="组 229" transform="translate(938.2 79.2)">
      <path id="联合_3" data-name="联合 3" d="M13.533,17.737H1.182A1.337,1.337,0,0,1,0,16.292V1.445A1.337,1.337,0,0,1,1.182,0h12.35c.526,0,1.051.657,1.182,1.577V16.292h.92V3.022h1.182A1.337,1.337,0,0,1,18,4.467V16.292a1.337,1.337,0,0,1-1.182,1.445ZM2.365,14.058H11.3V12.613H2.365Zm0-2.891H11.3V9.723H2.365Zm0-2.891H6.832V3.81H2.365Zm5.518-.131H11.3L11.168,6.7H7.883Zm0-2.891H11.3L11.168,3.81H7.883Z" transform="translate(108.8 76.8)" />
    </g>
  </g>
</svg>
