<svg xmlns="http://www.w3.org/2000/svg" width="20" height="20" viewBox="0 0 20 20">
  <g id="优惠" transform="translate(-873 -229)">
    <path id="路径_110" data-name="路径 110" d="M200.758,170.036c0,.034-.005.061,0,.1a1.864,1.864,0,0,0-1.334-1.508,3.391,3.391,0,0,0-5.631-3.421l-1.2,1.2s-.005-.005-.005-.008l-1.2-1.2a3.394,3.394,0,0,0-5.61,3.5,1.864,1.864,0,0,0-1.355,1.481.126.126,0,0,0,0-.032,39.826,39.826,0,0,0-.005,10.051v-.024a1.874,1.874,0,0,0,1.5,1.568,53.4,53.4,0,0,0,7,.455,54.054,54.054,0,0,0,6.241-.358,1.9,1.9,0,0,0,1.579-1.4,39.769,39.769,0,0,0,.016-10.409ZM188.352,168.2a.879.879,0,1,1,1.245-1.242l1.245,1.242a.482.482,0,0,1,.034.042c-.8.029-1.573.079-2.339.142Zm8.115,6.536-1.481,1.647.279,2.334a.55.55,0,0,1-.132.329.479.479,0,0,1-.613.076s0,.008.008.024l-1.937-.947-1.9.931s0-.01,0-.008a.479.479,0,0,1-.613-.076.531.531,0,0,1-.142-.424c0-.005,0,0-.005,0l.089-.755c.45-1.016,1.592-3.178,3.376-3.86a5.623,5.623,0,0,0-3.623,1.908l-1.018-1.137h0a.54.54,0,0,1-.089-.642.5.5,0,0,1,.353-.255c.008,0,.005-.005,0-.011l2.1-.421,1.024-1.934s0,0,0,0a.508.508,0,0,1,.326-.292.491.491,0,0,1,.568.258l1.042,1.971,2.1.421c-.005.005-.008.008,0,.008a.5.5,0,0,1,.353.255A.542.542,0,0,1,196.467,174.733Zm.374-6.533-.132.132c-.776-.053-1.568-.095-2.373-.113l.016-.018,1.247-1.245a.879.879,0,1,1,1.242,1.245Z" transform="translate(690.9 65.8)" />
    <rect id="矩形_75" data-name="矩形 75" width="20" height="20" transform="translate(873 229)" fill="none"/>
  </g>
</svg>
