<svg xmlns="http://www.w3.org/2000/svg" width="20" height="20" viewBox="0 0 20 20">
  <g id="VIP" transform="translate(-905 -171)">
    <rect id="矩形_79" data-name="矩形 79" width="20" height="20" transform="translate(905 171)" fill="none"/>
    <g id="组_232" data-name="组 232" transform="translate(842.096 46.099)">
      <path id="联合_4" data-name="联合 4" d="M3.951,15.459a.842.842,0,0,1-.819-.575.8.8,0,0,1,.3-.936,1.1,1.1,0,0,1,.554-.171c1.672-.008,3.342,0,5.01,0h5.041a.84.84,0,0,1,.19,1.664.751.751,0,0,1-.19.019Zm-.338-2.8c-.3,0-.4-.07-.478-.352-.51-1.739-1.012-3.483-1.522-5.221-.136-.47-.276-.94-.414-1.413a1.121,1.121,0,0,1-1.064-.6A3.473,3.473,0,0,1,0,4.746c0-.134,0-.261,0-.389l.058-.163A1.125,1.125,0,0,1,2.13,4.036a1.112,1.112,0,0,1-.151,1.235l-.109.123c.835.512,1.665,1.017,2.493,1.526.313.194.628.388.942.575a.262.262,0,0,0,.414-.1c.951-1.732,1.9-3.466,2.86-5.216A1.161,1.161,0,0,1,7.872,1.17,1.081,1.081,0,0,1,8.211.317,1.127,1.127,0,0,1,9.864.41c.474.581.3,1.261-.449,1.773.245.45.493.9.742,1.351Q11.193,5.42,12.225,7.3c.159.291.26.318.544.149q1.6-.977,3.2-1.962c.049-.031.1-.062.154-.1a1.164,1.164,0,0,1-.377-.777,1.126,1.126,0,0,1,2.2-.386c.012.043.031.089.047.132V4.75a1.168,1.168,0,0,1-1.2.924c-.022.066-.047.133-.066.2Q15.8,9.086,14.864,12.3c-.08.28-.18.352-.462.352Z" transform="translate(63.904 126.901)" />
    </g>
  </g>
</svg>
