<svg xmlns="http://www.w3.org/2000/svg" width="48" height="48" viewBox="0 0 48 48">
  <g id="VIP_介绍" transform="translate(-1043 -539)">
    <circle id="椭圆_9" data-name="椭圆 9" cx="24" cy="24" r="24" transform="translate(1043 539)" fill="#34b8d5" opacity="0.1"/>
    <g id="组_725" data-name="组 725" transform="translate(-85 7)">
      <rect id="矩形_135" data-name="矩形 135" width="30" height="30" transform="translate(1137 541)" fill="none"/>
      <g id="组_720" data-name="组 720" transform="translate(1138.484 541)">
        <path id="路径_121" data-name="路径 121" d="M398.377,319.3a6.677,6.677,0,1,0,6.677,6.677A6.685,6.685,0,0,0,398.377,319.3Zm0,10.784a4.107,4.107,0,1,1,4.092-4.107A4.107,4.107,0,0,1,398.377,330.084Z" transform="translate(-384.281 -314.456)" fill="#8bddef"/>
        <path id="路径_122" data-name="路径 122" d="M170.948,147.54a12.07,12.07,0,0,0-.606-16.319,11.875,11.875,0,0,0-16.879,0,12.074,12.074,0,0,0-.556,16.381l-5.007,5.027,3.482,1.259,1.259,3.486,6.081-6.08a12,12,0,0,0,6.44-.023l6.108,6.108,1.259-3.486,3.482-1.259Zm-17.581,6.6-.591-1.641-1.645-.595,3.038-3.05a11.705,11.705,0,0,0,2.726,1.76Zm-1.621-14.431A10.154,10.154,0,1,1,161.9,149.945,10.206,10.206,0,0,1,151.745,139.71Zm19.4,12.79-.591,1.641-3.56-3.56a11.926,11.926,0,0,0,2.706-1.78l3.089,3.1Z" transform="translate(-147.9 -127.7)" fill="#8bddef"/>
      </g>
    </g>
  </g>
</svg>
