<svg xmlns="http://www.w3.org/2000/svg" width="16" height="16" viewBox="0 0 16 16">
  <g id="我的_钱包" transform="translate(-229 -290)">
    <path id="路径_49" data-name="路径 49" d="M62.1,92.226a1.586,1.586,0,0,1-.107.586,1.454,1.454,0,0,1-.306.479,1.413,1.413,0,0,1-1.041.438H48.657a1.547,1.547,0,0,1-.595-.116,1.571,1.571,0,0,1-.5-.322,1.546,1.546,0,0,1-.339-.479,1.4,1.4,0,0,1-.124-.586V83.982a1.495,1.495,0,0,1,1.5-1.5H60.6a1.495,1.495,0,0,1,1.5,1.5v2.247h-3.75a1.465,1.465,0,0,0-1.066.43,1.423,1.423,0,0,0-.438,1.057,1.839,1.839,0,0,0,.182.76,1.4,1.4,0,0,0,.438.512,1.445,1.445,0,0,0,.884.231H62.1ZM59.857,81.719h-7.5q.892-.463,1.685-.892.694-.363,1.371-.727t1.057-.562a1.982,1.982,0,0,1,1.032-.289,2.31,2.31,0,0,1,.768.157,2.069,2.069,0,0,1,.628.479Zm-2.247,6a.743.743,0,1,1,1.487,0,.746.746,0,0,1-.215.537.738.738,0,0,1-1.057,0A.746.746,0,0,1,57.611,87.716Z" transform="translate(182.896 211.752)" />
    <rect id="矩形_52" data-name="矩形 52" width="16" height="16" transform="translate(229 290)" fill="none"/>
  </g>
</svg>
