<svg xmlns="http://www.w3.org/2000/svg" width="24" height="24" viewBox="0 0 24 24">
  <g id="中文" transform="translate(1262 -1464)">
    <path id="路径_94" data-name="路径 94" d="M-1250.656,1464h1.313c.091.016.181.036.273.047.333.039.669.06,1,.115a11.793,11.793,0,0,1,6.447,3.264,11.757,11.757,0,0,1,3.485,6.832c.054.361.094.724.14,1.086v1.313c-.053.416-.091.835-.16,1.248a11.816,11.816,0,0,1-3.7,6.895,11.692,11.692,0,0,1-6.4,3.061c-.361.053-.723.094-1.085.14h-1.312c-.308-.037-.617-.067-.924-.111a11.822,11.822,0,0,1-6.81-3.332,11.742,11.742,0,0,1-3.47-6.814c-.054-.361-.093-.724-.139-1.087v-1.313c.015-.068.033-.135.043-.2.082-.57.132-1.147.247-1.71a12.006,12.006,0,0,1,9.944-9.288C-1251.4,1464.092-1251.026,1464.047-1250.656,1464Zm-2.091,15.613c-.04-.141-.06-.222-.086-.3-.287-.883-.572-1.767-.866-2.647a.244.244,0,0,1,.105-.329c.763-.545,1.518-1.1,2.275-1.651.065-.047.127-.1.239-.186h-.326c-.89,0-1.781-.009-2.671.006a.36.36,0,0,1-.426-.3c-.265-.873-.557-1.739-.84-2.607-.022-.067-.051-.131-.095-.242-.045.129-.071.2-.1.275-.28.861-.569,1.719-.834,2.584a.347.347,0,0,1-.41.29c-.9-.015-1.8-.006-2.695-.006h-.238a.587.587,0,0,0,.194.207c.745.542,1.488,1.088,2.238,1.623a.258.258,0,0,1,.111.349c-.285.843-.557,1.69-.833,2.535-.038.116-.071.234-.123.406.116-.079.185-.124.252-.173.74-.536,1.483-1.068,2.216-1.614a.306.306,0,0,1,.441-.005c.724.544,1.463,1.069,2.2,1.6C-1252.946,1479.48-1252.871,1479.528-1252.747,1479.613Zm5.995-1.825-.013.063c.259.184.513.375.779.547a.236.236,0,0,1,.11.327c-.105.3-.191.6-.285.9a4.542,4.542,0,0,0,.792-.531.248.248,0,0,1,.365,0c.249.191.511.365.768.545a4.555,4.555,0,0,0-.26-.891.279.279,0,0,1,.13-.4c.243-.162.471-.346.712-.525-.036-.029-.047-.046-.058-.046-.14,0-.281,0-.421,0-.684.008-.684.008-.9-.633-.052-.153-.111-.3-.191-.521a7.5,7.5,0,0,0-.255.834c-.052.285-.2.361-.465.339S-1246.484,1477.788-1246.753,1477.788Zm-2.93,4.2.038.031c.291-.112.586-.214.87-.341a.246.246,0,0,1,.352.09c.183.246.384.478.577.716l.057-.025c-.017-.285-.019-.571-.054-.854a.3.3,0,0,1,.253-.386c.281-.085.551-.208.826-.315a5.513,5.513,0,0,0-.933-.3.221.221,0,0,1-.2-.251c-.008-.323-.035-.645-.059-1.036-.189.29-.356.515-.488.758a.347.347,0,0,1-.5.2,8.2,8.2,0,0,0-.813-.217,4.269,4.269,0,0,0,.525.712.315.315,0,0,1,.032.478C-1249.38,1481.487-1249.524,1481.746-1249.682,1481.993Zm-.16-10.107c.344-.082.63-.129.9-.222a.333.333,0,0,1,.477.2c.127.248.29.477.437.715a5.023,5.023,0,0,0,.117-.956c0-.178.081-.237.243-.271.306-.063.607-.148.911-.224a5.267,5.267,0,0,0-.845-.385.279.279,0,0,1-.222-.358c.045-.3.049-.6.07-.9a3.626,3.626,0,0,0-.594.637.326.326,0,0,1-.486.119c-.257-.129-.532-.221-.8-.329a5.794,5.794,0,0,0,.484.855.222.222,0,0,1-.022.323C-1249.39,1471.333-1249.593,1471.588-1249.843,1471.886Zm5.752.939c-.231.121-.4.209-.571.3-.521.276-.52.276-.938-.127-.14-.135-.281-.268-.421-.4a4.888,4.888,0,0,0,.121.952.245.245,0,0,1-.165.324c-.284.137-.559.292-.894.468.368.054.666.117.966.137.222.015.283.124.308.318.038.292.1.581.151.87a4.913,4.913,0,0,0,.447-.818.269.269,0,0,1,.357-.187c.29.059.586.085.906.129-.244-.259-.45-.491-.672-.707a.231.231,0,0,1-.057-.322C-1244.4,1473.473-1244.263,1473.178-1244.09,1472.825Z" fill="#d80027"/>
    <path id="路径_95" data-name="路径 95" d="M-1206.175,1629.188c-.124-.085-.2-.133-.271-.185-.733-.532-1.471-1.057-2.2-1.6a.306.306,0,0,0-.441.005c-.733.546-1.476,1.077-2.216,1.614-.067.049-.137.094-.252.173.052-.172.085-.29.123-.406.276-.846.549-1.693.833-2.535a.258.258,0,0,0-.111-.349c-.75-.535-1.493-1.081-2.238-1.623a.589.589,0,0,1-.194-.207h.238c.9,0,1.8-.009,2.695.006a.347.347,0,0,0,.41-.29c.265-.865.554-1.723.834-2.584.024-.073.051-.146.1-.275.044.11.073.175.095.242.283.868.575,1.733.84,2.607a.36.36,0,0,0,.426.3c.89-.015,1.781-.006,2.671-.006h.326c-.112.088-.174.139-.239.186-.757.552-1.513,1.107-2.275,1.651a.243.243,0,0,0-.105.328c.294.881.579,1.764.866,2.647C-1206.235,1628.966-1206.215,1629.047-1206.175,1629.188Z" transform="translate(-46.573 -149.575)" fill="#ffda44"/>
    <path id="路径_96" data-name="路径 96" d="M-936.977,1734.4c.269,0,.539-.017.806,0s.413-.054.465-.339a7.526,7.526,0,0,1,.255-.834c.079.217.138.368.191.521.219.641.219.641.9.633.14,0,.281,0,.421,0,.011,0,.022.017.058.046-.241.179-.469.364-.712.526a.279.279,0,0,0-.13.4,4.556,4.556,0,0,1,.26.891c-.257-.181-.519-.354-.768-.545a.248.248,0,0,0-.365,0,4.541,4.541,0,0,1-.792.531c.094-.3.18-.6.285-.9a.236.236,0,0,0-.11-.327c-.266-.172-.52-.364-.779-.547Z" transform="translate(-309.775 -256.615)" fill="#ffda44"/>
    <path id="路径_97" data-name="路径 97" d="M-1000.783,1793.613c.159-.247.3-.506.481-.738a.315.315,0,0,0-.032-.477,4.267,4.267,0,0,1-.525-.713,8.194,8.194,0,0,1,.813.217.347.347,0,0,0,.5-.2c.132-.243.3-.468.488-.758.024.391.051.713.059,1.036a.221.221,0,0,0,.2.251,5.525,5.525,0,0,1,.933.3c-.275.107-.545.23-.826.315a.3.3,0,0,0-.253.386c.035.283.038.569.054.854l-.057.025c-.193-.238-.394-.47-.577-.716a.246.246,0,0,0-.352-.09c-.284.126-.579.229-.87.341Z" transform="translate(-248.899 -311.62)" fill="#ffda44"/>
    <path id="路径_98" data-name="路径 98" d="M-1002.646,1583.447c.25-.3.453-.553.671-.795a.222.222,0,0,0,.022-.323,5.794,5.794,0,0,1-.484-.855c.267.108.542.2.8.329a.326.326,0,0,0,.486-.119,3.63,3.63,0,0,1,.594-.637c-.021.3-.025.6-.07.9a.279.279,0,0,0,.222.358,5.269,5.269,0,0,1,.845.385c-.3.076-.6.162-.911.225-.162.033-.238.093-.243.271a5.018,5.018,0,0,1-.117.956c-.147-.238-.31-.467-.437-.715a.333.333,0,0,0-.477-.2C-1002.016,1583.318-1002.3,1583.364-1002.646,1583.447Z" transform="translate(-247.197 -111.56)" fill="#ffda44"/>
    <path id="路径_99" data-name="路径 99" d="M-938.214,1647.573c-.172.353-.308.648-.46.934a.231.231,0,0,0,.057.322c.222.216.428.448.672.707-.319-.044-.616-.07-.906-.129a.269.269,0,0,0-.357.187,4.918,4.918,0,0,1-.447.818c-.052-.29-.113-.579-.151-.871-.025-.195-.086-.3-.308-.318-.3-.02-.6-.083-.966-.137.334-.177.61-.331.894-.468a.245.245,0,0,0,.164-.324,4.9,4.9,0,0,1-.121-.952c.14.134.282.267.421.4.417.4.417.4.938.127C-938.616,1647.782-938.446,1647.694-938.214,1647.573Z" transform="translate(-305.876 -174.748)" fill="#ffda44"/>
  </g>
</svg>
