<svg xmlns="http://www.w3.org/2000/svg" width="20" height="20" viewBox="0 0 20 20"><defs><style>.a{fill:#c8eae8;}.b{fill:none;}</style></defs><g transform="translate(-806 -160)"><path class="a" d="M127.2,131a2.994,2.994,0,1,1,2.994,3A3.006,3.006,0,0,1,127.2,131Zm15.006,3a3,3,0,1,0-2.994-3A3.006,3.006,0,0,0,142.206,134Zm0,1.5a3.006,3.006,0,0,0-2.994,3v1.2l-3.012,1.744-2.994-1.744v-1.2a2.994,2.994,0,1,0-5.988,0v6.75a.751.751,0,0,0,.748.75h4.491a.751.751,0,0,0,.748-.75v-3.806l2.582,1.5c.019,0,.019.019.037.019a.716.716,0,0,0,.748,0l2.638-1.538v3.825a.751.751,0,0,0,.748.75h4.491a.751.751,0,0,0,.748-.75V138.5A3.006,3.006,0,0,0,142.206,135.5Z" fill="#000" transform="translate(679.8 33)"/><rect class="b" width="20" height="20" transform="translate(806 160)"/></g></svg>
