<svg xmlns="http://www.w3.org/2000/svg" width="24" height="24" viewBox="0 0 24 24">
  <g id="英语" transform="translate(-159.005 -66.5)">
    <path id="路径_103" data-name="路径 103" d="M183.1,78.5a11.983,11.983,0,1,1-.048-1.088C183.083,77.762,183.1,78.126,183.1,78.5Z" transform="translate(-0.095)" fill="#3eb2f8"/>
    <path id="路径_104" data-name="路径 104" d="M175.444,90.976a1.935,1.935,0,0,1-1.395.575s-2.118-.052-2.531,1.151a13.622,13.622,0,0,1-1.5,2.165s-1.55.293-2.015.45-.258,2.092-.258,2.092l-1.963.732-.306.875v.513l-.506.209-.344-.513-.32-2.047-.368-1.649-.8-.394s-.527-.628-.482.837-.368,2.6-1.333,2.082-1.171.523-1.136.976a1.514,1.514,0,0,1-.169.659,11.956,11.956,0,0,1,7.232-16.19c.523.31,1.009.7.961,1.046-.1.314.31,3.714,5.631,5.858C173.843,90.4,176.064,90.348,175.444,90.976ZM183,94.867a11.968,11.968,0,0,1-6.54,10.66,1.962,1.962,0,0,1-.086-.638,2.836,2.836,0,0,0-.82-1.935c-.355-.471-3.933,1.935-3.933,1.935s-.568.889-2.066-.575.362-1.046.362-1.046,1.085-.1,1.446-.68a9.3,9.3,0,0,0,.93-2.458c.155-.732,1.24-1.151,1.808-1.308s1.136-.052.827-.785-1.085-.157-2.066-1.674,1.24-1.412,1.24-.575,1.911.941,2.789,1.308,2.738-2.228,2.738-2.228l3.323-1.091C182.983,94.135,183,94.5,183,94.867Z" transform="translate(0.005 -16.4)" fill="#baeb6c"/>
  </g>
</svg>
