<svg width="400" height="300" viewBox="0 0 400 300" fill="none" xmlns="http://www.w3.org/2000/svg">
<rect width="400" height="300" rx="8" fill="#14282E"/>
<mask id="mask0_353_3908" style="mask-type:luminance" maskUnits="userSpaceOnUse" x="131" y="82" width="121" height="70">
<path d="M161.283 94.8201H145.955C143.963 94.8201 142.334 96.4544 142.334 98.4525C142.334 100.451 143.963 102.085 145.955 102.085H153.755H156.041C158.033 102.085 159.662 103.72 159.662 105.718C159.662 106.716 159.254 107.627 158.597 108.282C157.944 108.942 157.036 109.351 156.041 109.351H151.164H148.472H135.334C133.342 109.351 131.713 110.986 131.713 112.983C131.713 114.981 133.342 116.616 135.334 116.616H144.739C141.9 123.31 140.327 130.676 140.327 138.412C140.327 141.219 140.535 143.977 140.933 146.673C141.099 147.799 141.3 148.915 141.534 150.02C148.366 148.971 155.612 148.128 163.177 147.513L163.746 148.034L164.282 147.426C173.371 146.717 182.91 146.339 192.749 146.339C213.653 146.339 233.214 148.043 249.94 151.008C250.585 148.204 251.019 145.319 251.225 142.369C251.318 141.062 251.364 139.742 251.364 138.412C251.364 107.648 226.509 82.7109 195.846 82.7109C182.778 82.7109 170.766 87.2413 161.283 94.8201Z" fill="#F1F2F7"/>
</mask>
<g mask="url(#mask0_353_3908)">
<path fill-rule="evenodd" clip-rule="evenodd" d="M129.065 153.654H254.011V80.0635H129.065V153.654Z" fill="#F1F2F7"/>
</g>
<mask id="mask1_353_3908" style="mask-type:luminance" maskUnits="userSpaceOnUse" x="118" y="109" width="10" height="8">
<path d="M122.138 109.184C120.121 109.184 118.471 110.852 118.471 112.89C118.471 114.927 120.121 116.596 122.138 116.596H124.333C126.35 116.596 128 114.927 128 112.89C128 110.852 126.35 109.184 124.333 109.184H122.138Z" fill="#F1F2F7"/>
</mask>
<g mask="url(#mask1_353_3908)">
<path fill-rule="evenodd" clip-rule="evenodd" d="M115.825 119.242H130.649V106.535H115.825V119.242Z" fill="#F1F2F7"/>
</g>
<mask id="mask2_353_3908" style="mask-type:luminance" maskUnits="userSpaceOnUse" x="141" y="146" width="121" height="48">
<path d="M164.203 147.496L163.666 148.1L163.097 147.582C155.534 148.193 148.29 149.03 141.46 150.073C146.781 175.105 169.07 193.888 195.758 193.888C208.255 193.888 219.785 189.768 229.064 182.818H238.942C240.933 182.818 242.562 181.193 242.562 179.209C242.562 178.217 242.154 177.312 241.498 176.66C240.843 176.005 239.936 175.599 238.942 175.599H234.646C232.655 175.599 231.026 173.975 231.026 171.989C231.026 170.998 231.434 170.093 232.09 169.441C232.745 168.786 233.652 168.38 234.646 168.38H257.768C259.759 168.38 261.388 166.755 261.388 164.769C261.388 163.778 260.98 162.873 260.324 162.221C259.667 161.566 258.764 161.16 257.768 161.16H246.43C247.878 157.942 249.027 154.564 249.84 151.055C233.118 148.11 213.562 146.415 192.662 146.415C182.826 146.415 173.288 146.79 164.203 147.496Z" fill="#E8EBF2"/>
</mask>
<g mask="url(#mask2_353_3908)">
<path fill-rule="evenodd" clip-rule="evenodd" d="M138.812 196.535H264.033V143.768H138.812V196.535Z" fill="#E8EBF2"/>
</g>
<mask id="mask3_353_3908" style="mask-type:luminance" maskUnits="userSpaceOnUse" x="164" y="139" width="87" height="13">
<path d="M240.124 146.928L234.534 141.805L228.553 146.245L226.045 142.79L216.147 146.245L193.345 142.79L180.091 146.45C184.143 146.314 188.261 146.245 192.434 146.245C213.31 146.245 232.846 147.982 249.549 151.003C250.192 148.145 250.627 145.206 250.832 142.2L248.939 139.885L240.124 146.928ZM164.005 147.353C169.227 146.937 174.598 146.633 180.091 146.45L170.299 140.061L164.005 147.353Z" fill="#E0E2EE"/>
</mask>
<g mask="url(#mask3_353_3908)">
<path fill-rule="evenodd" clip-rule="evenodd" d="M161.357 153.649H253.478V137.236H161.357V153.649Z" fill="#E0E2EE"/>
</g>
<mask id="mask4_353_3908" style="mask-type:luminance" maskUnits="userSpaceOnUse" x="162" y="147" width="3" height="1">
<path d="M162.944 147.373L163.49 147.827L164.003 147.297C163.65 147.32 163.295 147.346 162.944 147.373Z" fill="#F1F2F7"/>
</mask>
<g mask="url(#mask4_353_3908)">
<path fill-rule="evenodd" clip-rule="evenodd" d="M160.296 150.473H166.649V144.649H160.296V150.473Z" fill="#F1F2F7"/>
</g>
<mask id="mask5_353_3908" style="mask-type:luminance" maskUnits="userSpaceOnUse" x="140" y="137" width="23" height="13">
<path d="M140.706 146.593C140.872 147.721 141.073 148.839 141.306 149.945C148.136 148.896 155.38 148.051 162.942 147.435L152.411 137.769L140.706 146.593Z" fill="#E0E2EE"/>
</mask>
<g mask="url(#mask5_353_3908)">
<path fill-rule="evenodd" clip-rule="evenodd" d="M138.061 152.591H165.591V135.12H138.061V152.591Z" fill="#E0E2EE"/>
</g>
<mask id="mask6_353_3908" style="mask-type:luminance" maskUnits="userSpaceOnUse" x="176" y="167" width="42" height="4">
<path d="M176.026 169.122C176.026 170.144 185.271 170.975 196.675 170.975C208.078 170.975 217.323 170.144 217.323 169.122C217.323 168.099 208.078 167.269 196.675 167.269C185.271 167.269 176.026 168.099 176.026 169.122Z" fill="#D8DBEA"/>
</mask>
<g mask="url(#mask6_353_3908)">
<path fill-rule="evenodd" clip-rule="evenodd" d="M173.379 173.62H219.969V164.62H173.379V173.62Z" fill="#D8DBEA"/>
</g>
<mask id="mask7_353_3908" style="mask-type:luminance" maskUnits="userSpaceOnUse" x="246" y="175" width="8" height="8">
<path d="M246.062 179.062C246.062 181.101 247.73 182.768 249.769 182.768C251.807 182.768 253.475 181.101 253.475 179.062C253.475 177.025 251.807 175.356 249.769 175.356C247.73 175.356 246.062 177.025 246.062 179.062Z" fill="#E1E3EF"/>
</mask>
<g mask="url(#mask7_353_3908)">
<path fill-rule="evenodd" clip-rule="evenodd" d="M243.417 185.414H256.123V172.708H243.417V185.414Z" fill="#E1E3EF"/>
</g>
<path fill-rule="evenodd" clip-rule="evenodd" d="M196.134 124.127C194.41 124.127 193.012 122.729 193.012 121.005C193.012 119.282 194.41 117.885 196.134 117.885C197.857 117.885 199.255 119.282 199.255 121.005C199.255 122.729 197.857 124.127 196.134 124.127ZM196.134 116.592C193.696 116.592 191.72 118.568 191.72 121.005C191.72 123.444 193.696 125.42 196.134 125.42C198.571 125.42 200.548 123.444 200.548 121.005C200.548 118.568 198.571 116.592 196.134 116.592Z" fill="#D8DBEA"/>
<path fill-rule="evenodd" clip-rule="evenodd" d="M208.095 162.386H184.17C181.788 162.386 179.855 160.454 179.855 158.071V136.07C179.855 127.48 186.884 120.452 195.474 120.452H196.791C205.381 120.452 212.409 127.48 212.409 136.07V158.071C212.409 160.454 210.478 162.386 208.095 162.386Z" fill="#D8DBEA"/>
<path fill-rule="evenodd" clip-rule="evenodd" d="M214.37 157.146H214.136C213.186 157.146 212.409 156.369 212.409 155.42V143.147C212.409 142.198 213.186 141.421 214.136 141.421H216.476C217.426 141.421 218.202 142.198 218.202 143.147V153.313C218.202 155.421 216.477 157.146 214.37 157.146Z" fill="#14282E"/>
<path fill-rule="evenodd" clip-rule="evenodd" d="M178.131 157.146H177.897C175.788 157.146 174.063 155.421 174.063 153.313V143.147C174.063 142.198 174.84 141.421 175.79 141.421H178.131C179.08 141.421 179.857 142.198 179.857 143.147V155.42C179.857 156.369 179.08 157.146 178.131 157.146Z" fill="#14282E"/>
<path fill-rule="evenodd" clip-rule="evenodd" d="M206.341 156.45L195.858 159.767L185.374 156.45V149.283H206.341V156.45Z" fill="#BEC0D6"/>
<path fill-rule="evenodd" clip-rule="evenodd" d="M189.615 158.355L189.123 158.845C188.715 159.252 188.053 159.252 187.644 158.845L187.152 158.355V153.771H189.615V158.355Z" fill="#14282E"/>
<path fill-rule="evenodd" clip-rule="evenodd" d="M188.882 157.549C188.882 157.825 188.659 158.047 188.384 158.047C188.109 158.047 187.886 157.825 187.886 157.549C187.886 157.274 188.109 157.052 188.384 157.052C188.659 157.052 188.882 157.274 188.882 157.549Z" fill="#F7FFF6"/>
<path fill-rule="evenodd" clip-rule="evenodd" d="M203.686 158.355L203.194 158.845C202.785 159.252 202.123 159.252 201.714 158.845L201.223 158.355V153.771H203.686V158.355Z" fill="#14282E"/>
<path fill-rule="evenodd" clip-rule="evenodd" d="M202.952 157.549C202.952 157.825 202.729 158.047 202.454 158.047C202.179 158.047 201.956 157.825 201.956 157.549C201.956 157.274 202.179 157.052 202.454 157.052C202.729 157.052 202.952 157.274 202.952 157.549Z" fill="#F7FFF6"/>
<path d="M205.022 74.2363C186.682 75.7888 179.942 91.3122 185.463 100.361C189.36 106.745 195.962 115.373 208.27 113.304C220.577 111.234 221.614 99.8437 215.132 98.2944C208.651 96.7456 185.56 103.971 188.169 120.664C190.053 132.708 206.381 136.18 206.381 136.18" stroke="#E2E4EF" stroke-width="2.52941" stroke-dasharray="17.71 17.71"/>
<path fill-rule="evenodd" clip-rule="evenodd" d="M210.848 136.878V139.212V144.056L183.213 130.821C185.05 126.125 189.641 122.781 194.965 122.781H197.305C204.246 122.781 210.848 129.931 210.848 136.878Z" fill="white"/>
<path fill-rule="evenodd" clip-rule="evenodd" d="M183.21 138.099V135.766V130.921L210.845 144.157C209.009 148.853 204.418 152.196 199.093 152.196H196.754C189.812 152.196 183.21 145.046 183.21 138.099Z" fill="#14282E"/>
<path fill-rule="evenodd" clip-rule="evenodd" d="M215.622 64.7064C215.622 64.7064 218.25 57.8415 218.527 55.171C218.673 53.7756 216.361 49.8905 213.654 53.4842C210.948 57.078 212.183 61.4844 215.622 64.7064Z" fill="#E6E8ED"/>
<path fill-rule="evenodd" clip-rule="evenodd" d="M206.297 57.2298C203.219 56.1887 201.825 57.0005 201.231 58.6207C200.637 60.2415 201.466 63.3265 206.11 64.0297C210.754 64.733 215.357 64.706 215.357 64.706C215.357 64.706 209.376 58.271 206.297 57.2298Z" fill="#E6E8ED"/>
<path fill-rule="evenodd" clip-rule="evenodd" d="M215.1 66.0661C215.17 65.7792 215.263 65.5042 215.366 65.2354C214.797 65.3251 214.219 65.4512 213.637 65.6219C213.006 65.8067 212.416 66.049 211.862 66.3266C211.621 66.7812 211.427 67.2669 211.3 67.7884C210.52 70.999 212.362 74.2349 215.456 75.2945C215.791 75.2281 216.128 75.1513 216.465 75.0527C217.407 74.7767 218.277 74.4114 219.063 73.9879C216.041 72.6621 214.301 69.3535 215.1 66.0661Z" fill="#E6E8ED"/>
<path fill-rule="evenodd" clip-rule="evenodd" d="M210.683 67.74C210.757 67.4229 210.857 67.1196 210.969 66.8232C208.291 68.5383 206.792 71.2001 207.04 72.7523C205.329 73.4875 204.239 74.1069 204.239 74.1069C204.239 74.1069 205.53 74.0087 207.411 73.6472C208.418 75.1193 211.211 76.105 214.298 75.7515C211.501 74.305 209.923 71.0132 210.683 67.74Z" fill="#E6E8ED"/>
<path fill-rule="evenodd" clip-rule="evenodd" d="M219.548 68.9044C218.839 68.7342 218.399 68.0218 218.57 67.3083C218.74 66.5998 219.457 66.1607 220.165 66.3309C220.878 66.5021 221.313 67.2172 221.143 67.9263C220.972 68.6393 220.261 69.0751 219.548 68.9044ZM222.655 67.9512C222.084 65.9744 219.46 64.9535 216.364 65.3031C216.235 65.6094 216.125 65.9326 216.046 66.2673C215.357 69.2015 216.949 72.1531 219.65 73.1768C221.903 71.7434 223.168 69.7136 222.655 67.9512Z" fill="#E6E8ED"/>
<path d="M90.2878 206.909C90.18 205.999 89.7428 205.292 88.9764 204.789C88.2099 204.286 87.2697 204.035 86.1559 204.035C85.3415 204.035 84.6289 204.167 84.0181 204.43C83.4133 204.694 82.9403 205.056 82.5989 205.517C82.2636 205.978 82.0959 206.502 82.0959 207.089C82.0959 207.58 82.2127 208.002 82.4462 208.355C82.6858 208.703 82.9912 208.993 83.3624 209.227C83.7337 209.454 84.1229 209.643 84.5301 209.793C84.9373 209.936 85.3116 210.053 85.6529 210.143L87.5212 210.646C88.0003 210.772 88.5332 210.945 89.1201 211.167C89.7129 211.388 90.2788 211.691 90.8177 212.074C91.3626 212.451 91.8118 212.936 92.1651 213.529C92.5184 214.122 92.695 214.85 92.695 215.712C92.695 216.706 92.4345 217.604 91.9136 218.407C91.3986 219.209 90.6441 219.847 89.65 220.32C88.662 220.793 87.4613 221.029 86.0481 221.029C84.7307 221.029 83.59 220.817 82.6259 220.392C81.6678 219.967 80.9133 219.374 80.3623 218.613C79.8174 217.853 79.509 216.969 79.4372 215.963H81.7366C81.7965 216.658 82.0301 217.233 82.4372 217.688C82.8504 218.137 83.3714 218.472 84.0002 218.694C84.6349 218.91 85.3176 219.017 86.0481 219.017C86.8985 219.017 87.6619 218.88 88.3386 218.604C89.0153 218.323 89.5512 217.934 89.9464 217.437C90.3417 216.933 90.5393 216.347 90.5393 215.676C90.5393 215.065 90.3686 214.568 90.0273 214.185C89.686 213.802 89.2368 213.49 88.6799 213.251C88.123 213.011 87.5212 212.802 86.8745 212.622L84.611 211.975C83.1738 211.562 82.036 210.972 81.1977 210.206C80.3593 209.439 79.9402 208.436 79.9402 207.197C79.9402 206.167 80.2186 205.268 80.7755 204.502C81.3384 203.73 82.0929 203.131 83.0391 202.706C83.9912 202.274 85.0541 202.059 86.2278 202.059C87.4134 202.059 88.4674 202.271 89.3895 202.697C90.3117 203.116 91.0423 203.691 91.5812 204.421C92.1261 205.152 92.4136 205.981 92.4435 206.909H90.2878ZM101.675 220.993C100.43 220.993 99.3367 220.697 98.3965 220.104C97.4624 219.511 96.7318 218.682 96.2048 217.616C95.6839 216.55 95.4234 215.305 95.4234 213.88C95.4234 212.442 95.6839 211.188 96.2048 210.116C96.7318 209.044 97.4624 208.212 98.3965 207.619C99.3367 207.026 100.43 206.73 101.675 206.73C102.921 206.73 104.01 207.026 104.945 207.619C105.885 208.212 106.615 209.044 107.136 210.116C107.663 211.188 107.927 212.442 107.927 213.88C107.927 215.305 107.663 216.55 107.136 217.616C106.615 218.682 105.885 219.511 104.945 220.104C104.01 220.697 102.921 220.993 101.675 220.993ZM101.675 219.089C102.621 219.089 103.4 218.847 104.01 218.362C104.621 217.877 105.073 217.239 105.367 216.448C105.66 215.658 105.807 214.802 105.807 213.88C105.807 212.957 105.66 212.098 105.367 211.302C105.073 210.505 104.621 209.861 104.01 209.37C103.4 208.879 102.621 208.634 101.675 208.634C100.729 208.634 99.9505 208.879 99.3397 209.37C98.7289 209.861 98.2768 210.505 97.9833 211.302C97.6899 212.098 97.5432 212.957 97.5432 213.88C97.5432 214.802 97.6899 215.658 97.9833 216.448C98.2768 217.239 98.7289 217.877 99.3397 218.362C99.9505 218.847 100.729 219.089 101.675 219.089ZM111.163 220.706V206.909H113.211V208.993H113.354C113.606 208.311 114.061 207.757 114.72 207.331C115.378 206.906 116.121 206.694 116.947 206.694C117.103 206.694 117.298 206.697 117.531 206.703C117.765 206.709 117.941 206.718 118.061 206.73V208.885C117.989 208.867 117.824 208.84 117.567 208.805C117.315 208.763 117.049 208.742 116.768 208.742C116.097 208.742 115.498 208.882 114.971 209.164C114.45 209.439 114.037 209.823 113.732 210.314C113.432 210.799 113.282 211.353 113.282 211.975V220.706H111.163ZM120.574 220.706V206.909H122.622V208.993H122.765C123.017 208.311 123.472 207.757 124.131 207.331C124.789 206.906 125.532 206.694 126.358 206.694C126.514 206.694 126.709 206.697 126.942 206.703C127.176 206.709 127.352 206.718 127.472 206.73V208.885C127.4 208.867 127.236 208.84 126.978 208.805C126.727 208.763 126.46 208.742 126.179 208.742C125.508 208.742 124.909 208.882 124.382 209.164C123.861 209.439 123.448 209.823 123.143 210.314C122.843 210.799 122.694 211.353 122.694 211.975V220.706H120.574ZM131.77 225.88C131.411 225.88 131.091 225.85 130.809 225.79C130.528 225.736 130.333 225.682 130.225 225.628L130.764 223.76C131.279 223.892 131.734 223.94 132.13 223.904C132.525 223.868 132.875 223.691 133.18 223.374C133.492 223.062 133.776 222.556 134.034 221.856L134.429 220.778L129.327 206.909H131.626L135.435 217.904H135.579L139.387 206.909H141.687L135.83 222.718C135.567 223.431 135.24 224.021 134.851 224.488C134.462 224.961 134.01 225.311 133.495 225.539C132.986 225.766 132.411 225.88 131.77 225.88ZM146.782 218.191L146.638 219.161C146.536 219.844 146.381 220.574 146.171 221.353C145.967 222.131 145.755 222.865 145.533 223.553C145.312 224.242 145.129 224.79 144.985 225.197H143.369C143.446 224.814 143.548 224.308 143.674 223.679C143.8 223.05 143.925 222.347 144.051 221.568C144.183 220.796 144.291 220.005 144.375 219.197L144.482 218.191H146.782ZM160.949 220.706L156.745 206.909H158.973L161.955 217.472H162.099L165.045 206.909H167.309L170.219 217.437H170.363L173.345 206.909H175.572L171.369 220.706H169.285L166.267 210.107H166.051L163.033 220.706H160.949ZM182.435 221.029C181.561 221.029 180.767 220.865 180.054 220.535C179.342 220.2 178.776 219.718 178.357 219.089C177.938 218.454 177.728 217.688 177.728 216.79C177.728 215.999 177.884 215.359 178.195 214.868C178.507 214.371 178.923 213.981 179.444 213.7C179.965 213.418 180.54 213.209 181.168 213.071C181.803 212.927 182.441 212.814 183.082 212.73C183.92 212.622 184.6 212.541 185.12 212.487C185.647 212.427 186.031 212.329 186.27 212.191C186.516 212.053 186.639 211.814 186.639 211.472V211.4C186.639 210.514 186.396 209.826 185.911 209.334C185.432 208.843 184.704 208.598 183.728 208.598C182.716 208.598 181.923 208.819 181.348 209.263C180.773 209.706 180.369 210.179 180.135 210.682L178.123 209.963C178.483 209.125 178.962 208.472 179.56 208.005C180.165 207.532 180.824 207.203 181.537 207.017C182.255 206.825 182.962 206.73 183.656 206.73C184.1 206.73 184.609 206.784 185.183 206.891C185.764 206.993 186.324 207.206 186.863 207.529C187.408 207.852 187.86 208.34 188.219 208.993C188.579 209.646 188.758 210.52 188.758 211.616V220.706H186.639V218.838H186.531C186.387 219.137 186.147 219.458 185.812 219.799C185.477 220.14 185.031 220.431 184.474 220.67C183.917 220.91 183.237 221.029 182.435 221.029ZM182.758 219.125C183.596 219.125 184.303 218.96 184.878 218.631C185.459 218.302 185.896 217.877 186.189 217.356C186.489 216.835 186.639 216.287 186.639 215.712V213.772C186.549 213.88 186.351 213.978 186.046 214.068C185.746 214.152 185.399 214.227 185.004 214.293C184.614 214.353 184.234 214.406 183.863 214.454C183.498 214.496 183.201 214.532 182.974 214.562C182.423 214.634 181.908 214.751 181.429 214.912C180.956 215.068 180.572 215.305 180.279 215.622C179.992 215.933 179.848 216.359 179.848 216.898C179.848 217.634 180.12 218.191 180.665 218.568C181.216 218.94 181.914 219.125 182.758 219.125ZM194.747 202.31V220.706H192.627V202.31H194.747ZM202.69 221.029C201.816 221.029 201.022 220.865 200.31 220.535C199.597 220.2 199.031 219.718 198.612 219.089C198.193 218.454 197.983 217.688 197.983 216.79C197.983 215.999 198.139 215.359 198.45 214.868C198.762 214.371 199.178 213.981 199.699 213.7C200.22 213.418 200.795 213.209 201.423 213.071C202.058 212.927 202.696 212.814 203.337 212.73C204.175 212.622 204.855 212.541 205.376 212.487C205.903 212.427 206.286 212.329 206.525 212.191C206.771 212.053 206.894 211.814 206.894 211.472V211.4C206.894 210.514 206.651 209.826 206.166 209.334C205.687 208.843 204.959 208.598 203.983 208.598C202.971 208.598 202.178 208.819 201.603 209.263C201.028 209.706 200.624 210.179 200.39 210.682L198.378 209.963C198.738 209.125 199.217 208.472 199.816 208.005C200.42 207.532 201.079 207.203 201.792 207.017C202.51 206.825 203.217 206.73 203.911 206.73C204.355 206.73 204.864 206.784 205.438 206.891C206.019 206.993 206.579 207.206 207.118 207.529C207.663 207.852 208.115 208.34 208.474 208.993C208.834 209.646 209.013 210.52 209.013 211.616V220.706H206.894V218.838H206.786C206.642 219.137 206.403 219.458 206.067 219.799C205.732 220.14 205.286 220.431 204.729 220.67C204.172 220.91 203.492 221.029 202.69 221.029ZM203.013 219.125C203.852 219.125 204.558 218.96 205.133 218.631C205.714 218.302 206.151 217.877 206.444 217.356C206.744 216.835 206.894 216.287 206.894 215.712V213.772C206.804 213.88 206.606 213.978 206.301 214.068C206.001 214.152 205.654 214.227 205.259 214.293C204.87 214.353 204.489 214.406 204.118 214.454C203.753 214.496 203.456 214.532 203.229 214.562C202.678 214.634 202.163 214.751 201.684 214.912C201.211 215.068 200.828 215.305 200.534 215.622C200.247 215.933 200.103 216.359 200.103 216.898C200.103 217.634 200.375 218.191 200.92 218.568C201.471 218.94 202.169 219.125 203.013 219.125ZM215.002 212.406V220.706H212.882V206.909H214.93V209.065H215.11C215.433 208.364 215.924 207.802 216.583 207.376C217.242 206.945 218.092 206.73 219.134 206.73C220.068 206.73 220.886 206.921 221.586 207.304C222.287 207.682 222.832 208.257 223.221 209.029C223.61 209.796 223.805 210.766 223.805 211.939V220.706H221.685V212.083C221.685 210.999 221.404 210.155 220.841 209.55C220.278 208.939 219.505 208.634 218.523 208.634C217.847 208.634 217.242 208.781 216.709 209.074C216.182 209.367 215.766 209.796 215.46 210.358C215.155 210.921 215.002 211.604 215.002 212.406ZM233.248 226.167C232.224 226.167 231.343 226.036 230.607 225.772C229.87 225.515 229.256 225.173 228.765 224.748C228.28 224.329 227.894 223.88 227.607 223.401L229.295 222.215C229.487 222.467 229.73 222.754 230.023 223.077C230.316 223.407 230.718 223.691 231.227 223.931C231.742 224.176 232.415 224.299 233.248 224.299C234.361 224.299 235.281 224.03 236.005 223.491C236.73 222.952 237.092 222.107 237.092 220.958V218.155H236.912C236.757 218.407 236.535 218.718 236.248 219.089C235.966 219.455 235.559 219.781 235.026 220.068C234.499 220.35 233.787 220.49 232.888 220.49C231.774 220.49 230.774 220.227 229.888 219.7C229.008 219.173 228.31 218.407 227.795 217.401C227.286 216.395 227.032 215.173 227.032 213.736C227.032 212.323 227.28 211.092 227.777 210.044C228.274 208.99 228.966 208.176 229.852 207.601C230.739 207.02 231.763 206.73 232.924 206.73C233.822 206.73 234.535 206.879 235.062 207.179C235.595 207.472 236.002 207.807 236.284 208.185C236.571 208.556 236.793 208.861 236.948 209.101H237.164V206.909H239.212V221.101C239.212 222.287 238.942 223.251 238.403 223.994C237.87 224.742 237.152 225.29 236.248 225.637C235.349 225.991 234.349 226.167 233.248 226.167ZM233.176 218.586C234.026 218.586 234.745 218.392 235.331 218.002C235.918 217.613 236.364 217.053 236.67 216.323C236.975 215.592 237.128 214.718 237.128 213.7C237.128 212.706 236.978 211.829 236.679 211.068C236.379 210.308 235.936 209.712 235.349 209.281C234.763 208.849 234.038 208.634 233.176 208.634C232.277 208.634 231.529 208.861 230.93 209.317C230.337 209.772 229.891 210.382 229.592 211.149C229.298 211.915 229.152 212.766 229.152 213.7C229.152 214.658 229.301 215.505 229.601 216.242C229.906 216.972 230.355 217.547 230.948 217.966C231.547 218.38 232.289 218.586 233.176 218.586ZM252.721 202.31V220.706H250.494V202.31H252.721ZM256.9 220.706V206.909H258.948V209.065H259.128C259.415 208.328 259.879 207.757 260.52 207.349C261.161 206.936 261.93 206.73 262.828 206.73C263.739 206.73 264.496 206.936 265.101 207.349C265.712 207.757 266.188 208.328 266.529 209.065H266.673C267.026 208.352 267.556 207.787 268.263 207.367C268.969 206.942 269.817 206.73 270.805 206.73C272.038 206.73 273.047 207.116 273.832 207.888C274.616 208.655 275.008 209.849 275.008 211.472V220.706H272.889V211.472C272.889 210.454 272.61 209.727 272.053 209.29C271.496 208.852 270.841 208.634 270.086 208.634C269.116 208.634 268.365 208.927 267.832 209.514C267.299 210.095 267.032 210.832 267.032 211.724V220.706H264.876V211.257C264.876 210.472 264.622 209.84 264.113 209.361C263.604 208.876 262.948 208.634 262.146 208.634C261.595 208.634 261.08 208.781 260.601 209.074C260.128 209.367 259.745 209.775 259.451 210.296C259.164 210.811 259.02 211.406 259.02 212.083V220.706H256.9ZM282.944 221.029C282.07 221.029 281.277 220.865 280.564 220.535C279.851 220.2 279.286 219.718 278.866 219.089C278.447 218.454 278.238 217.688 278.238 216.79C278.238 215.999 278.393 215.359 278.705 214.868C279.016 214.371 279.432 213.981 279.953 213.7C280.474 213.418 281.049 213.209 281.678 213.071C282.313 212.927 282.95 212.814 283.591 212.73C284.429 212.622 285.109 212.541 285.63 212.487C286.157 212.427 286.54 212.329 286.78 212.191C287.025 212.053 287.148 211.814 287.148 211.472V211.4C287.148 210.514 286.906 209.826 286.42 209.334C285.941 208.843 285.214 208.598 284.238 208.598C283.226 208.598 282.432 208.819 281.857 209.263C281.283 209.706 280.878 210.179 280.645 210.682L278.633 209.963C278.992 209.125 279.471 208.472 280.07 208.005C280.675 207.532 281.333 207.203 282.046 207.017C282.765 206.825 283.471 206.73 284.166 206.73C284.609 206.73 285.118 206.784 285.693 206.891C286.274 206.993 286.834 207.206 287.373 207.529C287.918 207.852 288.37 208.34 288.729 208.993C289.088 209.646 289.268 210.52 289.268 211.616V220.706H287.148V218.838H287.04C286.897 219.137 286.657 219.458 286.322 219.799C285.986 220.14 285.54 220.431 284.983 220.67C284.426 220.91 283.747 221.029 282.944 221.029ZM283.268 219.125C284.106 219.125 284.813 218.96 285.388 218.631C285.968 218.302 286.405 217.877 286.699 217.356C286.998 216.835 287.148 216.287 287.148 215.712V213.772C287.058 213.88 286.861 213.978 286.555 214.068C286.256 214.152 285.908 214.227 285.513 214.293C285.124 214.353 284.744 214.406 284.373 214.454C284.007 214.496 283.711 214.532 283.483 214.562C282.932 214.634 282.417 214.751 281.938 214.912C281.465 215.068 281.082 215.305 280.789 215.622C280.501 215.933 280.357 216.359 280.357 216.898C280.357 217.634 280.63 218.191 281.175 218.568C281.726 218.94 282.423 219.125 283.268 219.125ZM298.706 226.167C297.682 226.167 296.802 226.036 296.065 225.772C295.329 225.515 294.715 225.173 294.224 224.748C293.739 224.329 293.353 223.88 293.065 223.401L294.754 222.215C294.945 222.467 295.188 222.754 295.481 223.077C295.775 223.407 296.176 223.691 296.685 223.931C297.2 224.176 297.874 224.299 298.706 224.299C299.82 224.299 300.739 224.03 301.464 223.491C302.188 222.952 302.55 222.107 302.55 220.958V218.155H302.371C302.215 218.407 301.994 218.718 301.706 219.089C301.425 219.455 301.017 219.781 300.484 220.068C299.958 220.35 299.245 220.49 298.347 220.49C297.233 220.49 296.233 220.227 295.347 219.7C294.466 219.173 293.769 218.407 293.254 217.401C292.745 216.395 292.49 215.173 292.49 213.736C292.49 212.323 292.739 211.092 293.236 210.044C293.733 208.99 294.424 208.176 295.311 207.601C296.197 207.02 297.221 206.73 298.383 206.73C299.281 206.73 299.993 206.879 300.52 207.179C301.053 207.472 301.461 207.807 301.742 208.185C302.029 208.556 302.251 208.861 302.407 209.101H302.622V206.909H304.67V221.101C304.67 222.287 304.401 223.251 303.862 223.994C303.329 224.742 302.61 225.29 301.706 225.637C300.808 225.991 299.808 226.167 298.706 226.167ZM298.634 218.586C299.484 218.586 300.203 218.392 300.79 218.002C301.377 217.613 301.823 217.053 302.128 216.323C302.434 215.592 302.586 214.718 302.586 213.7C302.586 212.706 302.437 211.829 302.137 211.068C301.838 210.308 301.395 209.712 300.808 209.281C300.221 208.849 299.496 208.634 298.634 208.634C297.736 208.634 296.987 208.861 296.389 209.317C295.796 209.772 295.35 210.382 295.05 211.149C294.757 211.915 294.61 212.766 294.61 213.7C294.61 214.658 294.76 215.505 295.059 216.242C295.365 216.972 295.814 217.547 296.407 217.966C297.005 218.38 297.748 218.586 298.634 218.586ZM314.335 220.993C313.006 220.993 311.859 220.7 310.895 220.113C309.937 219.52 309.197 218.694 308.676 217.634C308.161 216.568 307.904 215.329 307.904 213.915C307.904 212.502 308.161 211.257 308.676 210.179C309.197 209.095 309.922 208.251 310.85 207.646C311.784 207.035 312.874 206.73 314.12 206.73C314.838 206.73 315.548 206.849 316.248 207.089C316.949 207.328 317.587 207.718 318.162 208.257C318.736 208.79 319.195 209.496 319.536 210.376C319.877 211.257 320.048 212.341 320.048 213.628V214.526H309.413V212.694H317.892C317.892 211.915 317.736 211.221 317.425 210.61C317.12 209.999 316.683 209.517 316.114 209.164C315.551 208.811 314.886 208.634 314.12 208.634C313.275 208.634 312.545 208.843 311.928 209.263C311.317 209.676 310.847 210.215 310.518 210.879C310.188 211.544 310.024 212.257 310.024 213.017V214.239C310.024 215.281 310.203 216.164 310.563 216.889C310.928 217.607 311.434 218.155 312.081 218.532C312.727 218.904 313.479 219.089 314.335 219.089C314.892 219.089 315.395 219.011 315.844 218.856C316.299 218.694 316.692 218.454 317.021 218.137C317.35 217.814 317.605 217.413 317.784 216.933L319.832 217.508C319.617 218.203 319.254 218.814 318.745 219.341C318.236 219.862 317.608 220.269 316.859 220.562C316.111 220.85 315.269 220.993 314.335 220.993Z" fill="#E6E8ED"/>
</svg>
